<svg width="25" height="20" viewBox="0 0 25 20" fill="none" xmlns="http://www.w3.org/2000/svg">
<path d="M20.9718 2.15453C19.3958 1.41712 17.7105 0.881206 15.9487 0.57605C15.7323 0.967249 15.4795 1.49342 15.3052 1.91199C13.4324 1.63033 11.5767 1.63033 9.73824 1.91199C9.56398 1.49342 9.30545 0.967249 9.08714 0.57605C7.32339 0.881206 5.63624 1.41909 4.06016 2.15844C0.881199 6.96227 0.0194345 11.6468 0.450317 16.2648C2.55877 17.8393 4.60212 18.7958 6.61098 19.4217C7.10698 18.7391 7.54935 18.0134 7.93043 17.2486C7.20464 16.9728 6.50949 16.6325 5.85265 16.2374C6.0269 16.1083 6.19735 15.9733 6.36203 15.8345C10.3683 17.7083 14.7212 17.7083 18.6795 15.8345C18.8462 15.9733 19.0166 16.1083 19.1889 16.2374C18.5302 16.6344 17.8331 16.9748 17.1073 17.2506C17.4884 18.0134 17.9289 18.741 18.4268 19.4236C20.4376 18.7977 22.4828 17.8413 24.5913 16.2648C25.0968 10.9113 23.7276 6.26985 20.9718 2.15453ZM8.47623 13.4247C7.27359 13.4247 6.28734 12.302 6.28734 10.9348C6.28734 9.56759 7.25253 8.44292 8.47623 8.44292C9.69996 8.44292 10.6862 9.56562 10.6651 10.9348C10.667 12.302 9.69996 13.4247 8.47623 13.4247ZM16.5653 13.4247C15.3627 13.4247 14.3765 12.302 14.3765 10.9348C14.3765 9.56759 15.3416 8.44292 16.5653 8.44292C17.789 8.44292 18.7753 9.56562 18.7542 10.9348C18.7542 12.302 17.789 13.4247 16.5653 13.4247Z" fill="#1214FD"/>
</svg>
