<svg fill="none" xmlns="http://www.w3.org/2000/svg" viewBox="0 0 145 32">
    <path d="M46.12 23.33c-.53 0-.96-.15-1.29-.47a1.69 1.69 0 0 1-.47-1.25V8.98h6.54c1.07 0 2 .2 2.8.62.83.4 1.46.96 1.9 1.7.44.74.67 1.6.67 2.56v4.18c0 1.74-.45 3.06-1.35 3.96-.9.89-2.2 1.33-3.94 1.33h-4.86Zm4.8-2.1c.97 0 1.7-.28 2.2-.83.5-.56.75-1.37.75-2.44v-4.02c0-.84-.28-1.53-.84-2.05a3.07 3.07 0 0 0-2.2-.8h-4.07v10.13h4.16Zm8.9-9.27c-.46 0-.84-.14-1.12-.41a1.51 1.51 0 0 1-.41-1.1c0-.43.13-.78.4-1.06.3-.28.67-.43 1.13-.43.47 0 .84.15 1.13.43.29.28.43.63.43 1.07 0 .44-.14.8-.43 1.09-.29.27-.66.4-1.13.4Zm-1.16 1.14H61v10.23h-2.35V13.1Zm8.53 10.4a4.11 4.11 0 0 1-2.83-.95 3.18 3.18 0 0 1-1.07-2.5h2.32c0 .44.14.8.43 1.07.29.26.67.39 1.15.39h1.82c.47 0 .83-.08 1.1-.23.26-.16.4-.38.4-.65v-.45c0-.2-.08-.36-.25-.5a1.3 1.3 0 0 0-.63-.28l-3.55-.62a3.56 3.56 0 0 1-1.88-.86 2.1 2.1 0 0 1-.7-1.56v-.67c0-.85.33-1.52 1-2.01.69-.5 1.62-.74 2.81-.74h1.64c1.08 0 1.96.3 2.63.88.67.59 1 1.36 1 2.32h-2.32c0-.37-.12-.66-.36-.88a1.32 1.32 0 0 0-.95-.33h-1.62c-.48 0-.84.07-1.1.22-.26.15-.4.37-.4.64v.41c0 .2.08.35.23.5.17.13.38.22.64.26l3.67.65a3.6 3.6 0 0 1 1.8.87c.45.42.68.92.68 1.5v.75c0 .85-.35 1.52-1.05 2.03-.7.5-1.62.74-2.79.74H67.2Zm11.67-.17c-1.16 0-2.01-.26-2.54-.78-.54-.51-.8-1.33-.8-2.46v-4.96h-1.8V13.1h1.86V10h2.3v3.1h2.66v2.03h-2.67v4.88c0 .45.1.78.27.99.18.2.46.3.84.3h1.56v2.03h-1.68Zm3.7-10.23h2.19v1.4c.27-.43.66-.77 1.17-1.03a3.4 3.4 0 0 1 1.6-.4h1.23v2.04h-1.23c-.78 0-1.41.24-1.89.72s-.72 1.1-.72 1.87v5.63h-2.35V13.1Zm9-1.14c-.47 0-.84-.14-1.13-.41a1.51 1.51 0 0 1-.41-1.1c0-.43.14-.78.4-1.06.3-.28.67-.43 1.14-.43.46 0 .84.15 1.12.43.29.28.43.63.43 1.07 0 .44-.14.8-.43 1.09-.28.27-.66.4-1.12.4Zm-1.17 1.14h2.35v10.23H90.4V13.1Zm7 10.23c-.53 0-.95-.15-1.28-.47a1.7 1.7 0 0 1-.49-1.25V8.98h6.79c1.27 0 2.29.31 3.05.93.78.6 1.17 1.4 1.17 2.4v1.04a2.78 2.78 0 0 1-1.31 2.38v.02c.67.22 1.2.59 1.6 1.1.4.52.61 1.11.61 1.77v1.02c0 1.14-.39 2.04-1.17 2.7-.78.67-1.83 1-3.15 1h-5.83Zm5.14-8.22c.5 0 .91-.16 1.23-.49.31-.33.47-.75.47-1.27v-.84c0-.44-.18-.79-.53-1.05-.34-.26-.8-.39-1.38-.39h-4.3v4.04h4.51Zm.47 6.13a2.4 2.4 0 0 0 1.56-.45c.38-.3.57-.72.57-1.25v-.92c0-.47-.16-.84-.49-1.1a1.92 1.92 0 0 0-1.31-.44h-5.31v4.16H103Zm6.29-8.14h2.2v1.4c.26-.43.65-.77 1.16-1.03a3.4 3.4 0 0 1 1.6-.4h1.23v2.04h-1.23c-.78 0-1.4.24-1.89.72-.48.48-.72 1.1-.72 1.87v5.63h-2.35V13.1Zm10.28 10.4a3.89 3.89 0 0 1-2.52-.78 2.63 2.63 0 0 1-.95-2.11v-.74c0-.86.33-1.55.99-2.07a4.16 4.16 0 0 1 2.62-.78h1.27a5.31 5.31 0 0 1 2.4.6v-1.28c0-.42-.14-.76-.41-1.02a1.48 1.48 0 0 0-1.07-.4h-1.72c-.45 0-.81.12-1.09.34a.97.97 0 0 0-.4.82h-2.3c0-.95.35-1.7 1.04-2.28.7-.57 1.62-.86 2.75-.86h1.72c1.15 0 2.07.31 2.77.94.7.62 1.05 1.44 1.05 2.46v7h-2.2v-1.3c-.33.44-.73.8-1.23 1.07-.49.26-.97.39-1.45.39h-1.27Zm1.41-1.85a2.5 2.5 0 0 0 2.4-1.68v-.49c-.23-.2-.56-.34-.98-.45a4.75 4.75 0 0 0-1.34-.19h-1.29c-.4 0-.74.1-1 .31a1 1 0 0 0-.37.8v.57a1 1 0 0 0 .39.82c.26.21.6.31 1.02.31h1.17Zm8.57-9.7c-.46 0-.84-.13-1.12-.4a1.51 1.51 0 0 1-.41-1.1c0-.43.13-.78.4-1.06.3-.28.67-.43 1.13-.43.47 0 .84.15 1.13.43.29.28.43.63.43 1.07 0 .44-.14.8-.43 1.09-.29.27-.66.4-1.13.4Zm-1.17 1.15h2.36v10.23h-2.36V13.1Zm5.16 0h2.19v1.34a3.37 3.37 0 0 1 2.67-1.5h1.27a3.3 3.3 0 0 1 2.52 1c.64.67.96 1.56.96 2.65v6.74h-2.36v-6.68c0-.5-.13-.89-.39-1.19a1.19 1.19 0 0 0-.98-.47h-1.27a2 2 0 0 0-1.44.62c-.42.4-.7.9-.82 1.53v6.2h-2.35V13.1Z" fill="#fff"/>
    <g clip-path="url(#clip0_322_2035)">
        <mask id="mask0_322_2035" style="mask-type:luminance" maskUnits="userSpaceOnUse" x="0" y="0" width="17" height="32">
            <path d="M10.6 10.46a1.61 1.61 0 1 1 0 3.23 1.61 1.61 0 0 1 0-3.23Zm.13-8.44A1.57 1.57 0 1 0 8.5 4.25c.3.3.7.46 1.1.46.6.01 1.11.23 1.53.65.54.55.76 1.26.61 2a2.65 2.65 0 1 0 2.1-2.09 2.16 2.16 0 0 1-2-.6 2.16 2.16 0 0 1-.65-1.55c0-.4-.16-.8-.46-1.1Zm-4.4 2.77a2.78 2.78 0 1 1 0 5.55 2.78 2.78 0 0 1 0-5.55ZM14.58 0a2.07 2.07 0 1 1-.01 4.13 2.07 2.07 0 0 1 0-4.13ZM10.6 21.54a1.61 1.61 0 1 0 0-3.23 1.61 1.61 0 0 0 0 3.23Zm.12 8.44a1.57 1.57 0 1 1-2.22-2.23c.3-.3.7-.46 1.09-.46.6-.01 1.11-.23 1.54-.65.54-.55.76-1.26.6-2a2.65 2.65 0 1 1 2.1 2.09 2.16 2.16 0 0 0-2 .6 2.2 2.2 0 0 0-.65 1.55c0 .4-.16.8-.46 1.1Zm-4.4-2.77a2.78 2.78 0 1 0 0-5.55 2.78 2.78 0 0 0 0 5.55ZM14.59 32a2.07 2.07 0 1 0-.01-4.14 2.07 2.07 0 0 0 0 4.14Zm.05-18.37A2.36 2.36 0 1 1 13 17.7a3.2 3.2 0 0 0-2.32-.95c-1.15 0-2.13.53-2.77 1.48A3.96 3.96 0 0 1 .63 16a3.98 3.98 0 0 1 7.27-2.22 3.24 3.24 0 0 0 2.76 1.47c.91 0 1.68-.32 2.33-.95.42-.41 1-.67 1.64-.67Z" fill="#fff"/>
        </mask>
        <g mask="url(#mask0_322_2035)">
            <path d="M17.25 0H.63v32h16.62V0Z" fill="url(#paint0_linear_322_2035)"/>
        </g>
        <mask id="mask1_322_2035" style="mask-type:luminance" maskUnits="userSpaceOnUse" x="17" y="0" width="18" height="32">
            <path d="M23.13 10.78a1.95 1.95 0 0 1 2.78 0 1.96 1.96 0 0 1 0 2.8 1.95 1.95 0 0 1-2.78 0 1.96 1.96 0 0 1 0-2.8Zm1.39.21a1.18 1.18 0 0 0-1.18 1.19 1.18 1.18 0 1 0 1.18-1.19Zm.15-8.35a1.15 1.15 0 0 0-.34.8 2.54 2.54 0 0 1-.74 1.77 2.53 2.53 0 0 1-2.3.7 2.2 2.2 0 1 0 1.73 1.74 2.55 2.55 0 0 1 .7-2.3 2.46 2.46 0 0 1 1.78-.75 1.11 1.11 0 0 0 .79-.33 1.15 1.15 0 0 0-.8-1.96c-.3 0-.6.12-.82.34v-.01Zm-.56-.56a1.92 1.92 0 0 1 2.73 0 1.93 1.93 0 0 1-.61 3.15c-.23.1-.48.15-.73.15a1.72 1.72 0 0 0-1.22.52 1.66 1.66 0 0 0-.49 1.59 2.98 2.98 0 0 1-5.03 2.69 2.97 2.97 0 0 1 0-4.22 2.99 2.99 0 0 1 2.68-.82c.3.06.59.05.86-.04a1.85 1.85 0 0 0 1.12-1.02c.08-.2.13-.42.13-.66a1.9 1.9 0 0 1 .56-1.34Zm2.38 3.5a3.09 3.09 0 0 1 5.29 2.2 3.1 3.1 0 0 1-3.1 3.1 3.1 3.1 0 0 1-2.19-5.3Zm2.2-.12a2.32 2.32 0 1 0 0 4.64 2.32 2.32 0 0 0 0-4.64ZM18.93.7a2.4 2.4 0 0 1 3.4 0 2.4 2.4 0 1 1-3.4 0Zm1.7.09a1.62 1.62 0 0 0-1.14 2.77 1.62 1.62 0 1 0 2.29-2.3c-.3-.3-.7-.47-1.15-.47Zm3.04 19.87a1.18 1.18 0 0 0 1.67 0 1.18 1.18 0 1 0-1.67 0Zm.84 1.13a1.97 1.97 0 1 1 0-3.94 1.97 1.97 0 0 1 0 3.94Zm.96 8.7a1.92 1.92 0 0 1-1.93-1.91 1.73 1.73 0 0 0-.52-1.23 1.74 1.74 0 0 0-.73-.46c-.27-.08-.56-.1-.86-.03a2.97 2.97 0 0 1-3.55-2.93 2.99 2.99 0 0 1 2.98-2.98 2.98 2.98 0 0 1 2.92 3.55c-.06.3-.05.6.04.86.08.27.23.52.45.73.17.18.36.31.56.4.2.08.43.12.67.13a1.9 1.9 0 0 1 1.34.56 1.93 1.93 0 0 1-1.37 3.3Zm-.81-1.13a1.14 1.14 0 1 0 .82-1.95 2.53 2.53 0 0 1-1.77-.75 2.55 2.55 0 0 1-.7-2.3 2.2 2.2 0 0 0-.6-1.98 2.18 2.18 0 0 0-3.1 0 2.19 2.19 0 0 0 0 3.1 2.18 2.18 0 0 0 1.96.61 2.54 2.54 0 0 1 2.3.7 2.54 2.54 0 0 1 .75 1.78 1.12 1.12 0 0 0 .33.8Zm2.38-3.5a2.3 2.3 0 0 0 3.27 0 2.3 2.3 0 0 0 0-3.27 2.3 2.3 0 0 0-3.27 0 2.3 2.3 0 0 0 0 3.27Zm1.63 1.47a3.1 3.1 0 1 1 0-6.2 3.1 3.1 0 1 1 0 6.2Zm-9.18 3.4a1.62 1.62 0 1 0 2.29-2.3 1.62 1.62 0 1 0-2.3 2.3ZM20.64 32a2.4 2.4 0 0 1-2.4-2.41 2.4 2.4 0 1 1 2.4 2.4Zm-1.96-17.91a2.69 2.69 0 0 1 3.79-.02 2.76 2.76 0 0 0 1.98.8h.01a2.75 2.75 0 0 0 2.36-1.26 4.27 4.27 0 1 1 6.57 5.41 4.25 4.25 0 0 1-6.57-.63 2.82 2.82 0 0 0-1.01-.94c-.4-.21-.85-.32-1.35-.32a2.79 2.79 0 0 0-2 .8 2.7 2.7 0 0 1-3.78-.02 2.68 2.68 0 0 1 0-3.81v-.01Zm1.9 0a1.9 1.9 0 1 0 1.33 3.28 3.63 3.63 0 0 1 2.53-1.04h.02a3.59 3.59 0 0 1 3.01 1.6 3.52 3.52 0 0 0 2.9 1.55A3.47 3.47 0 0 0 33.83 16a3.48 3.48 0 0 0-6.37-1.95 3.59 3.59 0 0 1-3.01 1.6 3.55 3.55 0 0 1-2.54-1.03 1.9 1.9 0 0 0-1.33-.54Z" fill="#fff"/>
        </mask>
        <g mask="url(#mask1_322_2035)">
            <path d="M34.63 0H17.9v32h16.74V0Z" fill="url(#paint1_linear_322_2035)"/>
        </g>
    </g>
    <defs>
        <linearGradient id="paint0_linear_322_2035" x1="19.75" y1="32" x2="-11.85" y2="24.7" gradientUnits="userSpaceOnUse">
            <stop stop-color="#00D1BC"/>
            <stop offset="1" stop-color="#4300E0"/>
        </linearGradient>
        <linearGradient id="paint1_linear_322_2035" x1="37.14" y1="32" x2="5.34" y2="24.6" gradientUnits="userSpaceOnUse">
            <stop stop-color="#00D1BC"/>
            <stop offset="1" stop-color="#4300E0"/>
        </linearGradient>
        <clipPath id="clip0_322_2035">
            <path fill="#fff" d="M.63 0h34v32h-34z"/>
        </clipPath>
    </defs>
</svg>
