<svg xmlns="http://www.w3.org/2000/svg" xmlns:xlink="http://www.w3.org/1999/xlink" viewBox="0 0 132 32"><path d="M 38.747 25.467 C 41.859 25.467 44.325 24.091 45.177 20.659 L 45.708 20.659 L 45.177 25 L 47.874 25 L 47.898 4.024 L 45.177 4.024 L 45.177 8.667 L 45.708 13.474 L 45.177 13.474 C 44.325 10.045 41.859 8.667 38.747 8.667 C 34.852 8.667 31 11.792 31 17.042 C 31 22.292 34.849 25.467 38.747 25.467 Z M 39.368 23.226 C 35.656 23.226 33.605 20.613 33.605 17.042 C 33.605 13.472 35.726 10.905 39.368 10.905 C 43.011 10.905 45.177 13.496 45.177 17.042 C 45.177 20.588 42.781 23.226 39.368 23.226 Z M 50.496 25 L 53.102 25 L 53.126 16.624 C 53.126 12.587 55.2 11 59.211 11 L 59.211 8.667 C 55.868 8.667 53.884 9.974 53.102 12.376 L 52.571 12.376 L 53.102 8.667 L 50.496 8.667 Z M 68.905 25.233 C 73.491 25.233 77.249 22.341 77.249 16.809 C 77.249 11.277 73.491 8.433 68.905 8.433 C 64.318 8.433 60.582 11.326 60.582 16.809 C 60.582 22.292 64.316 25.233 68.905 25.233 Z M 68.905 22.971 C 65.216 22.971 63.187 20.496 63.187 16.811 C 63.187 13.127 65.216 10.699 68.905 10.699 C 72.593 10.699 74.644 13.173 74.644 16.811 C 74.644 20.45 72.593 22.971 68.905 22.971 Z M 82.165 32 L 82.165 25 L 81.704 20.217 L 82.256 20.192 C 83.108 23.622 85.277 25 88.526 25 C 92.745 25 96.433 21.242 96.433 16.624 C 96.433 12.006 92.745 8.2 88.526 8.2 C 85.274 8.2 83.108 9.6 82.256 13.03 L 81.704 13.03 L 82.165 8.667 L 79.559 8.667 L 79.559 32 Z M 82.256 16.624 C 82.256 13.124 84.676 10.604 88.295 10.604 C 91.662 10.628 93.737 13.263 93.737 16.624 C 93.737 19.986 91.662 22.574 88.295 22.574 C 84.676 22.574 82.256 20.311 82.256 16.624 Z M 98.738 25 L 101.344 25 L 101.344 4 L 98.738 4 Z M 119.944 17.417 C 119.968 11.258 116.463 8.433 111.946 8.433 C 107.429 8.433 103.647 12.026 103.647 16.809 C 103.647 21.592 107.311 25.233 111.946 25.233 C 116.58 25.233 119.392 22.504 119.923 19.142 L 117.248 19.142 C 116.741 21.592 115.012 22.992 111.946 22.992 C 108.627 22.992 106.504 20.751 106.274 17.417 Z M 106.413 15.154 C 106.989 12.47 108.994 10.674 111.946 10.674 C 114.251 10.674 116.35 11.724 117.063 15.154 Z M 131 11.63 L 131 9.6 L 127.081 9.6 L 127.081 4.024 L 124.476 4.024 L 124.476 9.6 L 121.318 9.6 L 121.318 11.63 L 124.476 11.63 L 124.476 20.287 C 124.476 23.928 125.237 25 128.832 25 L 130.008 25 L 130.008 22.737 L 128.832 22.737 C 127.309 22.737 127.079 22.154 127.079 20.287 L 127.079 11.63 L 130.998 11.63 Z" fill="rgb(255,255,255)"/><path d="M 10.344 9.512 C 10.311 8.989 10.344 8.455 10.455 7.919 C 10.683 6.802 11.206 5.817 11.93 5.026 C 9.438 4.861 6.819 5.482 5.019 6.794 C 3.964 7.562 3.458 8.318 3.286 9.158 C 2.896 11.066 4.149 12.922 6.082 13.306 C 8.018 13.69 9.901 12.455 10.29 10.55 C 10.351 10.258 10.371 9.969 10.356 9.682 C 10.351 9.627 10.346 9.57 10.344 9.515 Z" fill="rgb(255,255,255)"/><path d="M 17.178 13.223 C 17.674 13.036 18.203 12.909 18.755 12.852 C 19.906 12.732 21.015 12.929 21.996 13.373 C 21.409 10.979 20.025 8.702 18.216 7.403 C 17.155 6.639 16.275 6.39 15.409 6.48 C 13.446 6.684 12.024 8.418 12.231 10.35 C 12.438 12.286 14.197 13.687 16.158 13.483 C 16.46 13.45 16.745 13.385 17.019 13.286 C 17.072 13.263 17.125 13.243 17.178 13.223 Z" fill="rgb(255,255,255)"/><path d="M 15.86 20.76 C 16.209 21.154 16.515 21.598 16.761 22.089 C 17.272 23.112 17.469 24.206 17.386 25.266 C 19.463 23.897 21.151 21.827 21.764 19.707 C 22.123 18.463 22.057 17.563 21.672 16.792 C 20.799 15.049 18.659 14.331 16.89 15.191 C 15.121 16.051 14.392 18.161 15.265 19.907 C 15.399 20.174 15.561 20.416 15.748 20.633 C 15.786 20.675 15.824 20.715 15.862 20.757 Z" fill="rgb(255,255,255)"/><path d="M 8.154 21.872 C 7.899 22.331 7.577 22.765 7.193 23.159 C 6.39 23.982 5.414 24.536 4.374 24.82 C 6.388 26.279 8.936 27.137 11.168 26.982 C 12.479 26.892 13.314 26.523 13.919 25.905 C 15.285 24.501 15.24 22.274 13.818 20.927 C 12.393 19.58 10.133 19.625 8.767 21.027 C 8.556 21.241 8.382 21.476 8.238 21.723 C 8.212 21.772 8.185 21.822 8.157 21.87 Z" fill="rgb(255,255,255)"/><path d="M 4.66 14.827 C 4.141 14.71 3.632 14.523 3.141 14.266 C 2.119 13.729 1.312 12.954 0.75 12.046 C -0.123 14.353 -0.267 17.004 0.494 19.079 C 0.94 20.296 1.529 20.989 2.299 21.391 C 4.042 22.303 6.203 21.652 7.129 19.934 C 8.056 18.216 7.395 16.086 5.652 15.174 C 5.386 15.034 5.108 14.932 4.827 14.862 C 4.771 14.852 4.715 14.839 4.66 14.824 Z" fill="rgb(255,255,255)"/></svg>