<svg width="44" height="45" viewBox="0 0 44 45" fill="none" xmlns="http://www.w3.org/2000/svg" id="svg-1759961956_901">
    <path d="M30.7691 2.71977L25.3323 18.0868L37.8221 7.6126L26.9184 19.7293L42.4658 14.8321L27.7553 21.8538L43.9933 23.279L27.7154 24.1368L42.172 31.6676L26.8049 26.2307L37.2791 38.7206L25.1624 27.8168L30.0597 43.3643L23.038 28.6537L21.6127 44.8917L20.755 28.6138L13.2242 43.0704L18.661 27.7034L6.17117 38.1776L17.0749 26.0609L1.52746 30.9581L16.238 23.9364L0 22.5111L16.2779 21.6534L1.82133 14.1226L17.1884 19.5595L6.71417 7.06961L18.8309 17.9733L13.9336 2.4259L20.9553 17.1365L22.3806 0.898438L23.2383 17.1763L30.7691 2.71977Z" fill="url(#svg-1759961956_901_paint0_linear_8863_1921)"></path>
    <defs>
        <linearGradient id="svg-1759961956_901_paint0_linear_8863_1921" x1="23.2103" y1="-2.70101" x2="23.2102" y2="49.2911" gradientUnits="userSpaceOnUse">
            <stop stop-color="#FDA7FF"></stop>
            <stop offset="1" stop-color="#AD76FF"></stop>
        </linearGradient>
    </defs>
</svg>