<?xml version="1.0" encoding="UTF-8" standalone="no"?>
<svg
   width="448"
   height="448"
   viewBox="-224 -224 448 448"
   fill="none"
   version="1.1"
   id="svg59"
   sodipodi:docname="DropletEngine.svg"
   inkscape:version="1.3.2 (091e20e, 2023-11-25, custom)"
   xmlns:inkscape="http://www.inkscape.org/namespaces/inkscape"
   xmlns:sodipodi="http://sodipodi.sourceforge.net/DTD/sodipodi-0.dtd"
   xmlns="http://www.w3.org/2000/svg"
   xmlns:svg="http://www.w3.org/2000/svg">
  <sodipodi:namedview
     id="namedview59"
     pagecolor="#ffffff"
     bordercolor="#000000"
     borderopacity="0.25"
     inkscape:showpageshadow="2"
     inkscape:pageopacity="0.0"
     inkscape:pagecheckerboard="0"
     inkscape:deskcolor="#d1d1d1"
     inkscape:zoom="0.91071567"
     inkscape:cx="395.84254"
     inkscape:cy="-14.274488"
     inkscape:window-width="2560"
     inkscape:window-height="1368"
     inkscape:window-x="2551"
     inkscape:window-y="-9"
     inkscape:window-maximized="1"
     inkscape:current-layer="svg59" />
  <path
     d="m 0,-37.2725 c -20.519,0 -37.212,16.72 -37.212,37.272 0,20.553 16.694,37.273 37.212,37.273 20.519,0 37.212,-16.72 37.212,-37.273 0,-20.552 -16.693,-37.272 -37.212,-37.272 z m 25.733,29.804 c -1.66,-5.674 -5.438,-10.703 -10.747,-13.392 -3.136,-1.589 -0.372,-6.3 2.753,-4.717 6.528,3.307 11.219,9.702 13.253,16.656 0.99,3.387 -4.275,4.82 -5.259,1.453 z m 4.538,12.385 c -3.515,0 -3.509,-5.463 0,-5.463 3.516,0 3.51,5.463 0,5.463 z"
     fill="url(#paint0_linear_3001_16)"
     id="core"
     inkscape:label="core"
     style="display:inline;fill:url(#paint0_linear_3001_16)" />
  <path
     d="m 2e-6,-84.571502 c -46.556003,0 -84.433004,37.938004 -84.433004,84.572004 0,46.633 37.877001,84.571 84.433004,84.571 46.555999,0 84.432999,-37.938 84.432999,-84.571 0,-46.634 -37.877,-84.572004 -84.432999,-84.572004 z m 0,140.306004 c -30.682001,0 -55.643002,-25.002 -55.643002,-55.734 0,-30.733 24.961003,-55.735 55.643002,-55.735 30.681001,0 55.643,25.002 55.643,55.735 0,30.732 -24.960999,55.734 -55.643,55.734 z"
     fill="url(#paint1_linear_3001_16)"
     id="innerring"
     style="display:inline;fill:url(#paint1_linear_3001_16)"
     inkscape:label="innerring" />
  <g
     id="ring3"
     inkscape:label="ring3"
     style="display:inline"
     transform="translate(-223.65155,-223.99988)">
    <path
       d="m 6.31518,214.411 h 0.00584 c 3.27469,0 6.01618,-2.524 6.24888,-5.796 3.6152,-50.828 25.1068,-98.118 61.437,-134.5074 36.3991,-36.4602 83.7241,-57.9994 134.5791,-61.5585 3.27,-0.229 5.794,-2.97638 5.794,-6.25961 V 6.28274 c 0,-3.64903 -3.095,-6.520127 -6.729,-6.2650092 C 153.797,3.79635 103.683,26.6116 65.1365,65.2226 26.6627,103.759 3.89936,153.837 0.0613699,207.663 -0.199168,211.306 2.66854,214.411 6.31518,214.411 Z"
       fill="url(#paint2_linear_3001_16)"
       id="path3"
       style="fill:url(#paint2_linear_3001_16)" />
    <path
       d="m 238.731,12.5498 c 45.786,3.2072 88.708,20.9916 123.374,51.1158 2.478,2.1529 6.2,2.0058 8.519,-0.3177 l 0.005,-0.005 c 2.575,-2.5786 2.42,-6.8031 -0.33,-9.1932 C 333.585,22.2505 288.13,3.41592 239.642,0.0156974 236.012,-0.23897 232.924,2.63752 232.924,6.28251 v 0.00765 c 0,3.28863 2.532,6.03014 5.807,6.25964 z"
       fill="url(#paint3_linear_3001_16)"
       id="path4"
       style="fill:url(#paint3_linear_3001_16)" />
    <path
       d="m 434.733,208.603 c 0.234,3.276 2.97,5.807 6.249,5.807 h 0.007 c 3.642,0 6.515,-3.099 6.255,-6.737 -3.463,-48.598 -22.356,-94.141 -54.309,-130.8947 -2.388,-2.7469 -6.599,-2.8981 -9.17,-0.3226 l -0.006,0.0059 c -2.323,2.3266 -2.467,6.0621 -0.309,8.543 30.175,34.7034 48.016,77.7084 51.283,123.5984 z"
       fill="url(#paint4_linear_3001_16)"
       id="path5"
       style="fill:url(#paint4_linear_3001_16)" />
    <path
       d="m 12.5294,238.811 c -0.2246,-3.284 -2.96342,-5.825 -6.24934,-5.825 H 6.272 c -3.6354,0 -6.505815,3.088 -6.2569565,6.721 C 3.35128,288.392 22.1675,334.038 54.082,370.889 c 2.3862,2.755 6.6038,2.91 9.1781,0.332 l 0.005,-0.005 c 2.3192,-2.323 2.4666,-6.053 0.3171,-8.534 C 33.4425,327.886 15.6756,284.783 12.5294,238.811 Z"
       fill="url(#paint5_linear_3001_16)"
       id="path6"
       style="fill:url(#paint5_linear_3001_16)" />
    <path
       d="m 441.032,232.986 h -0.007 c -3.281,0 -6.026,2.534 -6.25,5.812 -3.491,51.05 -25.008,98.565 -61.477,135.095 -36.4,36.461 -83.724,58 -134.58,61.559 -3.27,0.228 -5.794,2.976 -5.794,6.26 v 0.006 c 0,3.65 3.095,6.521 6.729,6.266 53.854,-3.779 103.968,-26.594 142.515,-65.205 38.622,-38.686 61.413,-89 65.12,-143.06 0.249,-3.638 -2.615,-6.733 -6.256,-6.733 z"
       fill="url(#paint6_linear_3001_16)"
       id="path7"
       style="fill:url(#paint6_linear_3001_16)" />
    <path
       d="m 208.573,435.451 c -45.925,-3.217 -88.968,-21.1 -123.6876,-51.389 -2.4769,-2.161 -6.2062,-2.017 -8.5286,0.309 l -0.0058,0.006 c -2.5713,2.576 -2.4199,6.793 0.3221,9.186 36.7699,32.074 82.3529,51.011 130.9879,54.421 3.63,0.255 6.718,-2.622 6.718,-6.267 v -0.007 c 0.001,-3.288 -2.531,-6.03 -5.806,-6.259 z"
       fill="url(#paint7_linear_3001_16)"
       id="path8"
       style="fill:url(#paint7_linear_3001_16)" />
  </g>
  <g
     id="ring2"
     inkscape:label="ring2"
     style="display:inline"
     transform="translate(-223.65049,-223.99787)">
    <path
       d="m 328.36,384.87 c 1.846,3.161 5.994,4.08 8.993,1.987 38.64,-26.972 66.169,-66.397 78.226,-112.533 12.084,-46.238 7.322,-94.226 -13.282,-136.771 -1.594,-3.291 -5.656,-4.521 -8.808,-2.674 l -0.002,0.001 c -2.821,1.654 -3.903,5.201 -2.477,8.146 19.297,39.854 23.752,84.805 12.433,128.116 -11.294,43.215 -37.075,80.149 -73.267,105.416 -2.677,1.87 -3.465,5.489 -1.817,8.311 z"
       fill="url(#paint10_linear_3001_16)"
       id="path11"
       style="fill:url(#paint10_linear_3001_16)" />
    <path
       d="m 117.126,71.4405 c 2.678,-1.8695 3.466,-5.4893 1.818,-8.3113 l -0.001,-0.0014 c -1.846,-3.1604 -5.994,-4.08 -8.994,-1.9865 C 71.3098,88.1132 43.7809,127.538 31.7238,173.674 19.6923,219.709 24.3551,267.479 44.73,309.886 c 1.5866,3.302 5.6569,4.541 8.8152,2.69 l 0.0072,-0.005 c 2.8142,-1.649 3.8991,-5.185 2.4854,-8.128 C 36.9557,264.721 32.5903,219.975 43.8599,176.855 55.1538,133.641 80.9349,96.7071 117.126,71.4405 Z"
       fill="url(#paint8_linear_3001_16)"
       id="path9"
       style="fill:url(#paint8_linear_3001_16)" />
    <path
       d="m 134.951,53.7481 c 1.645,2.8162 5.175,3.914 8.108,2.4945 35.177,-17.0259 74.319,-22.4369 112.781,-15.5978 3.205,0.5697 6.304,-1.4416 7.128,-4.5957 l 0.002,-0.0045 c 0.928,-3.5523 -1.373,-7.1379 -4.983,-7.7791 -41.042,-7.2917 -82.804,-1.5145 -120.341,16.6475 -3.299,1.5959 -4.545,5.6675 -2.695,8.8351 z"
       fill="url(#paint9_linear_3001_16)"
       id="path10"
       style="fill:url(#paint9_linear_3001_16)" />
    <path
       d="m 157.834,411.476 c 3.46,1.213 7.221,-0.783 8.149,-4.336 l 0.001,-0.005 c 0.824,-3.153 -0.893,-6.428 -3.965,-7.504 -36.966,-12.947 -68.5028,-36.962 -90.8497,-69.191 -1.8602,-2.683 -5.479,-3.462 -8.2937,-1.812 h -9e-4 c -3.1588,1.852 -4.0657,6.006 -1.9778,9.017 23.8486,34.385 57.4961,60.011 96.9371,73.831 z"
       fill="url(#paint11_linear_3001_16)"
       id="path12"
       style="fill:url(#paint11_linear_3001_16)" />
    <path
       d="m 375.801,117.075 c 1.864,2.671 5.474,3.442 8.282,1.797 l 0.006,-0.004 c 3.165,-1.854 4.068,-6.022 1.967,-9.032 -23.912,-34.2463 -57.578,-59.7405 -97.003,-73.4575 -3.458,-1.2031 -7.209,0.7933 -8.136,4.3406 v 9e-4 c -0.826,3.1586 0.899,6.4378 3.979,7.5087 36.95,12.8508 68.5,36.7477 90.905,68.8463 z"
       fill="url(#paint12_linear_3001_16)"
       id="path13"
       style="fill:url(#paint12_linear_3001_16)" />
    <path
       d="m 312.353,394.251 c -1.645,-2.816 -5.175,-3.914 -8.107,-2.495 -35.302,17.086 -74.596,22.475 -113.189,15.525 -3.209,-0.578 -6.316,1.434 -7.141,4.593 l -0.001,10e-4 c -0.927,3.547 1.367,7.128 4.97,7.777 41.18,7.41 83.104,1.659 120.773,-16.566 3.298,-1.596 4.545,-5.668 2.695,-8.835 z"
       fill="url(#paint13_linear_3001_16)"
       id="path14"
       style="fill:url(#paint13_linear_3001_16)" />
  </g>
  <path
     d="m 121.0803,-121.2792 c -32.342,-32.3949 -75.343,-50.2356 -121.080002,-50.2356 -45.738001,0 -88.739001,17.8407 -121.078998,50.2356 -32.3422,32.39399 -50.1536,75.464994 -50.1536,121.278994 0,45.814 17.8114,88.885 50.1536,121.280006 32.340997,32.395 75.340997,50.235 121.078998,50.235 45.737002,0 88.738002,-17.841 121.080002,-50.235 32.341,-32.396006 50.152,-75.467006 50.152,-121.280006 0,-45.813 -17.811,-88.884004 -50.152,-121.278994 z m 7.59,39.61799 c 9.272,14.606004 16.132,30.890004 20.021,48.286004 l -22.348,-5.596 c -2.435,-7.934 -5.611,-15.606 -9.498,-22.949 z m -47.143,-47.22109 -19.708,11.8451 c -7.33,-3.894 -14.992,-7.0752 -22.912003,-9.5139 l -5.587,-22.3856 c 17.368003,3.8961 33.625003,10.7672 48.207003,20.0544 z m -114.847003,-20.0544 -5.587,22.386 c -7.921,2.4383 -15.582,5.6205 -22.913,9.5135 l -19.708,-11.8451 c 14.583,-9.2877 30.84,-16.1583 48.208,-20.0544 z m -95.350097,67.27549 11.8251,19.741004 c -3.888,7.343 -7.063,15.015 -9.4978,22.949 l -22.3488,5.597 c 3.8897,-17.397 10.7486,-33.681 20.0215,-48.287004 z m 0,163.323004 c -9.2725,-14.607 -16.1318,-30.891 -20.0215,-48.287 l 22.3488,5.596 c 2.4348,7.933 5.6098,15.606 9.4978,22.95 z m 47.142097,47.220006 19.709,-11.845 c 7.331,3.894 14.992,7.075 22.912,9.514 l 5.588,22.386 c -17.369,-3.896 -33.626,-10.767 -48.209,-20.055 z m 114.848,20.055 5.587,-22.386 c 7.919003,-2.439 15.581003,-5.62 22.912003,-9.513 l 19.708,11.844 c -14.582,9.288 -30.839,16.159 -48.207003,20.055 z M 100.6493,23.741794 c -2.547,10.878 -6.828,21.222 -12.725,30.747 l -4.628,7.475 15.541,25.943 -11.075,11.093 -25.901,-15.566 -7.463,4.636 c -9.508,5.907 -19.836003,10.195 -30.695003,12.744996 l -8.55,2.00801 -7.323,29.341 H -7.831702 l -7.323001,-29.341 -8.548,-2.00801 c -10.861,-2.549996 -21.188,-6.837996 -30.697,-12.744996 l -7.463,-4.636 -25.9,15.566 -11.075,-11.092 15.54,-25.944 -4.628,-7.475 c -5.896,-9.524 -10.178,-19.869 -12.723997,-30.746 l -2.005,-8.564 -29.2921,-7.335 v -15.687 l 29.2921,-7.335 2.005,-8.564 c 2.545997,-10.877 6.827997,-21.222 12.723997,-30.746 l 4.628,-7.474 -15.54,-25.944004 11.075,-11.09299 25.9,15.56599 7.463,-4.636 c 9.509,-5.906 19.836,-10.19399 30.696,-12.74499 l 8.549,-2.007 7.323001,-29.3407 H 7.830297 l 7.323,29.3407 8.55,2.007 c 10.859,2.551 21.187003,6.83899 30.695003,12.74499 l 7.463,4.636 25.901,-15.56599 11.074,11.09299 -15.54,25.944004 4.628,7.474 c 5.898,9.525 10.178,19.869 12.724,30.746 l 2.005,8.564 29.292,7.335 v 15.687 l -29.292,7.335 z m 16.196,38.179 c 3.887,-7.343 7.063,-15.016 9.498,-22.95 l 22.348,-5.595 c -3.89,17.396 -10.749,33.68 -20.021,48.287 z"
     fill="url(#paint14_linear_3001_16)"
     id="ring1"
     style="display:inline;fill:url(#paint14_linear_3001_16)"
     inkscape:label="ring1" />
  <defs
     id="defs59">
    <linearGradient
       id="paint0_linear_3001_16"
       x1="193.78"
       y1="186.72701"
       x2="256.62"
       y2="266.02899"
       gradientUnits="userSpaceOnUse"
       gradientTransform="translate(-224.652,-223.99949)">
      <stop
         stop-color="#F6ECFF"
         id="stop15" />
      <stop
         offset="0.598958"
         stop-color="#916AFF"
         id="stop16" />
      <stop
         offset="0.953125"
         stop-color="#BC66FF"
         id="stop17" />
    </linearGradient>
    <linearGradient
       id="paint1_linear_3001_16"
       x1="229.31"
       y1="125.589"
       x2="229.31"
       y2="325.48599"
       gradientUnits="userSpaceOnUse"
       gradientTransform="translate(-224.652,-223.99949)">
      <stop
         stop-color="#B55DFF"
         id="stop18" />
      <stop
         offset="0.0001"
         stop-color="#B773EC"
         id="stop19" />
      <stop
         offset="1"
         stop-color="#6100FF"
         id="stop20" />
    </linearGradient>
    <linearGradient
       id="paint2_linear_3001_16"
       x1="18.303101"
       y1="0.0019600701"
       x2="198.99001"
       y2="228.321"
       gradientUnits="userSpaceOnUse">
      <stop
         stop-color="#F6ECFF"
         id="stop21" />
      <stop
         offset="0.598958"
         stop-color="#916AFF"
         id="stop22" />
      <stop
         offset="0.953125"
         stop-color="#BC66FF"
         id="stop23" />
    </linearGradient>
    <linearGradient
       id="paint3_linear_3001_16"
       x1="244.811"
       y1="2.11115e-06"
       x2="281.521"
       y2="99.328003"
       gradientUnits="userSpaceOnUse">
      <stop
         stop-color="#F6ECFF"
         id="stop24" />
      <stop
         offset="0.598958"
         stop-color="#916AFF"
         id="stop25" />
      <stop
         offset="0.953125"
         stop-color="#BC66FF"
         id="stop26" />
    </linearGradient>
    <linearGradient
       id="paint4_linear_3001_16"
       x1="387.48599"
       y1="74.617203"
       x2="493.51001"
       y2="137.25999"
       gradientUnits="userSpaceOnUse">
      <stop
         stop-color="#F6ECFF"
         id="stop27" />
      <stop
         offset="0.598958"
         stop-color="#916AFF"
         id="stop28" />
      <stop
         offset="0.953125"
         stop-color="#BC66FF"
         id="stop29" />
    </linearGradient>
    <linearGradient
       id="paint5_linear_3001_16"
       x1="5.5458899"
       y1="232.98599"
       x2="111.493"
       y2="295.23199"
       gradientUnits="userSpaceOnUse">
      <stop
         stop-color="#F6ECFF"
         id="stop30" />
      <stop
         offset="0.598958"
         stop-color="#916AFF"
         id="stop31" />
      <stop
         offset="0.953125"
         stop-color="#BC66FF"
         id="stop32" />
    </linearGradient>
    <linearGradient
       id="paint6_linear_3001_16"
       x1="251.186"
       y1="232.98599"
       x2="432.48999"
       y2="461.48901"
       gradientUnits="userSpaceOnUse">
      <stop
         stop-color="#F6ECFF"
         id="stop33" />
      <stop
         offset="0.598958"
         stop-color="#916AFF"
         id="stop34" />
      <stop
         offset="0.953125"
         stop-color="#BC66FF"
         id="stop35" />
    </linearGradient>
    <linearGradient
       id="paint7_linear_3001_16"
       x1="86.429901"
       y1="382.52899"
       x2="123.354"
       y2="482.237"
       gradientUnits="userSpaceOnUse">
      <stop
         stop-color="#F6ECFF"
         id="stop36" />
      <stop
         offset="0.598958"
         stop-color="#916AFF"
         id="stop37" />
      <stop
         offset="0.953125"
         stop-color="#BC66FF"
         id="stop38" />
    </linearGradient>
    <linearGradient
       id="paint8_linear_3001_16"
       x1="33.234798"
       y1="60.015598"
       x2="202.642"
       y2="139.976"
       gradientUnits="userSpaceOnUse">
      <stop
         stop-color="#F6ECFF"
         id="stop39" />
      <stop
         offset="0.598958"
         stop-color="#916AFF"
         id="stop40" />
      <stop
         offset="0.953125"
         stop-color="#BC66FF"
         id="stop41" />
    </linearGradient>
    <linearGradient
       id="paint9_linear_3001_16"
       x1="145.088"
       y1="25.1992"
       x2="155.342"
       y2="78.042999"
       gradientUnits="userSpaceOnUse">
      <stop
         stop-color="#F6ECFF"
         id="stop42" />
      <stop
         offset="0.598958"
         stop-color="#916AFF"
         id="stop43" />
      <stop
         offset="0.953125"
         stop-color="#BC66FF"
         id="stop44" />
    </linearGradient>
    <linearGradient
       id="paint10_linear_3001_16"
       x1="335.561"
       y1="134.01801"
       x2="505.09799"
       y2="213.867"
       gradientUnits="userSpaceOnUse">
      <stop
         stop-color="#F6ECFF"
         id="stop45" />
      <stop
         offset="0.598958"
         stop-color="#916AFF"
         id="stop46" />
      <stop
         offset="0.953125"
         stop-color="#BC66FF"
         id="stop47" />
    </linearGradient>
    <linearGradient
       id="paint11_linear_3001_16"
       x1="68.8368"
       y1="327.76599"
       x2="134.26601"
       y2="432.46201"
       gradientUnits="userSpaceOnUse">
      <stop
         stop-color="#F6ECFF"
         id="stop48" />
      <stop
         offset="0.598958"
         stop-color="#916AFF"
         id="stop49" />
      <stop
         offset="0.953125"
         stop-color="#BC66FF"
         id="stop50" />
    </linearGradient>
    <linearGradient
       id="paint12_linear_3001_16"
       x1="289.78201"
       y1="36.027302"
       x2="354.79099"
       y2="140.56"
       gradientUnits="userSpaceOnUse">
      <stop
         stop-color="#F6ECFF"
         id="stop51" />
      <stop
         offset="0.598958"
         stop-color="#916AFF"
         id="stop52" />
      <stop
         offset="0.953125"
         stop-color="#BC66FF"
         id="stop53" />
    </linearGradient>
    <linearGradient
       id="paint13_linear_3001_16"
       x1="194.741"
       y1="391.13699"
       x2="204.96201"
       y2="443.98801"
       gradientUnits="userSpaceOnUse">
      <stop
         stop-color="#F6ECFF"
         id="stop54" />
      <stop
         offset="0.598958"
         stop-color="#916AFF"
         id="stop55" />
      <stop
         offset="0.953125"
         stop-color="#BC66FF"
         id="stop56" />
    </linearGradient>
    <linearGradient
       id="paint14_linear_3001_16"
       x1="234.099"
       y1="24.4184"
       x2="234.099"
       y2="429.81699"
       gradientUnits="userSpaceOnUse"
       gradientTransform="translate(-224.6517,-223.9992)">
      <stop
         stop-color="#B55DFF"
         id="stop57" />
      <stop
         offset="0.0001"
         stop-color="#B773EC"
         id="stop58" />
      <stop
         offset="1"
         stop-color="#6100FF"
         id="stop59" />
    </linearGradient>
  </defs>
</svg>
