<?xml version="1.0" encoding="UTF-8" standalone="no"?>
<svg
   width="142.6516"
   height="31.996099"
   viewBox="0 0 142.6516 31.996099"
   fill="none"
   version="1.1"
   id="svg3"
   sodipodi:docname="logo-text-color-dark.svg"
   inkscape:version="1.3.2 (091e20e, 2023-11-25, custom)"
   xmlns:inkscape="http://www.inkscape.org/namespaces/inkscape"
   xmlns:sodipodi="http://sodipodi.sourceforge.net/DTD/sodipodi-0.dtd"
   xmlns="http://www.w3.org/2000/svg"
   xmlns:svg="http://www.w3.org/2000/svg">
  <sodipodi:namedview
     id="namedview3"
     pagecolor="#ffffff"
     bordercolor="#000000"
     borderopacity="0.25"
     inkscape:showpageshadow="2"
     inkscape:pageopacity="0.0"
     inkscape:pagecheckerboard="0"
     inkscape:deskcolor="#d1d1d1"
     inkscape:zoom="10.226027"
     inkscape:cx="72.413265"
     inkscape:cy="16.037509"
     inkscape:window-width="2560"
     inkscape:window-height="1368"
     inkscape:window-x="2551"
     inkscape:window-y="-9"
     inkscape:window-maximized="1"
     inkscape:current-layer="svg3" />
  <path
     d="m 45.622794,23.2612 c -0.533,0 -0.9635,-0.1571 -1.2915,-0.4715 -0.3143,-0.3143 -0.4715,-0.7311 -0.4715,-1.2505 V 8.91123 h 6.5395 c 1.066,0 2.0022,0.205 2.8085,0.615 0.82,0.39633 1.4487,0.96347 1.886,1.70147 0.451,0.738 0.6765,1.5922 0.6765,2.5625 v 4.182 c 0,1.7357 -0.451,3.0545 -1.353,3.9565 -0.8883,0.8884 -2.2003,1.3325 -3.936,1.3325 z m 4.797,-2.1115 c 0.9704,0 1.7015,-0.2733 2.1935,-0.82 0.5057,-0.5603 0.7585,-1.3735 0.7585,-2.4395 v -4.018 c 0,-0.8473 -0.2801,-1.5306 -0.8405,-2.05 -0.5603,-0.533 -1.2915,-0.7995 -2.1935,-0.7995 h -4.0795 v 10.127 z m 8.9044,-9.266 c -0.4647,0 -0.8405,-0.1366 -1.1275,-0.41 -0.2733,-0.287 -0.41,-0.6491 -0.41,-1.0865 0,-0.4373 0.1367,-0.79264 0.41,-1.06597 0.287,-0.287 0.6628,-0.4305 1.1275,-0.4305 0.4647,0 0.8405,0.1435 1.1275,0.4305 0.287,0.27333 0.4305,0.62867 0.4305,1.06597 0,0.4374 -0.1435,0.7995 -0.4305,1.0865 -0.287,0.2734 -0.6628,0.41 -1.1275,0.41 z m -1.1685,1.148 h 2.3575 v 10.2295 h -2.3575 z m 8.5341,10.3935 c -1.1754,0 -2.1184,-0.3143 -2.829,-0.943 -0.7107,-0.6286 -1.066,-1.4623 -1.066,-2.501 h 2.3165 c 0,0.4374 0.1435,0.7927 0.4305,1.066 0.287,0.2597 0.6696,0.3895 1.148,0.3895 h 1.8245 c 0.4646,0 0.8268,-0.0751 1.0865,-0.2255 0.2733,-0.164 0.41,-0.3826 0.41,-0.656 v -0.451 c 0,-0.1913 -0.082,-0.3553 -0.246,-0.492 -0.1504,-0.1366 -0.3622,-0.2323 -0.6355,-0.287 l -3.5465,-0.615 c -0.7927,-0.1366 -1.4214,-0.4236 -1.886,-0.861 -0.4647,-0.451 -0.697,-0.9703 -0.697,-1.558 v -0.6765 c 0,-0.8473 0.3348,-1.517 1.0045,-2.009 0.6833,-0.492 1.6195,-0.738 2.8085,-0.738 h 1.64 c 1.0796,0 1.9543,0.2939 2.624,0.8815 0.6696,0.5877 1.0045,1.3599 1.0045,2.3165 h -2.3165 c 0,-0.369 -0.123,-0.6628 -0.369,-0.8815 -0.2324,-0.2186 -0.5467,-0.328 -0.943,-0.328 h -1.6195 c -0.4784,0 -0.8474,0.0752 -1.107,0.2255 -0.2597,0.1504 -0.3895,0.3622 -0.3895,0.6355 v 0.41 c 0,0.1914 0.0751,0.3554 0.2255,0.492 0.164,0.1367 0.3758,0.2255 0.6355,0.2665 l 3.6695,0.656 c 0.7516,0.1504 1.353,0.4374 1.804,0.861 0.451,0.4237 0.6765,0.9225 0.6765,1.4965 v 0.7585 c 0,0.8474 -0.3485,1.5239 -1.0455,2.0295 -0.697,0.492 -1.6264,0.738 -2.788,0.738 z m 11.6686,-0.164 c -1.1616,0 -2.009,-0.2596 -2.542,-0.779 -0.533,-0.5193 -0.7995,-1.3393 -0.7995,-2.46 v -4.961 h -1.804 v -2.0295 h 1.8655 V 9.93623 h 2.296 v 3.09547 h 2.665 v 2.0295 h -2.665 v 4.879 c 0,0.451 0.0889,0.779 0.2665,0.984 0.1777,0.205 0.4579,0.3075 0.8405,0.3075 h 1.558 v 2.0295 z m 3.6976,-10.2295 h 2.1935 v 1.394 c 0.2733,-0.4236 0.6628,-0.7653 1.1685,-1.025 0.5193,-0.2733 1.0523,-0.41 1.599,-0.41 h 1.23 v 2.05 h -1.23 c -0.779,0 -1.4077,0.2392 -1.886,0.7175 -0.4784,0.4784 -0.7175,1.1002 -0.7175,1.8655 v 5.6375 h -2.3575 z m 9,-1.148 c -0.4647,0 -0.8405,-0.1366 -1.1275,-0.41 -0.2734,-0.287 -0.41,-0.6491 -0.41,-1.0865 0,-0.4373 0.1366,-0.79264 0.41,-1.06597 0.287,-0.287 0.6628,-0.4305 1.1275,-0.4305 0.4646,0 0.8405,0.1435 1.1275,0.4305 0.287,0.27333 0.4305,0.62867 0.4305,1.06597 0,0.4374 -0.1435,0.7995 -0.4305,1.0865 -0.287,0.2734 -0.6629,0.41 -1.1275,0.41 z m -1.1685,1.148 h 2.3575 v 10.2295 h -2.3575 z m 6.9965,10.2295 c -0.5193,0 -0.943,-0.1571 -1.271,-0.4715 -0.328,-0.328 -0.492,-0.7448 -0.492,-1.2505 V 8.91123 h 6.785596 c 1.271,0 2.289,0.3075 3.054,0.9225 0.779,0.60137 1.169,1.40087 1.169,2.39847 v 1.0455 c 0,0.4784 -0.116,0.9294 -0.349,1.353 -0.232,0.4237 -0.553,0.7654 -0.963,1.025 v 0.0205 c 0.67,0.2187 1.203,0.5877 1.599,1.107 0.41,0.5194 0.615,1.107 0.615,1.763 v 1.025 c 0,1.1344 -0.39,2.0364 -1.169,2.706 -0.779,0.656 -1.831,0.984 -3.157,0.984 z m 5.145596,-8.2205 c 0.506,0 0.916,-0.164 1.23,-0.492 0.314,-0.328 0.471,-0.7516 0.471,-1.271 v -0.8405 c 0,-0.4373 -0.177,-0.7858 -0.533,-1.0455 -0.341,-0.2596 -0.799,-0.3895 -1.373,-0.3895 h -4.305096 v 4.0385 z m 0.471,6.1295 c 0.67,0 1.189,-0.1503 1.558,-0.451 0.383,-0.3006 0.574,-0.7175 0.574,-1.2505 v -0.9225 c 0,-0.4646 -0.164,-0.8336 -0.492,-1.107 -0.328,-0.287 -0.765,-0.4305 -1.312,-0.4305 h -5.309096 v 4.1615 z m 6.287,-8.1385 h 2.194 v 1.394 c 0.273,-0.4236 0.662,-0.7653 1.168,-1.025 0.519,-0.2733 1.052,-0.41 1.599,-0.41 h 1.23 v 2.05 h -1.23 c -0.779,0 -1.408,0.2392 -1.886,0.7175 -0.478,0.4784 -0.717,1.1002 -0.717,1.8655 v 5.6375 h -2.358 z m 10.279,10.3935 c -1.039,0 -1.879,-0.2596 -2.522,-0.779 -0.628,-0.533 -0.943,-1.2368 -0.943,-2.1115 v -0.738 c 0,-0.861 0.328,-1.5511 0.984,-2.0705 0.67,-0.5193 1.545,-0.779 2.624,-0.779 h 1.271 c 0.383,0 0.793,0.0547 1.23,0.164 0.438,0.1094 0.827,0.2529 1.169,0.4305 v -1.271 c 0,-0.4236 -0.137,-0.7653 -0.41,-1.025 -0.274,-0.2596 -0.629,-0.3895 -1.066,-0.3895 h -1.722 c -0.451,0 -0.813,0.1094 -1.087,0.328 -0.273,0.205 -0.41,0.4784 -0.41,0.82 h -2.296 c 0,-0.943 0.349,-1.7015 1.046,-2.2755 0.697,-0.574 1.612,-0.861 2.747,-0.861 h 1.722 c 1.148,0 2.07,0.3144 2.767,0.943 0.697,0.615 1.046,1.435 1.046,2.46 v 6.9905 h -2.194 v -1.2915 c -0.328,0.4374 -0.738,0.7927 -1.23,1.066 -0.492,0.2597 -0.977,0.3895 -1.455,0.3895 z m 1.414,-1.845 c 0.547,0 1.039,-0.1503 1.476,-0.451 0.438,-0.3143 0.745,-0.7243 0.923,-1.23 v -0.492 c -0.233,-0.1913 -0.561,-0.3416 -0.984,-0.451 -0.424,-0.123 -0.868,-0.1845 -1.333,-0.1845 h -1.291 c -0.41,0 -0.745,0.1025 -1.005,0.3075 -0.246,0.205 -0.369,0.4715 -0.369,0.7995 v 0.574 c 0,0.3417 0.13,0.615 0.39,0.82 0.259,0.205 0.601,0.3075 1.025,0.3075 z m 8.573,-9.6965 c -0.464,0 -0.84,-0.1366 -1.127,-0.41 -0.274,-0.287 -0.41,-0.6491 -0.41,-1.0865 0,-0.4373 0.136,-0.79264 0.41,-1.06597 0.287,-0.287 0.663,-0.4305 1.127,-0.4305 0.465,0 0.841,0.1435 1.128,0.4305 0.287,0.27333 0.43,0.62867 0.43,1.06597 0,0.4374 -0.143,0.7995 -0.43,1.0865 -0.287,0.2734 -0.663,0.41 -1.128,0.41 z m -1.168,1.148 h 2.357 v 10.2295 h -2.357 z m 5.151,0 h 2.194 v 1.3325 c 0.3,-0.451 0.697,-0.8131 1.189,-1.0865 0.492,-0.2733 0.984,-0.41 1.476,-0.41 h 1.271 c 1.052,0 1.893,0.3349 2.521,1.0045 0.643,0.6697 0.964,1.5512 0.964,2.6445 v 6.7445 h -2.358 v -6.683 c 0,-0.492 -0.13,-0.8883 -0.389,-1.189 -0.246,-0.3143 -0.574,-0.4715 -0.984,-0.4715 h -1.271 c -0.533,0 -1.012,0.205 -1.435,0.615 -0.424,0.3964 -0.697,0.9089 -0.82,1.5375 v 6.191 h -2.358 z"
     fill="#ffffff"
     id="path1"
     style="fill:#ffffff;fill-opacity:1" />
  <g
     clip-path="url(#clip0_322_2035)"
     id="g2"
     transform="translate(-0.566406)">
    <path
       fill-rule="evenodd"
       clip-rule="evenodd"
       d="m 12.1471,12.0798 c 0,-0.8915 -0.7226,-1.6156 -1.6122,-1.6156 -0.88965,0 -1.61223,0.7241 -1.61223,1.6156 0,0.8915 0.72258,1.6156 1.61223,1.6156 0.8896,0 1.6122,-0.7241 1.6122,-1.6156 z M 8.43706,2.02044 c 0.61769,-0.61509 1.61224,-0.61509 2.22604,0 l -0.0039,0.00389 c 0.303,0.30365 0.4584,0.69684 0.4623,1.09392 0.0077,0.6034 0.2253,1.11727 0.6487,1.5455 h 0.0039 c 0.54,0.53722 1.2471,0.75523 1.9929,0.6073 0.8353,-0.16351 1.7327,0.07786 2.3814,0.72798 1.0334,1.03552 1.0334,2.71727 0,3.75279 -1.0333,1.03548 -2.7116,1.03548 -3.7449,0 C 11.7547,9.1056 11.5138,8.20243 11.677,7.36545 11.8246,6.61801 11.6071,5.9056 11.071,5.36448 H 11.0671 C 10.6436,4.94015 10.127,4.72214 9.5287,4.71436 9.13245,4.70657 8.74008,4.55474 8.43706,4.25109 c -0.6138,-0.61897 -0.6138,-1.61557 0,-2.23065 z m 0.60215,5.55134 c 0,-1.53772 -1.24314,-2.77957 -2.77376,-2.77957 -1.53451,0 -2.77377,1.24185 -2.77377,2.77957 0,1.53771 1.23926,2.77952 2.77377,2.77952 1.5345,0 2.77376,-1.24181 2.77376,-2.77952 z M 16.5719,2.06715 C 16.5719,0.926521 15.6473,0 14.509,0 c -1.1382,0 -2.0628,0.926521 -2.0628,2.06715 0,1.14064 0.9246,2.06716 2.0628,2.06716 1.1383,0 2.0629,-0.92652 2.0629,-2.06716 z M 12.151,19.9202 c 0,0.8915 -0.7226,1.6156 -1.6122,1.6156 -0.88967,0 -1.61225,-0.7241 -1.61225,-1.6156 0,-0.8915 0.72258,-1.6156 1.61225,-1.6156 0.8896,0 1.6122,0.7241 1.6122,1.6156 z M 8.44095,29.9796 c 0.61769,0.615 1.61225,0.615 2.22605,0 l -0.0039,-0.0039 c 0.303,-0.3037 0.4584,-0.6969 0.4623,-1.0939 0.0077,-0.6035 0.2253,-1.1173 0.6487,-1.5455 h 0.0039 c 0.54,-0.5373 1.247,-0.7553 1.9929,-0.6073 0.8353,0.1635 1.7327,-0.0779 2.3814,-0.728 1.0334,-1.0355 1.0334,-2.7173 0,-3.7528 -1.0333,-1.0355 -2.7116,-1.0355 -3.7449,0 -0.6488,0.6462 -0.8897,1.5494 -0.7265,2.3864 0.1476,0.7474 -0.0699,1.4598 -0.606,2.0009 H 11.071 c -0.4235,0.4244 -0.9402,0.6424 -1.53841,0.6501 -0.39626,0.0078 -0.78862,0.1597 -1.09164,0.4633 -0.6138,0.619 -0.6138,1.6156 0,2.2307 z M 9.0431,24.4282 c 0,1.5377 -1.24315,2.7796 -2.77377,2.7796 -1.5345,0 -2.77376,-1.2419 -2.77376,-2.7796 0,-1.5377 1.23926,-2.7795 2.77376,-2.7795 1.53451,0 2.77377,1.2418 2.77377,2.7795 z m 7.5288,5.5008 c 0,1.1406 -0.9246,2.0671 -2.0629,2.0671 -1.1382,0 -2.0628,-0.9265 -2.0628,-2.0671 0,-1.1407 0.9246,-2.0672 2.0628,-2.0672 1.1383,0 2.0629,0.9265 2.0629,2.0672 z m 0.3535,-13.9329 c 0,-1.3041 -1.0567,-2.363 -2.3581,-2.363 -0.641,0 -1.2237,0.253 -1.6471,0.6696 -0.6449,0.6306 -1.418,0.946 -2.3193,0.946 h -0.0078 c -1.1421,0 -2.12107,-0.5256 -2.75818,-1.4716 -0.71481,-1.0627 -1.92299,-1.7596 -3.29822,-1.7596 -2.19104,0 -3.970294,1.783 -3.970294,3.9786 0,2.1956 1.775364,3.9786 3.970294,3.9786 1.37523,0 2.58341,-0.6968 3.29822,-1.7596 0.63711,-0.9499 1.61997,-1.4715 2.75818,-1.4715 h 0.0078 c 0.9013,0 1.6744,0.3153 2.3193,0.9459 0.4273,0.4127 1.0061,0.6696 1.6471,0.6696 1.3014,0 2.3581,-1.0589 2.3581,-2.363 z m 7.5249,-5.7888 c -0.5439,0 -1.0334,0.218 -1.3908,0.5762 -0.3535,0.3581 -0.5749,0.8486 -0.5749,1.3936 0,0.545 0.2175,1.0356 0.5749,1.3937 0.3574,0.3543 0.8469,0.5762 1.3908,0.5762 0.5439,0 1.0334,-0.218 1.3908,-0.5762 0.3535,-0.3581 0.5749,-0.8487 0.5749,-1.3937 0,-0.545 -0.2175,-1.0355 -0.5749,-1.3936 -0.3574,-0.3543 -0.8469,-0.5762 -1.3908,-0.5762 z m -0.8352,1.1328 c 0.2136,-0.2141 0.5089,-0.3464 0.8352,-0.3464 0.3263,0 0.6216,0.1323 0.8352,0.3464 0.2137,0.2142 0.3458,0.51 0.3458,0.837 0,0.327 -0.1321,0.6229 -0.3458,0.837 -0.2136,0.2141 -0.5089,0.3465 -0.8352,0.3465 -0.3263,0 -0.6216,-0.1324 -0.8352,-0.3465 -0.2137,-0.2141 -0.3458,-0.51 -0.3458,-0.837 0,-0.327 0.1321,-0.6228 0.3458,-0.837 z m 0.742,-8.33864 C 24.4115,2.87299 24.493,2.74842 24.6018,2.63942 l 0.0039,0.00778 c 0.2253,-0.2219 0.5167,-0.33479 0.808,-0.33479 0.2914,0 0.5867,0.11289 0.8081,0.33479 0.2214,0.22579 0.3341,0.51776 0.3341,0.80973 0,0.29198 -0.1127,0.58784 -0.3341,0.80974 -0.1088,0.109 -0.2331,0.19075 -0.3613,0.24525 -0.1399,0.0584 -0.2836,0.08954 -0.4312,0.08954 -0.3419,0.00389 -0.6643,0.07007 -0.9596,0.19465 -0.2991,0.12457 -0.571,0.31143 -0.8119,0.55669 h -0.0039 c -0.303,0.30754 -0.5205,0.66958 -0.641,1.06277 -0.1204,0.39319 -0.1398,0.80973 -0.0582,1.23796 0.0699,0.35426 0.0505,0.72409 -0.0544,1.06666 -0.101,0.33091 -0.2836,0.64234 -0.5478,0.90706 -0.4273,0.42825 -0.9867,0.64235 -1.55,0.64235 -0.5633,0 -1.1228,-0.2141 -1.5501,-0.64235 -0.4273,-0.42822 -0.641,-0.98881 -0.641,-1.55328 0,-0.56448 0.2137,-1.12506 0.641,-1.55329 0.2642,-0.26472 0.575,-0.44769 0.9052,-0.5489 C 20.5033,5.86667 20.8685,5.8472 21.222,5.91727 21.6493,5.99903 22.065,5.97956 22.4574,5.85888 22.8498,5.7382 23.2111,5.5202 23.518,5.20876 h 0.0038 c 0.2409,-0.24136 0.4235,-0.51387 0.5517,-0.81363 0.1243,-0.29586 0.1903,-0.61897 0.1942,-0.96155 0,-0.14794 0.0311,-0.29587 0.0894,-0.43212 z m 1.0528,-1.48321 c -0.4934,0 -0.9868,0.18686 -1.3636,0.56448 l -0.0039,-0.0039 c -0.1787,0.17908 -0.3186,0.3893 -0.4118,0.61509 -0.0971,0.22968 -0.1515,0.47494 -0.1515,0.72408 0,0.24526 -0.0466,0.46716 -0.1321,0.66959 -0.0816,0.19854 -0.2136,0.3854 -0.3846,0.56448 H 22.9585 C 22.741,4.87007 22.4924,5.0219 22.2282,5.10365 21.9601,5.1854 21.6727,5.19708 21.3696,5.13869 20.8957,5.04526 20.3984,5.06861 19.9284,5.21265 19.4738,5.3528 19.0465,5.60195 18.693,5.9562 c -0.5788,0.58395 -0.8702,1.34696 -0.8702,2.10998 0,0.76302 0.2875,1.52603 0.8702,2.11002 0.5827,0.58 1.3441,0.872 2.1056,0.872 0.7614,0 1.5228,-0.2881 2.1055,-0.872 C 23.2616,9.818 23.5063,9.39367 23.6462,8.9382 23.7899,8.46715 23.8132,7.97275 23.72,7.49392 23.6617,7.19027 23.6733,6.90219 23.7549,6.63358 23.8365,6.36886 23.988,6.11971 24.2056,5.89781 h 0.0038 c 0.171,-0.17129 0.3575,-0.29976 0.5595,-0.3854 0.2059,-0.08565 0.4273,-0.13236 0.6682,-0.13236 0.2447,-0.00389 0.4933,-0.0545 0.7225,-0.15183 0.2254,-0.09343 0.4351,-0.23357 0.6138,-0.41265 0.3769,-0.37761 0.5633,-0.87202 0.5633,-1.36642 0,-0.49441 -0.1864,-0.98881 -0.5633,-1.36642 C 26.3966,1.70511 25.9032,1.51825 25.4099,1.51825 Z m 3.2049,3.15328 c -0.8546,0 -1.6316,0.34647 -2.191,0.90706 -0.5594,0.56448 -0.9052,1.33917 -0.9052,2.19562 0,0.85645 0.3458,1.63504 0.9052,2.19562 0.5633,0.56057 1.3364,0.90707 2.191,0.90707 0.8547,0 1.6317,-0.3465 2.1911,-0.90707 C 31.3653,9.40535 31.711,8.63066 31.711,7.77421 31.711,6.91776 31.3653,6.13917 30.8059,5.57859 30.2426,5.018 29.4695,4.67153 28.6148,4.67153 Z m -1.6355,1.46375 c 0.4196,-0.41654 0.9984,-0.67737 1.6355,-0.67737 0.641,0 1.216,0.25693 1.6356,0.67737 0.4156,0.42044 0.6759,0.99659 0.6759,1.63893 0,0.64233 -0.2564,1.21849 -0.6759,1.63893 -0.4196,0.41654 -0.9946,0.67736 -1.6356,0.67736 -0.641,0 -1.2159,-0.25692 -1.6355,-0.67736 -0.4156,-0.42044 -0.6759,-0.9966 -0.6759,-1.63893 0,-0.64234 0.2564,-1.21849 0.6759,-1.63893 z M 20.5771,0 C 19.9128,0 19.3107,0.268613 18.8756,0.704623 18.4405,1.14063 18.1724,1.74404 18.1724,2.40973 c 0,0.6657 0.2681,1.2691 0.7032,1.70511 0.4351,0.43601 1.0372,0.70463 1.7015,0.70463 0.6643,0 1.2665,-0.26862 1.7016,-0.70463 0.4351,-0.43601 0.7031,-1.03941 0.7031,-1.70511 0,-0.66569 -0.268,-1.2691 -0.7031,-1.705107 C 21.8436,0.268613 21.2414,0 20.5771,0 Z m -1.146,1.26131 c 0.2914,-0.291967 0.6993,-0.474935 1.146,-0.474935 0.4468,0 0.8547,0.182968 1.1461,0.474935 0.2913,0.29587 0.4739,0.70073 0.4739,1.14842 0,0.44769 -0.1826,0.85645 -0.4739,1.14842 -0.2914,0.29197 -0.6993,0.47494 -1.1461,0.47494 -0.4467,0 -0.8546,-0.18297 -1.146,-0.47494 -0.2913,-0.29197 -0.4739,-0.70073 -0.4739,-1.14842 0,-0.44769 0.1826,-0.85645 0.4739,-1.14842 z m 5.0192,19.74499 c -0.3263,0 -0.6216,-0.1323 -0.8352,-0.3464 -0.2137,-0.2142 -0.3458,-0.51 -0.3458,-0.837 0,-0.327 0.1321,-0.6229 0.3458,-0.837 0.2136,-0.2141 0.5089,-0.3465 0.8352,-0.3465 0.3263,0 0.6216,0.1324 0.8352,0.3465 0.2137,0.2141 0.3458,0.51 0.3458,0.837 0,0.327 -0.1321,0.6228 -0.3458,0.837 -0.2136,0.2141 -0.5089,0.3464 -0.8352,0.3464 z m -1.3908,0.2102 c 0.3574,0.3543 0.8469,0.5762 1.3908,0.5762 0.5439,0 1.0334,-0.218 1.3908,-0.5762 0.3535,-0.3581 0.5749,-0.8486 0.5749,-1.3936 0,-0.545 -0.2175,-1.0356 -0.5749,-1.3937 -0.3574,-0.3543 -0.8469,-0.5762 -1.3908,-0.5762 -0.5439,0 -1.0334,0.218 -1.3908,0.5762 -0.3535,0.3581 -0.5749,0.8487 -0.5749,1.3937 0,0.545 0.2175,1.0355 0.5749,1.3936 z m 0.9868,8.7008 c 0.3768,0.3776 0.8702,0.5645 1.3636,0.5645 l 0.0038,-0.0039 c 0.4934,0 0.9868,-0.1869 1.3636,-0.5645 0.3768,-0.3776 0.5633,-0.872 0.5633,-1.3664 0,-0.4944 -0.1865,-0.9888 -0.5633,-1.3665 -0.1787,-0.179 -0.3885,-0.3192 -0.6138,-0.4126 -0.2292,-0.0973 -0.4778,-0.1518 -0.7226,-0.1518 -0.2408,-0.0039 -0.4661,-0.0468 -0.6681,-0.1324 -0.2021,-0.0818 -0.3885,-0.2102 -0.5595,-0.3893 h -0.0039 c -0.2175,-0.218 -0.369,-0.4671 -0.4506,-0.7319 -0.0816,-0.2686 -0.0932,-0.5567 -0.035,-0.8603 0.0933,-0.4788 0.07,-0.9732 -0.0738,-1.4443 -0.1398,-0.4555 -0.3884,-0.8837 -0.742,-1.2379 -0.5827,-0.5801 -1.3441,-0.8721 -2.1055,-0.8721 -0.7615,0 -1.5229,0.2881 -2.1056,0.8721 -0.5789,0.5839 -0.8702,1.3469 -0.8702,2.1099 0,0.763 0.2875,1.5261 0.8702,2.11 0.3574,0.3582 0.7808,0.6034 1.2354,0.7436 0.47,0.144 0.9634,0.1674 1.4412,0.0739 0.303,-0.0584 0.5905,-0.0467 0.8586,0.0351 0.2641,0.0817 0.5128,0.2335 0.7303,0.4554 h 0.0039 c 0.1709,0.1713 0.2991,0.3582 0.3846,0.5606 0.0855,0.2063 0.1321,0.4282 0.1321,0.6696 0.0039,0.2453 0.0544,0.4905 0.1515,0.7241 0.0971,0.2258 0.2331,0.436 0.4118,0.6151 z m 1.3636,-0.2219 c -0.2914,0 -0.5866,-0.1129 -0.8081,-0.3348 l -0.0039,0.0039 C 24.4892,29.2555 24.4076,29.1309 24.3532,29.0024 24.2949,28.8623 24.2638,28.7182 24.2638,28.5703 24.26,28.2277 24.1939,27.9046 24.0696,27.6088 23.9414,27.309 23.7588,27.0365 23.518,26.7912 h -0.0039 c -0.3069,-0.3036 -0.6682,-0.5216 -1.0606,-0.6423 -0.3924,-0.1207 -0.808,-0.1401 -1.2354,-0.0584 -0.3535,0.0701 -0.7225,0.0506 -1.0644,-0.0545 -0.3302,-0.1012 -0.641,-0.2842 -0.9052,-0.5489 -0.4273,-0.4282 -0.641,-0.9888 -0.641,-1.5533 0,-0.5645 0.2137,-1.125 0.641,-1.5533 0.4274,-0.4282 0.9868,-0.6423 1.5501,-0.6423 0.5633,0 1.1227,0.2141 1.55,0.6423 0.2642,0.2648 0.4468,0.5762 0.5478,0.9071 0.1049,0.3465 0.1243,0.7124 0.0544,1.0667 -0.0816,0.4243 -0.0622,0.8447 0.0582,1.2379 0.1166,0.3932 0.3341,0.7552 0.641,1.0667 h 0.0039 c 0.2409,0.2413 0.5128,0.4243 0.8119,0.5528 0.2953,0.1246 0.6177,0.1907 0.9596,0.1946 0.1476,0 0.2952,0.0312 0.4312,0.0896 0.1282,0.0545 0.2525,0.1362 0.3613,0.2452 0.2214,0.2258 0.3341,0.5178 0.3341,0.8098 0,0.2919 -0.1127,0.5878 -0.3341,0.8097 -0.2253,0.2219 -0.5167,0.3348 -0.808,0.3348 z m 3.2049,-3.1533 c -0.641,0 -1.2159,-0.2569 -1.6355,-0.6774 -0.4156,-0.4204 -0.6759,-0.9966 -0.6759,-1.6389 0,-0.6423 0.2564,-1.2185 0.6759,-1.6389 0.4196,-0.4166 0.9945,-0.6774 1.6355,-0.6774 0.641,0 1.216,0.2569 1.6356,0.6774 0.4156,0.4204 0.6759,0.9966 0.6759,1.6389 0,0.6423 -0.2564,1.2185 -0.6759,1.6389 -0.4196,0.4166 -0.9946,0.6774 -1.6356,0.6774 z m -2.191,-0.1207 c 0.5633,0.5606 1.3364,0.9071 2.191,0.9071 0.8547,0 1.6317,-0.3465 2.1911,-0.9071 0.5594,-0.5645 0.9051,-1.3392 0.9051,-2.1956 0,-0.8565 -0.3457,-1.635 -0.9051,-2.1956 -0.5633,-0.5606 -1.3364,-0.9071 -2.1911,-0.9071 -0.8546,0 -1.6316,0.3465 -2.191,0.9071 -0.5594,0.5644 -0.9052,1.3391 -0.9052,2.1956 0,0.8564 0.3458,1.635 0.9052,2.1956 z m -5.8467,4.7883 c -0.4467,0 -0.8546,-0.1829 -1.146,-0.4749 -0.2913,-0.292 -0.4739,-0.7007 -0.4739,-1.1484 0,-0.4477 0.1826,-0.8565 0.4739,-1.1484 0.2953,-0.292 0.6993,-0.475 1.146,-0.475 0.4468,0 0.8547,0.183 1.1461,0.475 0.2913,0.2958 0.4739,0.7007 0.4739,1.1484 0,0.4477 -0.1826,0.8564 -0.4739,1.1484 -0.2953,0.292 -0.6993,0.4749 -1.1461,0.4749 z m -1.7015,0.0818 c 0.4351,0.436 1.0372,0.7046 1.7015,0.7046 0.6643,0 1.2665,-0.2686 1.7016,-0.7046 0.4351,-0.436 0.7031,-1.0394 0.7031,-1.7051 0,-0.6657 -0.268,-1.2691 -0.7031,-1.7051 -0.4351,-0.436 -1.0373,-0.7047 -1.7016,-0.7047 -0.6643,0 -1.2664,0.2687 -1.7015,0.7047 -0.4351,0.436 -0.7032,1.0394 -0.7032,1.7051 0,0.6657 0.2681,1.2691 0.7032,1.7051 z m 1.6433,-17.9932 c -0.742,0 -1.418,0.3036 -1.9036,0.7903 v 0.0078 c -0.4856,0.4866 -0.7886,1.1639 -0.7886,1.9075 0,0.7435 0.2991,1.4209 0.7886,1.9075 0.4856,0.4867 1.1616,0.7903 1.9036,0.7903 0.3574,0 0.6992,-0.0701 1.0139,-0.1985 0.3263,-0.1324 0.6177,-0.327 0.8663,-0.5684 0.2797,-0.2686 0.5827,-0.4711 0.913,-0.6073 0.3302,-0.1363 0.6876,-0.2024 1.0761,-0.2024 h 0.0077 c 0.4934,0 0.9479,0.1129 1.3442,0.3231 0.3962,0.2141 0.742,0.5294 1.0178,0.9382 0.3885,0.58 0.9168,1.0589 1.5384,1.3898 0.6021,0.3192 1.282,0.5021 2.0046,0.5021 1.1809,0 2.2454,-0.4788 3.0185,-1.2535 0.773,-0.7747 1.2509,-1.8413 1.2509,-3.0248 0,-1.1835 -0.4779,-2.2501 -1.2509,-3.0248 -0.7731,-0.7747 -1.8414,-1.2535 -3.0185,-1.2535 -0.7226,0 -1.4063,0.1829 -2.0046,0.5021 -0.6216,0.3309 -1.1499,0.8098 -1.5384,1.3898 -0.2719,0.4088 -0.6177,0.7241 -1.0178,0.9382 -0.3963,0.2102 -0.8508,0.3231 -1.3442,0.3231 h -0.0077 c -0.3885,0 -0.7459,-0.07 -1.0761,-0.2024 -0.3303,-0.1324 -0.6372,-0.3348 -0.913,-0.6073 -0.2486,-0.2414 -0.54,-0.436 -0.8663,-0.5684 -0.3147,-0.1284 -0.6565,-0.1985 -1.0139,-0.1985 z m -1.3481,1.3508 c 0.3419,-0.3464 0.8197,-0.5605 1.3481,-0.5605 v -0.0078 c 0.2564,0 0.4972,0.0506 0.7187,0.1401 0.2292,0.0935 0.4389,0.2297 0.6138,0.401 0.3496,0.3426 0.7381,0.6034 1.1615,0.7747 0.4235,0.1752 0.8819,0.2608 1.3714,0.2608 h 0.0077 c 0.6177,0 1.2004,-0.144 1.7132,-0.4165 0.5128,-0.2725 0.9557,-0.6735 1.3015,-1.1913 0.3185,-0.4749 0.7497,-0.8681 1.2548,-1.1367 0.4856,-0.2569 1.0411,-0.4049 1.6355,-0.4049 0.9634,0 1.8336,0.3893 2.463,1.02 0.6293,0.6306 1.0178,1.5027 1.0178,2.4681 0,0.9655 -0.3885,1.8375 -1.0178,2.4681 -0.6294,0.6307 -1.5035,1.02 -2.463,1.02 -0.5944,0 -1.1499,-0.1441 -1.6355,-0.4049 -0.5051,-0.2725 -0.9363,-0.6618 -1.2548,-1.1367 -0.3458,-0.5178 -0.7887,-0.9188 -1.3015,-1.1913 -0.5128,-0.2725 -1.0955,-0.4165 -1.7132,-0.4165 h -0.0077 c -0.4895,0 -0.9479,0.0895 -1.3714,0.2608 -0.4234,0.1752 -0.8119,0.4321 -1.1615,0.7747 -0.1749,0.1674 -0.3846,0.3076 -0.6138,0.401 -0.2215,0.0895 -0.4623,0.1401 -0.7187,0.1401 -0.5245,0 -1.0023,-0.2141 -1.3481,-0.5605 C 18.8251,17.0083 18.6114,16.5255 18.6114,16 c 0,-0.5255 0.2137,-1.0044 0.5594,-1.3509 z"
       fill="url(#paint0_linear_322_2035)"
       id="path2"
       style="fill:url(#paint0_linear_322_2035)" />
  </g>
  <defs
     id="defs3">
    <linearGradient
       id="paint0_linear_322_2035"
       x1="34.566399"
       y1="16"
       x2="0.635822"
       y2="14.4653"
       gradientUnits="userSpaceOnUse">
      <stop
         stop-color="#00D1BC"
         id="stop2" />
      <stop
         offset="1"
         stop-color="#4300E0"
         id="stop3" />
    </linearGradient>
    <clipPath
       id="clip0_322_2035">
      <rect
         width="34"
         height="32"
         fill="#ffffff"
         transform="translate(0.566406)"
         id="rect3"
         x="0"
         y="0" />
    </clipPath>
  </defs>
</svg>
