<?xml version="1.0" encoding="UTF-8" standalone="no"?>
<svg
   width="980.19299"
   height="219.97301"
   viewBox="0 0 980.19299 219.97301"
   fill="none"
   version="1.1"
   id="svg2"
   sodipodi:docname="logo-text-dark.svg"
   inkscape:version="1.3.2 (091e20e, 2023-11-25, custom)"
   xmlns:inkscape="http://www.inkscape.org/namespaces/inkscape"
   xmlns:sodipodi="http://sodipodi.sourceforge.net/DTD/sodipodi-0.dtd"
   xmlns="http://www.w3.org/2000/svg"
   xmlns:svg="http://www.w3.org/2000/svg">
  <sodipodi:namedview
     id="namedview2"
     pagecolor="#ffffff"
     bordercolor="#000000"
     borderopacity="0.25"
     inkscape:showpageshadow="2"
     inkscape:pageopacity="0.0"
     inkscape:pagecheckerboard="0"
     inkscape:deskcolor="#d1d1d1"
     inkscape:zoom="1.5096057"
     inkscape:cx="494.5"
     inkscape:cy="109.96249"
     inkscape:window-width="2560"
     inkscape:window-height="1368"
     inkscape:window-x="2551"
     inkscape:window-y="-9"
     inkscape:window-maximized="1"
     inkscape:current-layer="svg2" />
  <path
     d="m 313.121,162.594 c -3.664,0 -6.624,-1.08 -8.879,-3.241 C 302.081,157.192 301,154.326 301,150.756 V 63.9381 h 44.959 c 7.329,0 13.765,1.4094 19.309,4.2281 5.637,2.7248 9.959,6.6241 12.966,11.6978 3.101,5.0738 4.651,10.9462 4.651,17.6172 v 28.7508 c 0,11.933 -3.101,21 -9.302,27.201 -6.107,6.108 -15.127,9.161 -27.06,9.161 z M 346.1,148.078 c 6.671,0 11.698,-1.879 15.081,-5.638 3.476,-3.852 5.214,-9.443 5.214,-16.771 V 98.045 c 0,-5.8254 -1.926,-10.5234 -5.778,-14.0938 -3.852,-3.6643 -8.879,-5.4965 -15.08,-5.4965 H 317.49 v 69.6233 z m 61.218,-63.704 c -3.195,0 -5.779,-0.9395 -7.752,-2.8187 -1.879,-1.9731 -2.818,-4.463 -2.818,-7.4697 0,-3.0067 0.939,-5.4496 2.818,-7.3287 1.973,-1.9732 4.557,-2.9597 7.752,-2.9597 3.194,0 5.778,0.9865 7.751,2.9597 1.974,1.8791 2.96,4.322 2.96,7.3287 0,3.0067 -0.986,5.4966 -2.96,7.4697 -1.973,1.8792 -4.557,2.8187 -7.751,2.8187 z m -8.034,7.8925 h 16.208 v 70.3275 h -16.208 z m 58.672,71.4555 c -8.08,0 -14.563,-2.161 -19.449,-6.483 -4.886,-4.322 -7.329,-10.054 -7.329,-17.195 h 15.926 c 0,3.007 0.987,5.45 2.96,7.329 1.973,1.785 4.604,2.678 7.892,2.678 H 470.5 c 3.194,0 5.684,-0.517 7.469,-1.55 1.88,-1.128 2.819,-2.631 2.819,-4.51 v -3.101 c 0,-1.315 -0.564,-2.443 -1.691,-3.383 -1.034,-0.939 -2.49,-1.597 -4.369,-1.973 l -24.382,-4.228 c -5.45,-0.939 -9.772,-2.912 -12.967,-5.919 -3.194,-3.101 -4.791,-6.671 -4.791,-10.711 v -4.651 c 0,-5.826 2.302,-10.4297 6.905,-13.8122 4.698,-3.3825 11.135,-5.0738 19.309,-5.0738 h 11.275 c 7.423,0 13.436,2.0201 18.04,6.0604 4.604,4.0406 6.906,9.3486 6.906,15.9256 h -15.926 c 0,-2.537 -0.846,-4.557 -2.537,-6.06 -1.597,-1.503 -3.758,-2.255 -6.483,-2.255 h -11.134 c -3.289,0 -5.826,0.517 -7.611,1.55 -1.785,1.034 -2.678,2.49 -2.678,4.369 v 2.819 c 0,1.316 0.517,2.443 1.551,3.383 1.127,0.939 2.584,1.55 4.369,1.832 l 25.228,4.51 c 5.167,1.033 9.301,3.006 12.402,5.919 3.101,2.913 4.651,6.342 4.651,10.289 v 5.214 c 0,5.826 -2.396,10.477 -7.188,13.953 -4.792,3.383 -11.181,5.074 -19.167,5.074 z m 80.222,-1.128 c -7.986,0 -13.811,-1.785 -17.476,-5.355 -3.664,-3.571 -5.496,-9.208 -5.496,-16.913 V 106.219 H 502.803 V 92.2665 h 12.825 V 70.985 h 15.785 v 21.2815 h 18.322 v 13.9525 h -18.322 v 33.543 c 0,3.101 0.611,5.356 1.833,6.765 1.221,1.41 3.147,2.115 5.778,2.115 h 10.711 v 13.952 z m 25.421,-70.3275 h 15.08 v 9.5835 c 1.879,-2.9124 4.557,-5.2614 8.034,-7.0466 3.57,-1.8791 7.234,-2.8187 10.993,-2.8187 h 8.456 v 14.0933 h -8.456 c -5.356,0 -9.678,1.645 -12.967,4.933 -3.288,3.289 -4.932,7.564 -4.932,12.826 v 38.757 h -16.208 z m 61.875,-7.8925 c -3.195,0 -5.779,-0.9395 -7.752,-2.8187 -1.879,-1.9731 -2.819,-4.463 -2.819,-7.4697 0,-3.0067 0.94,-5.4496 2.819,-7.3287 1.973,-1.9732 4.557,-2.9597 7.752,-2.9597 3.194,0 5.778,0.9865 7.751,2.9597 1.973,1.8791 2.96,4.322 2.96,7.3287 0,3.0067 -0.987,5.4966 -2.96,7.4697 -1.973,1.8792 -4.557,2.8187 -7.751,2.8187 z m -8.034,7.8925 h 16.208 V 162.594 H 617.44 Z m 48.102,70.3275 c -3.571,0 -6.483,-1.08 -8.738,-3.241 -2.255,-2.255 -3.383,-5.121 -3.383,-8.597 V 63.9381 h 46.651 c 8.738,0 15.738,2.1141 20.999,6.3422 5.356,4.1342 8.034,9.6307 8.034,16.4897 v 7.1878 c 0,3.2885 -0.799,6.3892 -2.396,9.3022 -1.598,2.912 -3.806,5.261 -6.624,7.047 v 0.14 c 4.604,1.504 8.268,4.041 10.993,7.611 2.819,3.571 4.228,7.611 4.228,12.121 v 7.047 c 0,7.798 -2.678,13.999 -8.034,18.603 -5.355,4.51 -12.59,6.765 -21.704,6.765 z m 35.375,-56.516 c 3.477,0 6.295,-1.127 8.456,-3.382 2.161,-2.255 3.242,-5.1678 3.242,-8.7382 v -5.7784 c 0,-3.0067 -1.221,-5.4026 -3.664,-7.1879 -2.349,-1.7852 -5.497,-2.6778 -9.443,-2.6778 h -29.597 v 27.7643 z m 3.242,42.141 c 4.604,0 8.174,-1.034 10.711,-3.101 2.631,-2.067 3.946,-4.933 3.946,-8.597 v -6.342 c 0,-3.195 -1.127,-5.732 -3.382,-7.611 -2.255,-1.973 -5.262,-2.96 -9.02,-2.96 h -36.503 v 28.611 z m 43.22,-55.9525 h 15.08 v 9.5835 c 1.88,-2.9124 4.557,-5.2614 8.034,-7.0466 3.57,-1.8791 7.235,-2.8187 10.993,-2.8187 h 8.456 v 14.0933 h -8.456 c -5.356,0 -9.678,1.645 -12.966,4.933 -3.289,3.289 -4.933,7.564 -4.933,12.826 v 38.757 h -16.208 z m 70.666,71.4555 c -7.141,0 -12.919,-1.785 -17.335,-5.356 -4.322,-3.664 -6.483,-8.503 -6.483,-14.516 v -5.074 c 0,-5.919 2.255,-10.664 6.765,-14.235 4.604,-3.57 10.617,-5.355 18.04,-5.355 h 8.738 c 2.631,0 5.449,0.375 8.456,1.127 3.007,0.752 5.684,1.738 8.033,2.96 v -8.738 c 0,-2.913 -0.939,-5.262 -2.818,-7.047 -1.88,-1.785 -4.322,-2.678 -7.329,-2.678 h -11.839 c -3.1,0 -5.59,0.752 -7.47,2.255 -1.879,1.409 -2.818,3.289 -2.818,5.637 H 796.2 c 0,-6.483 2.396,-11.697 7.188,-15.6436 4.791,-3.9462 11.087,-5.9194 18.885,-5.9194 h 11.839 c 7.892,0 14.235,2.1611 19.026,6.4832 4.792,4.2278 7.188,9.8658 7.188,16.9128 v 48.059 h -15.08 v -8.879 c -2.255,3.007 -5.074,5.45 -8.456,7.329 -3.383,1.785 -6.718,2.678 -10.007,2.678 z m 9.725,-12.685 c 3.758,0 7.141,-1.033 10.147,-3.1 3.007,-2.161 5.121,-4.98 6.342,-8.456 v -3.383 c -1.597,-1.315 -3.852,-2.349 -6.765,-3.101 -2.912,-0.845 -5.966,-1.268 -9.161,-1.268 h -8.879 c -2.818,0 -5.12,0.705 -6.906,2.114 -1.691,1.409 -2.536,3.242 -2.536,5.497 v 3.946 c 0,2.349 0.892,4.228 2.677,5.637 1.786,1.41 4.135,2.114 7.047,2.114 z m 58.939,-66.663 c -3.194,0 -5.778,-0.9395 -7.751,-2.8187 -1.88,-1.9731 -2.819,-4.463 -2.819,-7.4697 0,-3.0067 0.939,-5.4496 2.819,-7.3287 1.973,-1.9732 4.557,-2.9597 7.751,-2.9597 3.195,0 5.779,0.9865 7.752,2.9597 1.973,1.8791 2.959,4.322 2.959,7.3287 0,3.0067 -0.986,5.4966 -2.959,7.4697 -1.973,1.8792 -4.557,2.8187 -7.752,2.8187 z m -8.033,7.8925 h 16.207 v 70.3275 h -16.207 z m 35.417,0 h 15.08 v 9.1605 c 2.067,-3.1001 4.792,-5.59 8.175,-7.4692 3.382,-1.8792 6.765,-2.8188 10.147,-2.8188 h 8.738 c 7.235,0 13.013,2.302 17.335,6.906 4.416,4.604 6.625,10.664 6.625,18.181 v 46.368 h -16.208 v -45.945 c 0,-3.383 -0.893,-6.108 -2.678,-8.175 -1.691,-2.161 -3.946,-3.241 -6.765,-3.241 h -8.738 c -3.665,0 -6.953,1.409 -9.866,4.228 -2.913,2.725 -4.792,6.248 -5.637,10.57 v 42.563 h -16.208 z"
     fill="white"
     id="path1"
     style="fill:#000000;fill-opacity:1" />
  <g
     clip-path="url(#clip0_412_2103)"
     id="g2"
     style="fill:#000000;fill-opacity:1">
    <path
       fill-rule="evenodd"
       clip-rule="evenodd"
       d="m 79.6171,83.0487 c 0,-6.129 -4.9677,-11.1071 -11.0839,-11.1071 -6.1162,0 -11.0839,4.9781 -11.0839,11.1071 0,6.1289 4.9677,11.107 11.0839,11.107 6.1162,0 11.0839,-4.9781 11.0839,-11.107 z M 54.1108,13.8905 c 4.2466,-4.2287 11.0839,-4.2287 15.3038,0 l -0.0267,0.0268 c 2.0832,2.0876 3.1515,4.7907 3.1782,7.5207 0.0534,4.1484 1.5491,7.6812 4.4603,10.6253 h 0.0267 c 3.7124,3.6934 8.5733,5.1922 13.7013,4.1751 5.7423,-1.124 11.9116,0.5353 16.3726,5.0049 7.104,7.1192 7.104,18.6813 0,25.8005 -7.105,7.1192 -18.6428,7.1192 -25.7472,0 C 76.9196,62.601 75.2637,56.3917 76.3854,50.6375 77.4003,45.4988 75.9047,40.601 72.2189,36.8808 h -0.0267 c -2.9112,-2.9173 -6.4634,-4.4161 -10.5764,-4.4696 -2.7243,-0.0535 -5.4218,-1.0973 -7.505,-3.1849 -4.2199,-4.2555 -4.2199,-11.1071 0,-15.3358 z m 4.1397,38.1655 c 0,-10.5718 -8.5466,-19.1095 -19.0696,-19.1095 -10.5497,0 -19.0696,8.5377 -19.0696,19.1095 0,10.5717 8.5199,19.1095 19.0696,19.1095 10.5497,0 19.0696,-8.5378 19.0696,-19.1095 z M 110.038,14.2117 C 110.038,6.36983 103.681,0 95.8557,0 88.0302,0 81.6736,6.36983 81.6736,14.2117 c 0,7.8418 6.3566,14.2117 14.1821,14.2117 7.8253,0 14.1823,-6.3699 14.1823,-14.2117 z M 79.6438,136.951 c 0,6.129 -4.9677,11.107 -11.0839,11.107 -6.1162,0 -11.0839,-4.978 -11.0839,-11.107 0,-6.129 4.9677,-11.107 11.0839,-11.107 6.1162,0 11.0839,4.978 11.0839,11.107 z M 54.1375,206.11 c 4.2466,4.228 11.0839,4.228 15.3038,0 l -0.0267,-0.027 c 2.0832,-2.088 3.1515,-4.791 3.1782,-7.521 0.0535,-4.148 1.5491,-7.681 4.4603,-10.625 h 0.0267 c 3.7125,-3.694 8.5733,-5.192 13.7013,-4.175 5.7423,1.124 11.9119,-0.536 16.3719,-5.005 7.105,-7.12 7.105,-18.682 0,-25.801 -7.104,-7.119 -18.6421,-7.119 -25.7465,0 -4.4602,4.443 -6.1161,10.652 -4.9944,16.407 1.0149,5.138 -0.4807,10.036 -4.1665,13.756 h -0.0267 c -2.9112,2.917 -6.4634,4.416 -10.5764,4.47 -2.7243,0.053 -5.4218,1.097 -7.505,3.185 -4.2199,4.255 -4.2199,11.107 0,15.336 z m 4.1397,-38.166 c 0,10.572 -8.5466,19.11 -19.0696,19.11 -10.5497,0 -19.0696,-8.538 -19.0696,-19.11 0,-10.572 8.5199,-19.109 19.0696,-19.109 10.5497,0 19.0696,8.537 19.0696,19.109 z m 51.7608,37.818 c 0,7.841 -6.357,14.211 -14.1823,14.211 -7.8255,0 -14.1821,-6.37 -14.1821,-14.211 0,-7.842 6.3566,-14.212 14.1821,-14.212 7.8253,0 14.1823,6.37 14.1823,14.212 z m 2.43,-95.789 c 0,-8.966 -7.264,-16.2455 -16.2117,-16.2455 -4.4069,0 -8.4131,1.7397 -11.3243,4.6034 -4.4335,4.3361 -9.7485,6.5041 -15.9448,6.5041 h -0.0534 c -7.8522,0 -14.5827,-3.614 -18.9628,-10.1172 C 45.0567,87.4112 36.7505,82.6204 27.2958,82.6204 12.2323,82.6204 0,94.8784 0,109.973 c 0,15.095 12.2056,27.353 27.2958,27.353 9.4547,0 17.7609,-4.791 22.6752,-12.097 4.3801,-6.531 11.1373,-10.117 18.9628,-10.117 h 0.0534 c 6.1963,0 11.5113,2.168 15.9448,6.504 2.9379,2.837 6.9174,4.603 11.3243,4.603 8.9477,0 16.2117,-7.28 16.2117,-16.246 z m 51.734,-39.7978 c -3.739,0 -7.105,1.4988 -9.562,3.9611 -2.43,2.4622 -3.953,5.8345 -3.953,9.5815 0,3.7469 1.496,7.1192 3.953,9.5815 2.457,2.4355 5.823,3.961 9.562,3.961 3.739,0 7.104,-1.4987 9.561,-3.961 2.431,-2.4623 3.953,-5.8346 3.953,-9.5815 0,-3.747 -1.495,-7.1193 -3.953,-9.5815 -2.457,-2.4356 -5.822,-3.9611 -9.561,-3.9611 z m -5.742,7.7883 c 1.469,-1.472 3.498,-2.382 5.742,-2.382 2.243,0 4.273,0.91 5.742,2.382 1.469,1.472 2.377,3.5061 2.377,5.7543 0,2.2481 -0.908,4.2822 -2.377,5.7542 -1.469,1.472 -3.499,2.382 -5.742,2.382 -2.244,0 -4.273,-0.91 -5.742,-2.382 -1.469,-1.472 -2.377,-3.5061 -2.377,-5.7542 0,-2.2482 0.908,-4.2823 2.377,-5.7543 z m 5.101,-57.3285 c 0.374,-0.8832 0.935,-1.7396 1.682,-2.489 l 0.027,0.0535 c 1.549,-1.5255 3.552,-2.3017 5.555,-2.3017 2.004,0 4.033,0.7762 5.556,2.3017 1.522,1.5523 2.297,3.5596 2.297,5.5669 0,2.0073 -0.775,4.0414 -2.297,5.5669 -0.748,0.7494 -1.603,1.3115 -2.484,1.6862 -0.962,0.4014 -1.95,0.6155 -2.965,0.6155 -2.35,0.0268 -4.567,0.4818 -6.597,1.3382 -2.056,0.8565 -3.926,2.1412 -5.582,3.8273 h -0.026 c -2.084,2.1143 -3.579,4.6034 -4.407,7.3066 -0.828,2.7031 -0.962,5.5669 -0.401,8.5109 0.481,2.4355 0.347,4.9781 -0.374,7.3333 -0.694,2.275 -1.949,4.4161 -3.766,6.2361 -2.937,2.944 -6.783,4.416 -10.656,4.416 -3.873,0 -7.719,-1.472 -10.657,-4.416 -2.938,-2.9441 -4.407,-6.7981 -4.407,-10.6789 0,-3.8808 1.469,-7.7348 4.407,-10.6788 1.816,-1.82 3.953,-3.0779 6.223,-3.7737 2.377,-0.7227 4.888,-0.8565 7.318,-0.3747 2.938,0.562 5.796,0.4282 8.494,-0.4015 2.697,-0.8297 5.181,-2.3285 7.291,-4.4696 h 0.027 c 1.655,-1.6593 2.911,-3.5328 3.792,-5.5937 0.855,-2.034 1.309,-4.2554 1.336,-6.6107 0,-1.017 0.213,-2.034 0.614,-2.9708 z m 7.238,-10.197 c -3.392,0 -6.784,1.2846 -9.375,3.8807 l -0.027,-0.0267 c -1.228,1.2311 -2.19,2.6764 -2.831,4.2287 -0.667,1.5791 -1.041,3.2652 -1.041,4.9781 0,1.6861 -0.321,3.2117 -0.908,4.6034 -0.561,1.365 -1.469,2.6496 -2.644,3.8808 h -0.027 c -1.496,1.4988 -3.205,2.5426 -5.021,3.1046 -1.843,0.562 -3.82,0.6423 -5.903,0.2409 -3.258,-0.6424 -6.677,-0.4818 -9.908,0.5085 -3.125,0.9635 -6.063,2.6764 -8.494,5.1119 -3.979,4.0146 -5.982,9.2603 -5.982,14.5061 0,5.2457 1.976,10.4915 5.982,14.5061 4.007,3.9878 9.241,5.9951 14.476,5.9951 5.235,0 10.47,-1.9805 14.476,-5.9951 2.457,-2.4623 4.14,-5.3796 5.101,-8.511 0.988,-3.2384 1.149,-6.6374 0.508,-9.9294 -0.401,-2.0876 -0.321,-4.0681 0.24,-5.9149 0.561,-1.8199 1.603,-3.5328 3.098,-5.0584 h 0.027 c 1.175,-1.1776 2.457,-2.0608 3.846,-2.6496 1.415,-0.5888 2.938,-0.91 4.594,-0.91 1.682,-0.0267 3.392,-0.3747 4.967,-1.0438 1.55,-0.6423 2.992,-1.6058 4.22,-2.8369 2.591,-2.5961 3.873,-5.9952 3.873,-9.3942 0,-3.399 -1.282,-6.7981 -3.873,-9.3942 -2.59,-2.5961 -5.982,-3.8807 -9.374,-3.8807 z m 22.034,21.6788 c -5.876,0 -11.217,2.382 -15.063,6.236 -3.846,3.8808 -6.223,9.2068 -6.223,15.0949 0,5.8881 2.377,11.2409 6.223,15.0949 3.872,3.854 9.187,6.236 15.063,6.236 5.876,0 11.217,-2.382 15.063,-6.236 3.846,-3.8808 6.223,-9.2068 6.223,-15.0949 0,-5.8881 -2.377,-11.2409 -6.223,-15.0949 -3.872,-3.854 -9.187,-6.236 -15.063,-6.236 z m -11.244,10.0633 c 2.884,-2.8638 6.864,-4.657 11.244,-4.657 4.407,0 8.36,1.7664 11.244,4.657 2.858,2.8905 4.647,6.8515 4.647,11.2676 0,4.4161 -1.762,8.3771 -4.647,11.2676 -2.884,2.8638 -6.837,4.657 -11.244,4.657 -4.407,0 -8.36,-1.7665 -11.244,-4.657 -2.858,-2.8905 -4.647,-6.8515 -4.647,-11.2676 0,-4.4161 1.762,-8.3771 4.647,-11.2676 z M 137.574,0 c -4.567,0 -8.707,1.84672 -11.698,4.84428 -2.992,2.99757 -4.835,7.14602 -4.835,11.72262 0,4.5767 1.843,8.7251 4.835,11.7226 2.991,2.9976 7.131,4.8443 11.698,4.8443 4.567,0 8.707,-1.8467 11.698,-4.8443 2.991,-2.9975 4.834,-7.1459 4.834,-11.7226 0,-4.5766 -1.843,-8.72505 -4.834,-11.72262 C 146.281,1.84672 142.141,0 137.574,0 Z m -7.879,8.67153 c 2.003,-2.0073 4.807,-3.2652 7.879,-3.2652 3.071,0 5.876,1.2579 7.879,3.2652 2.003,2.03407 3.258,4.81757 3.258,7.89537 0,3.0779 -1.255,5.8881 -3.258,7.8954 -2.003,2.0073 -4.808,3.2652 -7.879,3.2652 -3.072,0 -5.876,-1.2579 -7.879,-3.2652 -2.003,-2.0073 -3.259,-4.8175 -3.259,-7.8954 0,-3.0778 1.256,-5.8881 3.259,-7.89537 z M 164.202,144.419 c -2.244,0 -4.273,-0.91 -5.742,-2.383 -1.469,-1.472 -2.377,-3.506 -2.377,-5.754 0,-2.248 0.908,-4.282 2.377,-5.754 1.469,-1.472 3.498,-2.382 5.742,-2.382 2.243,0 4.273,0.91 5.742,2.382 1.469,1.472 2.377,3.506 2.377,5.754 0,2.248 -0.908,4.282 -2.377,5.754 -1.469,1.473 -3.499,2.383 -5.742,2.383 z m -9.562,1.445 c 2.457,2.435 5.823,3.961 9.562,3.961 3.739,0 7.104,-1.499 9.561,-3.961 2.431,-2.463 3.953,-5.835 3.953,-9.582 0,-3.747 -1.495,-7.119 -3.953,-9.581 -2.457,-2.436 -5.822,-3.961 -9.561,-3.961 -3.739,0 -7.105,1.498 -9.562,3.961 -2.43,2.462 -3.953,5.834 -3.953,9.581 0,3.747 1.496,7.119 3.953,9.582 z m 6.784,59.817 c 2.591,2.596 5.983,3.881 9.375,3.881 l 0.026,-0.027 c 3.392,0 6.784,-1.284 9.375,-3.88 2.591,-2.597 3.873,-5.996 3.873,-9.395 0,-3.399 -1.282,-6.798 -3.873,-9.394 -1.229,-1.231 -2.671,-2.194 -4.22,-2.837 -1.576,-0.669 -3.285,-1.044 -4.968,-1.044 -1.655,-0.026 -3.205,-0.321 -4.593,-0.91 -1.389,-0.562 -2.671,-1.445 -3.846,-2.676 h -0.027 c -1.496,-1.499 -2.537,-3.212 -3.098,-5.032 -0.561,-1.846 -0.641,-3.827 -0.241,-5.914 0.641,-3.292 0.481,-6.691 -0.507,-9.93 -0.962,-3.131 -2.671,-6.075 -5.101,-8.511 -4.007,-3.988 -9.241,-5.995 -14.476,-5.995 -5.235,0 -10.47,1.981 -14.476,5.995 -3.98,4.015 -5.983,9.261 -5.983,14.506 0,5.246 1.977,10.492 5.983,14.506 2.457,2.463 5.368,4.149 8.493,5.112 3.232,0.991 6.624,1.151 9.909,0.509 2.083,-0.402 4.06,-0.321 5.902,0.241 1.817,0.562 3.526,1.606 5.022,3.131 h 0.026 c 1.175,1.178 2.057,2.462 2.644,3.854 0.588,1.419 0.908,2.944 0.908,4.603 0.027,1.687 0.374,3.373 1.042,4.979 0.668,1.552 1.603,2.997 2.831,4.228 z m 9.375,-1.525 c -2.003,0 -4.033,-0.776 -5.556,-2.302 l -0.026,0.027 c -0.748,-0.75 -1.309,-1.606 -1.683,-2.489 -0.401,-0.964 -0.614,-1.954 -0.614,-2.971 -0.027,-2.355 -0.481,-4.577 -1.336,-6.611 -0.881,-2.061 -2.136,-3.934 -3.792,-5.62 h -0.027 c -2.11,-2.088 -4.594,-3.587 -7.291,-4.416 -2.698,-0.83 -5.555,-0.964 -8.493,-0.402 -2.431,0.482 -4.968,0.348 -7.318,-0.374 -2.271,-0.696 -4.407,-1.954 -6.223,-3.774 -2.938,-2.944 -4.407,-6.798 -4.407,-10.679 0,-3.881 1.469,-7.735 4.407,-10.679 2.937,-2.944 6.783,-4.416 10.656,-4.416 3.873,0 7.719,1.472 10.657,4.416 1.816,1.82 3.071,3.961 3.766,6.236 0.721,2.382 0.854,4.898 0.373,7.334 -0.56,2.917 -0.427,5.807 0.401,8.51 0.801,2.704 2.297,5.193 4.407,7.334 h 0.027 c 1.656,1.659 3.525,2.917 5.582,3.8 2.029,0.857 4.246,1.312 6.597,1.339 1.015,0 2.029,0.214 2.964,0.615 0.882,0.375 1.736,0.937 2.484,1.686 1.522,1.553 2.297,3.56 2.297,5.567 0,2.007 -0.775,4.041 -2.297,5.567 -1.549,1.526 -3.552,2.302 -5.555,2.302 z m 22.034,-21.679 c -4.407,0 -8.36,-1.767 -11.244,-4.657 -2.858,-2.891 -4.647,-6.852 -4.647,-11.268 0,-4.416 1.762,-8.377 4.647,-11.267 2.884,-2.864 6.837,-4.657 11.244,-4.657 4.407,0 8.36,1.766 11.244,4.657 2.858,2.89 4.647,6.851 4.647,11.267 0,4.416 -1.762,8.377 -4.647,11.268 -2.884,2.864 -6.837,4.657 -11.244,4.657 z m -15.063,-0.83 c 3.872,3.854 9.187,6.236 15.063,6.236 5.876,0 11.217,-2.382 15.063,-6.236 3.846,-3.881 6.223,-9.207 6.223,-15.095 0,-5.888 -2.377,-11.241 -6.223,-15.095 -3.872,-3.854 -9.187,-6.236 -15.063,-6.236 -5.876,0 -11.217,2.382 -15.063,6.236 -3.846,3.881 -6.223,9.207 -6.223,15.095 0,5.888 2.377,11.241 6.223,15.095 z m -40.196,32.92 c -3.072,0 -5.876,-1.258 -7.879,-3.265 -2.003,-2.008 -3.259,-4.818 -3.259,-7.896 0,-3.078 1.256,-5.888 3.259,-7.895 2.03,-2.007 4.807,-3.265 7.879,-3.265 3.071,0 5.876,1.258 7.879,3.265 2.003,2.034 3.258,4.817 3.258,7.895 0,3.078 -1.255,5.888 -3.258,7.896 -2.03,2.007 -4.808,3.265 -7.879,3.265 z m -11.698,0.562 c 2.991,2.998 7.131,4.844 11.698,4.844 4.567,0 8.707,-1.846 11.698,-4.844 2.991,-2.998 4.834,-7.146 4.834,-11.723 0,-4.576 -1.843,-8.725 -4.834,-11.722 -2.991,-2.998 -7.131,-4.845 -11.698,-4.845 -4.567,0 -8.707,1.847 -11.698,4.845 -2.992,2.997 -4.835,7.146 -4.835,11.722 0,4.577 1.843,8.725 4.835,11.723 z M 137.173,91.4258 c -5.101,0 -9.748,2.0876 -13.087,5.4331 v 0.0535 c -3.338,3.3456 -5.422,8.0026 -5.422,13.1146 0,5.112 2.057,9.769 5.422,13.114 3.339,3.346 7.986,5.433 13.087,5.433 2.457,0 4.808,-0.482 6.971,-1.365 2.243,-0.91 4.247,-2.248 5.956,-3.907 1.923,-1.847 4.006,-3.239 6.276,-4.175 2.271,-0.937 4.728,-1.392 7.399,-1.392 h 0.053 c 3.392,0 6.517,0.776 9.241,2.221 2.724,1.472 5.101,3.64 6.997,6.45 2.671,3.988 6.304,7.28 10.577,9.555 4.14,2.195 8.814,3.453 13.781,3.453 8.12,0 15.438,-3.292 20.753,-8.618 5.315,-5.326 8.6,-12.66 8.6,-20.796 0,-8.136 -3.285,-15.4696 -8.6,-20.7956 -5.315,-5.326 -12.66,-8.618 -20.753,-8.618 -4.967,0 -9.668,1.2579 -13.781,3.4525 -4.273,2.275 -7.906,5.567 -10.577,9.5548 -1.869,2.8102 -4.246,4.9781 -6.997,6.4503 -2.724,1.445 -5.849,2.221 -9.241,2.221 h -0.053 c -2.671,0 -5.128,-0.482 -7.399,-1.392 -2.27,-0.9095 -4.38,-2.3012 -6.276,-4.1747 -1.709,-1.6594 -3.713,-2.9976 -5.956,-3.9075 -2.163,-0.8833 -4.514,-1.365 -6.971,-1.365 z m -9.268,9.2872 c 2.351,-2.3821 5.636,-3.8541 9.268,-3.8541 v -0.0535 c 1.763,0 3.419,0.3479 4.941,0.9635 1.576,0.6423 3.018,1.579 4.22,2.7571 2.404,2.355 5.075,4.148 7.986,5.326 2.911,1.204 6.063,1.793 9.428,1.793 h 0.053 c 4.247,0 8.253,-0.99 11.779,-2.864 3.525,-1.873 6.57,-4.63 8.947,-8.1898 2.19,-3.2652 5.154,-5.9683 8.627,-7.815 3.338,-1.7665 7.157,-2.7835 11.244,-2.7835 6.623,0 12.606,2.6764 16.933,7.0122 4.326,4.3357 6.997,10.3311 6.997,16.9681 0,6.638 -2.671,12.633 -6.997,16.969 -4.327,4.335 -10.336,7.012 -16.933,7.012 -4.087,0 -7.906,-0.99 -11.244,-2.784 -3.473,-1.873 -6.437,-4.55 -8.627,-7.815 -2.377,-3.559 -5.422,-6.316 -8.947,-8.19 -3.526,-1.873 -7.532,-2.863 -11.779,-2.863 h -0.053 c -3.365,0 -6.517,0.615 -9.428,1.793 -2.911,1.204 -5.582,2.971 -7.986,5.326 -1.202,1.151 -2.644,2.114 -4.22,2.757 -1.522,0.615 -3.178,0.963 -4.941,0.963 -3.605,0 -6.891,-1.472 -9.268,-3.854 -2.377,-2.355 -3.846,-5.674 -3.846,-9.287 0,-3.613 1.469,-6.905 3.846,-9.287 z"
       fill="white"
       id="path2"
       style="fill:#000000;fill-opacity:1" />
  </g>
  <defs
     id="defs2">
    <clipPath
       id="clip0_412_2103">
      <rect
         width="233.75"
         height="220"
         fill="#ffffff"
         id="rect2"
         x="0"
         y="0" />
    </clipPath>
  </defs>
</svg>
