<svg width="363" height="360" viewBox="0 0 363 360" fill="none" xmlns="http://www.w3.org/2000/svg">
<g clip-path="url(#clip0_3155_6865)">
<rect width="362.667" height="360" fill="url(#paint0_linear_3155_6865)"/>
<g style="mix-blend-mode:lighten" opacity="0.4">
<path d="M166.109 256.36C208.757 285.511 270.749 292.325 304.572 271.577C338.394 250.83 331.239 210.378 288.589 181.226C245.939 152.074 183.949 145.261 150.126 166.008C116.306 186.756 123.461 227.208 166.109 256.36Z" fill="url(#paint1_radial_3155_6865)"/>
</g>
<path opacity="0.6" d="M170.437 318.909L88.1084 272.773C82.2557 269.492 82.9889 263.763 89.747 259.974L168.794 215.678C175.552 211.89 185.778 211.48 191.631 214.758L273.961 260.894C279.814 264.175 279.081 269.904 272.323 273.693L193.276 317.989C186.516 321.777 176.289 322.189 170.437 318.909Z" fill="#0C0F38"/>
<path d="M180.232 331.711C175.674 331.711 171.315 330.818 168.063 328.995L71.0797 274.651C67.7647 272.792 65.9392 270.176 65.9392 267.284C65.9392 263.863 68.5168 260.458 73.0124 257.94L166.128 205.759C174.344 201.155 186.852 200.669 194.005 204.676L290.988 259.022C294.303 260.882 296.129 263.498 296.129 266.389C296.129 269.809 293.549 273.216 289.055 275.734L195.94 327.915C191.459 330.425 185.703 331.711 180.232 331.711ZM169.035 327.358C175.653 331.065 187.283 330.584 194.967 326.278L288.083 274.096C291.961 271.925 294.183 269.115 294.183 266.389C294.183 264.199 292.702 262.165 290.015 260.658L193.032 206.311C186.417 202.606 174.783 203.09 167.101 207.394L73.9851 259.575C70.1071 261.744 67.8845 264.554 67.8845 267.282C67.8845 269.472 69.3655 271.507 72.0524 273.014L169.035 327.358Z" fill="url(#paint2_linear_3155_6865)"/>
<path d="M277.913 220.036H237.083L191.631 194.567C185.778 191.286 175.552 191.698 168.794 195.486L124.983 220.038H84.1736V246.642H84.1862C84.0202 248.862 85.2954 251.005 88.1083 252.581L170.437 298.717C176.289 301.998 186.516 301.586 193.274 297.797L272.321 253.501C275.833 251.533 277.701 249.042 277.881 246.642H277.911L277.913 220.036Z" fill="url(#paint3_linear_3155_6865)"/>
<path d="M272.321 251.664L193.274 295.96C186.514 299.748 176.289 300.158 170.437 296.879L88.1063 250.744C85.2934 249.168 84.0183 247.025 84.1842 244.804H84.1717V246.637H84.1842C84.0183 248.858 85.2934 250.999 88.1063 252.577L170.437 298.713C176.289 301.993 186.516 301.581 193.274 297.793L272.321 253.497C275.833 251.529 277.703 249.037 277.881 246.637H277.911V244.804H277.881C277.703 247.206 275.833 249.696 272.321 251.664Z" fill="url(#paint4_linear_3155_6865)"/>
<path d="M86.7617 248.472H86.7491V221.87H127.558L171.369 197.319C178.13 193.53 188.354 193.121 194.207 196.399L239.658 221.868H277.911V220.033H237.083L191.631 194.564C185.778 191.284 175.552 191.695 168.794 195.484L124.983 220.035H84.1736V246.639H84.1862C84.0202 248.86 85.2954 251.001 88.1083 252.579L88.5726 252.838C87.2491 251.529 86.6462 250.022 86.7617 248.472Z" fill="white"/>
<path d="M275.594 222.168V248.64H275.564C275.461 250.002 274.798 251.388 273.617 252.695C276.291 250.876 277.726 248.723 277.884 246.637H277.913V220.306C277.073 220.838 276.285 221.442 275.594 222.168Z" fill="#6EE8FC"/>
<path d="M170.437 272.108L88.1084 225.973C82.2557 222.692 82.9889 216.963 89.747 213.174L168.794 168.878C175.552 165.09 185.778 164.68 191.631 167.958L273.961 214.094C279.814 217.375 279.081 223.104 272.323 226.892L193.276 271.189C186.516 274.977 176.289 275.389 170.437 272.108Z" fill="url(#paint5_linear_3155_6865)"/>
<path d="M273.962 214.098L191.631 167.962C188.6 166.264 184.394 165.562 180.106 165.801C183.224 165.982 186.146 166.694 188.409 167.962L270.739 214.098C276.592 217.378 275.859 223.108 269.098 226.896L190.051 271.193C186.793 273.018 182.73 274.051 178.739 274.274C183.682 274.563 189.129 273.515 193.274 271.193L272.321 226.896C279.081 223.108 279.814 217.376 273.962 214.098Z" fill="#6EE8FC"/>
<path d="M173.144 258.804L111.851 224.458C107.492 222.015 108.04 217.75 113.071 214.93L171.922 181.952C176.953 179.132 184.566 178.826 188.925 181.268L250.219 215.617C254.578 218.059 254.029 222.325 248.998 225.145L190.148 258.123C185.114 260.941 177.501 261.247 173.144 258.804Z" fill="url(#paint6_linear_3155_6865)"/>
<path d="M175.319 248.124L130.911 223.239C127.754 221.469 128.148 218.38 131.795 216.337L174.432 192.444C178.077 190.401 183.594 190.179 186.751 191.949L231.159 216.832C234.316 218.602 233.921 221.691 230.274 223.734L187.637 247.627C183.991 249.672 178.476 249.892 175.319 248.124Z" fill="#6DE0F6"/>
<path d="M174.13 272.108L91.8016 225.973C85.9489 222.692 86.682 216.963 93.4401 213.174L172.487 168.878C175.697 167.079 179.686 166.052 183.619 165.809C178.6 165.46 173.019 166.508 168.794 168.878L89.747 213.174C82.9868 216.963 82.2537 222.692 88.1063 225.973L170.437 272.108C173.51 273.831 177.791 274.526 182.142 274.257C179.134 274.049 176.323 273.34 174.13 272.108Z" fill="white"/>
<mask id="mask0_3155_6865" style="mask-type:luminance" maskUnits="userSpaceOnUse" x="128" y="190" width="106" height="60">
<path d="M175.319 248.124L130.911 223.239C127.754 221.469 128.148 218.38 131.795 216.337L174.432 192.444C178.077 190.401 183.594 190.179 186.751 191.949L231.159 216.832C234.316 218.602 233.921 221.691 230.274 223.734L187.637 247.627C183.991 249.672 178.476 249.892 175.319 248.124Z" fill="white"/>
</mask>
<g mask="url(#mask0_3155_6865)">
<path d="M131.777 219.703L174.43 195.802C178.077 193.759 183.596 193.537 186.753 195.307L231.178 220.201C231.877 220.594 232.375 221.059 232.73 221.555C233.797 219.866 233.337 218.043 231.178 216.832L186.753 191.939C183.596 190.169 178.077 190.391 174.43 192.434L131.777 216.335C128.938 217.925 128.098 220.144 129.34 221.885C129.833 221.104 130.621 220.349 131.777 219.703Z" fill="#267FE5"/>
</g>
<mask id="mask1_3155_6865" style="mask-type:luminance" maskUnits="userSpaceOnUse" x="128" y="190" width="106" height="60">
<path d="M175.319 248.124L130.911 223.239C127.754 221.469 128.148 218.38 131.795 216.337L174.432 192.444C178.077 190.401 183.594 190.179 186.751 191.949L231.159 216.832C234.316 218.602 233.921 221.691 230.274 223.734L187.637 247.627C183.991 249.672 178.476 249.892 175.319 248.124Z" fill="white"/>
</mask>
<g mask="url(#mask1_3155_6865)">
<path d="M131.777 223.762L174.43 199.862C178.077 197.819 183.596 197.596 186.753 199.366L231.178 224.26C231.734 224.572 232.14 224.933 232.478 225.314C233.888 223.524 233.505 221.503 231.178 220.198L186.753 195.305C183.596 193.535 178.077 193.757 174.43 195.8L131.777 219.701C128.77 221.385 128.012 223.771 129.592 225.553C130.096 224.912 130.817 224.301 131.777 223.762Z" fill="#25BFEC"/>
</g>
<mask id="mask2_3155_6865" style="mask-type:luminance" maskUnits="userSpaceOnUse" x="128" y="190" width="106" height="60">
<path d="M175.319 248.124L130.911 223.239C127.754 221.469 128.148 218.38 131.795 216.337L174.432 192.444C178.077 190.401 183.594 190.179 186.751 191.949L231.159 216.832C234.316 218.602 233.921 221.691 230.274 223.734L187.637 247.627C183.991 249.672 178.476 249.892 175.319 248.124Z" fill="white"/>
</mask>
<g mask="url(#mask2_3155_6865)">
<path d="M130.023 230.052C130.489 229.581 131.05 229.125 131.777 228.719L174.43 204.818C178.077 202.775 183.596 202.553 186.753 204.323L231.178 229.216C231.514 229.404 231.791 229.616 232.047 229.832C233.921 227.936 233.707 225.679 231.178 224.262L186.753 199.368C183.596 197.598 178.077 197.82 174.43 199.864L131.777 223.764C128.518 225.589 127.876 228.244 130.023 230.052Z" fill="#18D0F7"/>
</g>
<g style="mix-blend-mode:lighten" opacity="0.2">
<path d="M233.289 -44H128.779V220.253L128.785 220.257C128.791 221.375 129.487 222.441 130.909 223.24L175.317 248.124C178.474 249.894 183.988 249.672 187.635 247.628L230.272 223.736C232.163 222.676 233.171 221.334 233.272 220.041L233.289 220.031V-44Z" fill="url(#paint7_linear_3155_6865)"/>
</g>
<path d="M191.034 137.166C191.034 138.664 189.784 139.877 188.24 139.877C186.696 139.877 185.446 138.662 185.446 137.166C185.446 135.667 186.698 134.454 188.24 134.454C189.784 134.454 191.034 135.667 191.034 137.166Z" fill="#6DE0F6"/>
<path d="M173.571 120.597C174.663 120.597 175.548 119.738 175.548 118.678C175.548 117.619 174.663 116.76 173.571 116.76C172.479 116.76 171.594 117.619 171.594 118.678C171.594 119.738 172.479 120.597 173.571 120.597Z" fill="#6DE0F6"/>
<path d="M189.999 98.0687C189.999 100.509 187.961 102.487 185.448 102.487C182.934 102.487 180.896 100.509 180.896 98.0687C180.896 95.6301 182.934 93.6523 185.448 93.6523C187.961 93.6523 189.999 95.6301 189.999 98.0687Z" fill="#6DE0F6"/>
<path d="M174.671 64.9618C174.671 66.0506 173.762 66.9314 172.642 66.9314C171.522 66.9314 170.613 66.0506 170.613 64.9618C170.613 63.873 171.522 62.9922 172.642 62.9922C173.762 62.9922 174.671 63.873 174.671 64.9618Z" fill="#6DE0F6"/>
<path d="M189.999 158.285C191.119 158.285 192.028 157.403 192.028 156.315C192.028 155.228 191.119 154.346 189.999 154.346C188.878 154.346 187.969 155.228 187.969 156.315C187.969 157.403 188.878 158.285 189.999 158.285Z" fill="#6DE0F6"/>
<path d="M189.429 38.7939C189.429 39.5768 188.774 40.213 187.967 40.213C187.161 40.213 186.505 39.5768 186.505 38.7939C186.505 38.0089 187.161 37.3748 187.967 37.3748C188.776 37.3748 189.429 38.0109 189.429 38.7939Z" fill="#6DE0F6"/>
<path d="M173.46 20.9407C173.842 20.9407 174.153 20.6394 174.153 20.2678C174.153 19.8962 173.842 19.595 173.46 19.595C173.077 19.595 172.766 19.8962 172.766 20.2678C172.766 20.6394 173.077 20.9407 173.46 20.9407Z" fill="#6DE0F6"/>
<path d="M174.842 131.866C177.178 131.866 179.073 130.028 179.073 127.76C179.073 125.492 177.178 123.653 174.842 123.653C172.505 123.653 170.611 125.492 170.611 127.76C170.611 130.028 172.505 131.866 174.842 131.866Z" fill="#6DE0F6"/>
<path d="M174.671 77.8153C174.671 78.9041 173.762 79.785 172.642 79.785C171.522 79.785 170.613 78.9021 170.613 77.8153C170.613 76.7285 171.522 75.8457 172.642 75.8457C173.762 75.8457 174.671 76.7265 174.671 77.8153Z" fill="#6DE0F6"/>
<path d="M178.083 70.8935C178.083 71.334 177.716 71.6928 177.26 71.6928C176.806 71.6928 176.436 71.336 176.436 70.8935C176.436 70.4531 176.804 70.0942 177.26 70.0942C177.716 70.0942 178.083 70.4511 178.083 70.8935Z" fill="#6DE0F6"/>
<path d="M186.675 106.408C186.675 107.364 185.877 108.139 184.892 108.139C183.906 108.139 183.108 107.364 183.108 106.408C183.108 105.452 183.906 104.677 184.892 104.677C185.877 104.677 186.675 105.452 186.675 106.408Z" fill="#6DE0F6"/>
</g>
<defs>
<linearGradient id="paint0_linear_3155_6865" x1="181.333" y1="0" x2="181.333" y2="360" gradientUnits="userSpaceOnUse">
<stop stop-color="#1214FD"/>
<stop offset="1" stop-color="#040552"/>
</linearGradient>
<radialGradient id="paint1_radial_3155_6865" cx="0" cy="0" r="1" gradientUnits="userSpaceOnUse" gradientTransform="translate(227.349 218.793) rotate(148.475) scale(71.8442 85.3736)">
<stop offset="0.0108" stop-color="#6DE0F6"/>
<stop offset="1" stop-color="#13113D"/>
</radialGradient>
<linearGradient id="paint2_linear_3155_6865" x1="65.9392" y1="201.962" x2="221.983" y2="392.45" gradientUnits="userSpaceOnUse">
<stop stop-color="#7182BA"/>
<stop offset="1" stop-color="#9B7368"/>
</linearGradient>
<linearGradient id="paint3_linear_3155_6865" x1="84.1719" y1="192.352" x2="214.606" y2="352.494" gradientUnits="userSpaceOnUse">
<stop stop-color="#434DAE"/>
<stop offset="1" stop-color="#287EB0"/>
</linearGradient>
<linearGradient id="paint4_linear_3155_6865" x1="84.1699" y1="244.804" x2="133.408" y2="361.762" gradientUnits="userSpaceOnUse">
<stop stop-color="#7182BA"/>
<stop offset="1" stop-color="#9B7368"/>
</linearGradient>
<linearGradient id="paint5_linear_3155_6865" x1="84.1569" y1="165.745" x2="214.587" y2="325.897" gradientUnits="userSpaceOnUse">
<stop stop-color="#434DAE"/>
<stop offset="1" stop-color="#287EB0"/>
</linearGradient>
<linearGradient id="paint6_linear_3155_6865" x1="107.732" y1="220.037" x2="242.549" y2="254.408" gradientUnits="userSpaceOnUse">
<stop stop-color="#630692"/>
<stop offset="0.2262" stop-color="#5B0E94"/>
<stop offset="0.587" stop-color="#432399"/>
<stop offset="1" stop-color="#2142A1"/>
</linearGradient>
<linearGradient id="paint7_linear_3155_6865" x1="181.034" y1="249.318" x2="181.034" y2="-44.0008" gradientUnits="userSpaceOnUse">
<stop offset="0.0108" stop-color="#25BFEC"/>
<stop offset="0.0453" stop-color="#24B4E1"/>
<stop offset="0.2186" stop-color="#1F83B0"/>
<stop offset="0.3902" stop-color="#1B5A86"/>
<stop offset="0.5567" stop-color="#173A66"/>
<stop offset="0.7168" stop-color="#152350"/>
<stop offset="0.8678" stop-color="#131642"/>
<stop offset="1" stop-color="#13113D"/>
</linearGradient>
<clipPath id="clip0_3155_6865">
<rect width="362.667" height="360" fill="white"/>
</clipPath>
</defs>
</svg>
