<svg width="363" height="360" viewBox="0 0 363 360" fill="none" xmlns="http://www.w3.org/2000/svg">
<rect width="362.667" height="360" transform="translate(0.333374)" fill="url(#paint0_linear_3155_6984)"/>
<g style="mix-blend-mode:lighten" opacity="0.4">
<path d="M57.2301 257.518C99.8781 286.67 161.87 293.483 195.693 272.736C229.516 251.988 222.361 211.537 179.711 182.385C137.061 153.233 75.0703 146.419 41.2477 167.167C7.42704 187.914 14.5821 228.366 57.2301 257.518Z" fill="url(#paint1_radial_3155_6984)"/>
</g>
<path opacity="0.6" d="M245.038 248.269L212.259 229.901C209.928 228.595 210.222 226.314 212.913 224.807L244.385 207.17C247.076 205.662 251.147 205.498 253.477 206.804L286.255 225.173C288.587 226.479 288.293 228.76 285.602 230.267L254.13 247.904C251.439 249.412 247.368 249.575 245.038 248.269Z" fill="#0C0F38"/>
<path d="M248.937 253.368C247.122 253.368 245.388 253.013 244.095 252.287L205.481 230.65C204.161 229.909 203.434 228.867 203.434 227.715C203.434 226.353 204.461 224.998 206.251 223.994L243.325 203.22C246.598 201.387 251.574 201.192 254.422 202.791L293.035 224.428C294.356 225.169 295.083 226.21 295.083 227.361C295.081 228.723 294.056 230.078 292.266 231.081L255.192 251.855C253.405 252.853 251.114 253.368 248.937 253.368ZM249.577 202.447C247.542 202.447 245.39 202.93 243.71 203.872L206.635 224.645C205.093 225.51 204.207 226.631 204.207 227.715C204.207 228.588 204.797 229.396 205.866 229.997L244.479 251.634C247.112 253.111 251.743 252.921 254.803 251.202L291.877 230.428C293.42 229.563 294.306 228.443 294.306 227.359C294.306 226.486 293.716 225.677 292.647 225.077L254.034 203.44C252.845 202.774 251.25 202.447 249.577 202.447Z" fill="url(#paint2_linear_3155_6984)"/>
<path d="M287.829 145.742H271.572L253.477 135.602C251.147 134.296 247.076 134.459 244.385 135.968L226.941 145.742H210.693V191.395H210.699C210.634 192.279 211.14 193.133 212.261 193.76L245.04 212.128C247.37 213.434 251.441 213.271 254.132 211.762L285.604 194.125C287.002 193.341 287.746 192.35 287.818 191.395H287.829V145.742Z" fill="url(#paint3_linear_3155_6984)"/>
<path d="M285.602 193.397L254.13 211.034C251.439 212.542 247.368 212.705 245.038 211.399L212.259 193.031C211.14 192.405 210.632 191.551 210.697 190.667H210.692V191.397H210.697C210.632 192.281 211.138 193.134 212.259 193.761L245.038 212.129C247.368 213.435 251.439 213.272 254.13 211.763L285.602 194.127C287 193.343 287.744 192.352 287.816 191.397H287.827V190.667H287.816C287.744 191.622 287 192.613 285.602 193.397Z" fill="url(#paint4_linear_3155_6984)"/>
<path d="M211.722 192.127H211.716V146.474H227.963L245.407 136.7C248.099 135.191 252.17 135.028 254.5 136.334L272.595 146.474H287.825V145.744H271.568L253.473 135.604C251.143 134.298 247.072 134.461 244.381 135.97L226.937 145.744H210.69V191.397H210.695C210.63 192.281 211.136 193.135 212.258 193.761L212.441 193.865C211.917 193.343 211.676 192.744 211.722 192.127Z" fill="white"/>
<path d="M286.905 146.592V192.192H286.894C286.853 192.735 286.588 193.286 286.118 193.808C287.184 193.084 287.754 192.226 287.818 191.397H287.829V145.853C287.495 146.063 287.18 146.303 286.905 146.592Z" fill="#6EE8FC"/>
<path d="M245.038 166.476L212.259 148.108C209.928 146.802 210.222 144.521 212.913 143.014L244.385 125.377C247.076 123.869 251.147 123.706 253.477 125.011L286.255 143.38C288.587 144.686 288.293 146.967 285.602 148.474L254.13 166.111C251.439 167.617 247.368 167.782 245.038 166.476Z" fill="url(#paint5_linear_3155_6984)"/>
<path d="M286.255 143.379L253.477 125.011C252.27 124.336 250.596 124.056 248.889 124.15C250.13 124.223 251.294 124.505 252.195 125.011L284.974 143.379C287.305 144.685 287.011 146.967 284.32 148.474L252.848 166.11C251.551 166.836 249.933 167.249 248.344 167.337C250.312 167.452 252.481 167.035 254.13 166.11L285.602 148.474C288.293 146.965 288.585 144.685 286.255 143.379Z" fill="#6EE8FC"/>
<path d="M246.115 161.18L221.711 147.504C219.977 146.532 220.194 144.834 222.196 143.71L245.628 130.581C247.631 129.459 250.662 129.337 252.398 130.309L276.802 143.984C278.538 144.956 278.319 146.654 276.317 147.778L252.885 160.907C250.882 162.03 247.851 162.151 246.115 161.18Z" fill="url(#paint6_linear_3155_6984)"/>
<path d="M246.981 156.925L229.301 147.018C228.045 146.314 228.201 145.083 229.653 144.269L246.629 134.757C248.081 133.943 250.277 133.855 251.534 134.56L269.214 144.468C270.47 145.171 270.314 146.402 268.862 147.217L251.886 156.73C250.434 157.542 248.238 157.631 246.981 156.925Z" fill="#6DE0F6"/>
<path d="M246.507 166.476L213.729 148.108C211.397 146.802 211.691 144.52 214.382 143.014L245.854 125.377C247.132 124.66 248.719 124.251 250.285 124.156C248.286 124.017 246.065 124.433 244.383 125.377L212.911 143.014C210.22 144.522 209.928 146.802 212.257 148.108L245.036 166.476C246.26 167.163 247.965 167.439 249.697 167.332C248.499 167.248 247.381 166.966 246.507 166.476Z" fill="white"/>
<mask id="mask0_3155_6984" style="mask-type:luminance" maskUnits="userSpaceOnUse" x="228" y="134" width="43" height="24">
<path d="M246.981 156.925L229.301 147.018C228.045 146.314 228.201 145.083 229.653 144.269L246.629 134.757C248.081 133.943 250.277 133.855 251.534 134.56L269.214 144.468C270.47 145.171 270.314 146.402 268.862 147.217L251.886 156.73C250.434 157.542 248.238 157.631 246.981 156.925Z" fill="white"/>
</mask>
<g mask="url(#mask0_3155_6984)">
<path d="M229.645 145.61L246.627 136.093C248.079 135.279 250.275 135.191 251.534 135.896L269.221 145.807C269.5 145.963 269.699 146.149 269.84 146.346C270.265 145.674 270.082 144.948 269.221 144.466L251.534 134.555C250.277 133.851 248.079 133.939 246.627 134.752L229.645 144.269C228.516 144.901 228.18 145.785 228.675 146.479C228.87 146.168 229.185 145.868 229.645 145.61Z" fill="#267FE5"/>
</g>
<mask id="mask1_3155_6984" style="mask-type:luminance" maskUnits="userSpaceOnUse" x="228" y="134" width="43" height="24">
<path d="M246.981 156.925L229.301 147.018C228.045 146.314 228.201 145.083 229.653 144.269L246.629 134.757C248.081 133.943 250.277 133.855 251.534 134.56L269.214 144.468C270.47 145.171 270.314 146.402 268.862 147.217L251.886 156.73C250.434 157.542 248.238 157.631 246.981 156.925Z" fill="white"/>
</mask>
<g mask="url(#mask1_3155_6984)">
<path d="M229.645 147.226L246.627 137.709C248.079 136.895 250.275 136.807 251.534 137.512L269.221 147.423C269.442 147.547 269.604 147.692 269.739 147.844C270.3 147.131 270.149 146.326 269.221 145.808L251.534 135.896C250.277 135.191 248.079 135.281 246.627 136.094L229.645 145.611C228.449 146.281 228.147 147.23 228.775 147.941C228.976 147.684 229.263 147.44 229.645 147.226Z" fill="#25BFEC"/>
</g>
<mask id="mask2_3155_6984" style="mask-type:luminance" maskUnits="userSpaceOnUse" x="228" y="134" width="43" height="24">
<path d="M246.981 156.925L229.301 147.018C228.045 146.314 228.201 145.083 229.653 144.269L246.629 134.757C248.081 133.943 250.277 133.855 251.534 134.56L269.214 144.468C270.47 145.171 270.314 146.402 268.862 147.217L251.886 156.73C250.434 157.542 248.238 157.631 246.981 156.925Z" fill="white"/>
</mask>
<g mask="url(#mask2_3155_6984)">
<path d="M228.948 149.731C229.133 149.544 229.357 149.362 229.646 149.2L246.627 139.683C248.079 138.869 250.275 138.78 251.534 139.486L269.222 149.397C269.355 149.472 269.465 149.557 269.568 149.643C270.314 148.889 270.229 147.99 269.222 147.425L251.534 137.514C250.277 136.808 248.079 136.898 246.627 137.711L229.646 147.228C228.348 147.954 228.091 149.011 228.948 149.731Z" fill="#18D0F7"/>
</g>
<path d="M260.558 200.111L258.741 201.129C258.273 201.392 257.894 201.113 257.894 200.508V175.871C257.894 175.265 258.273 174.561 258.741 174.301L260.558 173.282C261.026 173.019 261.405 173.299 261.405 173.903V198.54C261.407 199.144 261.026 199.848 260.558 200.111Z" fill="#6DE0F6"/>
<path d="M260.558 173.28L260.123 173.524V197.717C260.123 198.323 259.745 199.026 259.277 199.287L257.894 200.062V200.507C257.894 201.113 258.273 201.391 258.741 201.128L260.558 200.109C261.026 199.846 261.405 199.143 261.405 198.539V173.901C261.407 173.295 261.026 173.018 260.558 173.28Z" fill="#267FE5"/>
<path d="M267.257 196.356L265.44 197.375C264.972 197.638 264.593 197.358 264.593 196.754V172.116C264.593 171.51 264.972 170.807 265.44 170.546L267.257 169.527C267.725 169.264 268.104 169.544 268.104 170.148V194.785C268.104 195.391 267.725 196.095 267.257 196.356Z" fill="#6DE0F6"/>
<path d="M273.954 192.603L272.137 193.622C271.669 193.885 271.29 193.605 271.29 193.001V168.364C271.29 167.758 271.669 167.056 272.137 166.793L273.954 165.774C274.422 165.512 274.801 165.791 274.801 166.395V191.033C274.801 191.639 274.422 192.341 273.954 192.603Z" fill="#6DE0F6"/>
<path d="M280.653 188.85L278.836 189.869C278.368 190.132 277.989 189.852 277.989 189.248V164.611C277.989 164.005 278.368 163.301 278.836 163.04L280.653 162.021C281.121 161.759 281.5 162.038 281.5 162.642V187.28C281.5 187.884 281.121 188.588 280.653 188.85Z" fill="#6DE0F6"/>
<path d="M267.257 169.527L266.822 169.771V193.964C266.822 194.57 266.443 195.274 265.975 195.534L264.593 196.309V196.754C264.593 197.36 264.972 197.638 265.44 197.375L267.257 196.356C267.725 196.094 268.104 195.39 268.104 194.786V170.148C268.104 169.542 267.725 169.265 267.257 169.527Z" fill="#267FE5"/>
<path d="M273.954 165.773L273.519 166.016V190.209C273.519 190.815 273.14 191.519 272.672 191.78L271.29 192.555V192.999C271.29 193.605 271.669 193.883 272.137 193.62L273.954 192.601C274.422 192.339 274.801 191.635 274.801 191.031V166.394C274.801 165.789 274.422 165.512 273.954 165.773Z" fill="#267FE5"/>
<path d="M280.651 162.02L280.216 162.264V186.456C280.216 187.062 279.837 187.766 279.369 188.027L277.987 188.802V189.246C277.987 189.852 278.366 190.13 278.834 189.867L280.651 188.849C281.119 188.586 281.498 187.882 281.498 187.278V162.641C281.5 162.037 281.121 161.759 280.651 162.02Z" fill="#267FE5"/>
<path d="M242.333 203.134C242.121 203.134 241.895 203.07 241.666 202.943L217.994 189.678C217.172 189.217 216.53 188.034 216.53 186.984V160.915C216.53 160.318 216.749 159.853 217.127 159.641C217.458 159.453 217.864 159.477 218.272 159.706L241.945 172.973C242.766 173.432 243.41 174.616 243.41 175.665V201.736C243.41 202.333 243.192 202.798 242.813 203.012C242.666 203.095 242.504 203.134 242.333 203.134ZM217.609 160.057C217.539 160.057 217.47 160.072 217.406 160.108C217.207 160.22 217.089 160.522 217.089 160.915V186.984C217.089 187.83 217.632 188.849 218.274 189.209L241.947 202.473C242.109 202.564 242.343 202.654 242.536 202.541C242.737 202.43 242.855 202.128 242.855 201.734V175.663C242.855 174.819 242.312 173.8 241.67 173.44L217.997 160.173C217.887 160.117 217.746 160.057 217.609 160.057Z" fill="#480689"/>
<path d="M221.16 166.024C221.16 166.737 220.644 167.026 220.008 166.67C219.372 166.313 218.856 165.446 218.856 164.733C218.856 164.02 219.372 163.731 220.008 164.088C220.644 164.444 221.16 165.311 221.16 166.024Z" fill="#6DE0F6"/>
<path d="M221.16 169.652C221.16 170.365 220.644 170.654 220.008 170.297C219.372 169.941 218.856 169.074 218.856 168.361C218.856 167.648 219.372 167.359 220.008 167.715C220.644 168.072 221.16 168.939 221.16 169.652Z" fill="#6DE0F6"/>
<path d="M221.16 173.28C221.16 173.993 220.644 174.282 220.008 173.926C219.372 173.569 218.856 172.702 218.856 171.989C218.856 171.276 219.372 170.987 220.008 171.344C220.644 171.699 221.16 172.567 221.16 173.28Z" fill="#6DE0F6"/>
<path d="M220.584 173.483C219.948 173.126 219.432 172.26 219.432 171.547C219.432 171.413 219.455 171.299 219.49 171.198C219.115 171.201 218.856 171.486 218.856 171.989C218.856 172.702 219.372 173.569 220.008 173.926C220.524 174.215 220.957 174.074 221.102 173.629C220.946 173.631 220.772 173.588 220.584 173.483Z" fill="#267FE5"/>
<path d="M220.584 169.852C219.948 169.496 219.432 168.629 219.432 167.916C219.432 167.782 219.455 167.668 219.49 167.565C219.115 167.568 218.856 167.854 218.856 168.357C218.856 169.07 219.372 169.936 220.008 170.293C220.524 170.582 220.957 170.441 221.102 169.997C220.946 170 220.772 169.957 220.584 169.852Z" fill="#267FE5"/>
<path d="M220.584 166.223C219.948 165.867 219.432 165 219.432 164.287C219.432 164.154 219.455 164.039 219.49 163.936C219.115 163.94 218.856 164.225 218.856 164.728C218.856 165.441 219.372 166.308 220.008 166.664C220.524 166.953 220.957 166.813 221.102 166.368C220.946 166.372 220.772 166.328 220.584 166.223Z" fill="#267FE5"/>
<path d="M240.201 190.119L239.437 189.691C239.202 189.558 239.008 189.201 239.008 188.896V185.34C239.008 185.034 239.2 184.891 239.437 185.025L240.201 185.452C240.439 185.586 240.63 185.942 240.63 186.248V189.804C240.63 190.112 240.437 190.252 240.201 190.119Z" fill="#480689"/>
<g style="mix-blend-mode:lighten" opacity="0.2">
<path d="M270.062 59.8042H228.484V145.838L228.485 145.84C228.487 146.284 228.764 146.708 229.33 147.025L246.997 156.925C248.253 157.629 250.447 157.541 251.897 156.728L268.86 147.222C269.612 146.8 270.014 146.267 270.053 145.753L270.059 145.749V59.8042H270.062Z" fill="url(#paint7_linear_3155_6984)"/>
</g>
<g style="mix-blend-mode:lighten" opacity="0.25">
<path d="M268.087 68.0081H230.455V145.872L230.457 145.874C230.459 146.275 230.711 146.66 231.223 146.947L247.213 155.907C248.35 156.545 250.335 156.464 251.648 155.728L267 147.125C267.681 146.744 268.044 146.26 268.081 145.795L268.087 145.791V68.0081Z" fill="url(#paint8_linear_3155_6984)"/>
</g>
<path d="M240.957 138.629C240.957 139.458 240.265 140.132 239.408 140.132C238.552 140.132 237.86 139.46 237.86 138.629C237.86 137.799 238.552 137.127 239.408 137.127C240.265 137.127 240.957 137.799 240.957 138.629Z" fill="#6DE0F6"/>
<path d="M253.724 128.551C253.724 129.967 252.541 131.118 251.079 131.118C249.62 131.118 248.435 129.969 248.435 128.551C248.435 127.134 249.618 125.984 251.079 125.984C252.541 125.986 253.724 127.134 253.724 128.551Z" fill="#6DE0F6"/>
<path d="M247.824 127.575C248.198 127.575 248.502 127.28 248.502 126.916C248.502 126.552 248.198 126.258 247.824 126.258C247.449 126.258 247.145 126.552 247.145 126.916C247.145 127.28 247.449 127.575 247.824 127.575Z" fill="#6DE0F6"/>
<path d="M260.69 114.029C260.69 114.738 260.098 115.313 259.368 115.313C258.637 115.313 258.045 114.738 258.045 114.029C258.045 113.32 258.637 112.746 259.368 112.746C260.098 112.746 260.69 113.322 260.69 114.029Z" fill="#6DE0F6"/>
<path d="M253.337 103.138C253.337 103.639 252.92 104.047 252.402 104.047C251.884 104.047 251.466 103.641 251.466 103.138C251.466 102.637 251.884 102.23 252.402 102.23C252.92 102.23 253.337 102.637 253.337 103.138Z" fill="#6DE0F6"/>
<path d="M242.65 96.1901C242.65 97.0983 241.892 97.8339 240.957 97.8339C240.021 97.8339 239.263 97.0983 239.263 96.1901C239.263 95.282 240.021 94.5464 240.957 94.5464C241.892 94.5464 242.65 95.282 242.65 96.1901Z" fill="#6DE0F6"/>
<path d="M253.724 84.5485C253.724 86.3836 252.191 87.8716 250.3 87.8716C248.41 87.8716 246.877 86.3836 246.877 84.5485C246.877 82.7133 248.41 81.2253 250.3 81.2253C252.191 81.2235 253.724 82.7115 253.724 84.5485Z" fill="#6DE0F6"/>
<path d="M246.869 82.4357C246.869 82.9424 246.445 83.3514 245.925 83.3514C245.403 83.3514 244.982 82.9405 244.982 82.4357C244.982 81.9291 245.405 81.52 245.925 81.52C246.445 81.52 246.869 81.9291 246.869 82.4357Z" fill="#6DE0F6"/>
<path d="M254.171 88.5379C254.171 89.1346 253.674 89.6168 253.059 89.6168C252.444 89.6168 251.948 89.1327 251.948 88.5379C251.948 87.9412 252.446 87.459 253.059 87.459C253.672 87.459 254.171 87.9431 254.171 88.5379Z" fill="#6DE0F6"/>
<path d="M254.998 86.2841C254.998 86.5731 254.758 86.8057 254.461 86.8057C254.163 86.8057 253.923 86.5731 253.923 86.2841C253.923 85.997 254.163 85.7625 254.461 85.7625C254.758 85.7625 254.998 85.997 254.998 86.2841Z" fill="#6DE0F6"/>
<path d="M260.429 76.5739C261.287 76.5739 261.983 75.8985 261.983 75.0653C261.983 74.2321 261.287 73.5566 260.429 73.5566C259.57 73.5566 258.874 74.2321 258.874 75.0653C258.874 75.8985 259.57 76.5739 260.429 76.5739Z" fill="#6DE0F6"/>
<g style="mix-blend-mode:lighten" opacity="0.4">
<path d="M301.266 316.348C254.954 328.533 198.331 315.057 174.793 286.25C151.255 257.444 169.716 224.212 216.028 212.027C262.339 199.842 318.963 213.318 342.501 242.125C366.038 270.931 347.576 304.163 301.266 316.348Z" fill="url(#paint9_radial_3155_6984)"/>
</g>
<path opacity="0.6" d="M171.95 320.112C201.823 320.112 226.04 306.541 226.04 289.802C226.04 273.062 201.823 259.492 171.95 259.492C142.078 259.492 117.861 273.062 117.861 289.802C117.861 306.541 142.078 320.112 171.95 320.112Z" fill="#0C0F38"/>
<path d="M171.952 328.248C154.474 328.248 136.995 324.521 123.688 317.064C110.722 309.799 103.584 300.116 103.584 289.802C103.584 279.487 110.724 269.807 123.688 262.541C150.298 247.629 193.597 247.629 220.213 262.541C233.177 269.807 240.317 279.489 240.317 289.804C240.317 300.118 233.177 309.799 220.213 317.064C206.908 324.521 189.429 328.248 171.952 328.248ZM171.947 252.097C154.609 252.097 137.271 255.796 124.073 263.192C111.358 270.315 104.357 279.765 104.355 289.802C104.355 299.837 111.358 309.288 124.073 316.413C150.476 331.209 193.427 331.211 219.822 316.413C232.537 309.29 239.538 299.841 239.54 289.804C239.54 279.769 232.537 270.317 219.822 263.192C206.624 255.796 189.286 252.097 171.947 252.097Z" fill="url(#paint10_linear_3155_6984)"/>
<path d="M232.692 237.127L232.707 237.129L215.134 211.137L210.096 221.904C187.181 212.906 156.482 212.935 133.612 221.983L128.769 211.137L109.355 239.657L109.374 239.651C100.763 252.872 105.906 268.272 124.836 278.879C150.858 293.461 193.046 293.461 219.066 278.879C239.213 267.591 243.746 250.87 232.692 237.127Z" fill="url(#paint11_linear_3155_6984)"/>
<path d="M134.545 221.977C145.809 217.521 158.968 215.265 172.165 215.184C158.967 215.162 145.77 217.337 134.418 221.69L134.545 221.977Z" fill="white"/>
<path d="M211.03 221.898L215.683 211.953L215.132 211.139L210.231 221.611C210.494 221.711 210.769 221.795 211.03 221.898Z" fill="white"/>
<path d="M125.77 278.874C106.84 268.266 101.697 252.867 110.308 239.645L110.289 239.651L129.136 211.965L128.767 211.139L109.353 239.659L109.372 239.653C100.761 252.874 105.904 268.274 124.835 278.881C137.996 286.257 155.293 289.886 172.544 289.802C155.606 289.753 138.694 286.117 125.77 278.874Z" fill="white"/>
<path d="M209.003 221.904L209.16 221.566C197.758 217.249 184.528 215.117 171.314 215.186C184.522 215.239 197.707 217.47 209.003 221.904Z" fill="#6EE8FC"/>
<path d="M132.519 221.983C132.827 221.861 133.15 221.759 133.459 221.641L129.036 211.732L128.398 212.749L132.519 221.983Z" fill="#6EE8FC"/>
<path d="M232.692 237.127L232.707 237.129L215.134 211.137L214.687 212.09L231.617 237.127L231.601 237.125C242.658 250.868 238.124 267.589 217.976 278.879C205.104 286.092 188.277 289.723 171.407 289.8C188.64 289.879 205.918 286.248 219.068 278.879C239.213 267.591 243.746 250.87 232.692 237.127Z" fill="#6EE8FC"/>
<path d="M203.873 236.42C186.243 246.299 157.658 246.299 140.028 236.42C122.399 226.54 122.397 210.523 140.026 200.644C157.656 190.765 186.241 190.765 203.871 200.644C221.502 210.523 221.502 226.54 203.873 236.42Z" fill="url(#paint12_linear_3155_6984)"/>
<path d="M192.056 229.798C180.952 236.02 162.949 236.02 151.844 229.798C140.74 223.576 140.74 213.486 151.844 207.264C162.949 201.042 180.952 201.042 192.056 207.264C203.161 213.488 203.161 223.576 192.056 229.798Z" fill="url(#paint13_linear_3155_6984)"/>
<path d="M192.056 229.798C180.952 236.02 162.949 236.02 151.844 229.798C140.74 223.576 140.74 213.486 151.844 207.264C162.949 201.042 180.952 201.042 192.056 207.264C203.161 213.488 203.161 223.576 192.056 229.798Z" fill="#6DE0F6"/>
<path d="M151.843 215.804C162.947 209.581 180.95 209.581 192.055 215.804C195.649 217.817 198.061 220.239 199.328 222.801C201.976 217.447 199.565 211.473 192.055 207.264C180.95 201.042 162.947 201.042 151.843 207.264C144.332 211.473 141.921 217.447 144.57 222.801C145.838 220.239 148.249 217.819 151.843 215.804Z" fill="#18D0F7"/>
<path d="M151.843 212.788C162.947 206.566 180.95 206.566 192.055 212.788C196.348 215.194 198.962 218.179 199.935 221.294C201.479 216.352 198.866 211.083 192.055 207.264C180.95 201.042 162.947 201.042 151.843 207.264C145.032 211.081 142.418 216.352 143.963 221.292C144.937 218.179 147.551 215.194 151.843 212.788Z" fill="#25BFEC"/>
<path d="M151.842 210.101C162.947 203.879 180.95 203.879 192.054 210.101C196.963 212.852 199.693 216.357 200.263 219.95C200.982 215.413 198.252 210.737 192.054 207.264C180.95 201.042 162.947 201.042 151.842 207.264C145.646 210.735 142.916 215.413 143.636 219.949C144.206 216.357 146.936 212.852 151.842 210.101Z" fill="#267FE5"/>
<path d="M140.786 201.55C158.415 191.671 187.001 191.671 204.63 201.55C207.921 203.395 210.594 205.453 212.657 207.645C210.504 205.116 207.608 202.736 203.871 200.642C186.241 190.763 157.656 190.763 140.026 200.642C125.687 208.677 123.013 220.772 132.001 230.325C123.997 220.924 126.891 209.336 140.786 201.55Z" fill="white"/>
<path d="M203.871 200.644C203.61 200.498 203.323 200.374 203.057 200.231C220.228 210.129 220.1 225.946 202.624 235.739C185.255 245.472 157.277 245.595 139.593 236.149C139.744 236.236 139.873 236.332 140.026 236.418C157.656 246.297 186.241 246.297 203.871 236.418C221.502 226.54 221.502 210.523 203.871 200.644Z" fill="#6EE8FC"/>
<path d="M216.657 191.799V177.686H208.781C207.269 176.459 205.574 175.282 203.627 174.192C186.251 164.455 158.079 164.455 140.703 174.192C138.754 175.284 137.059 176.461 135.547 177.688H127.671V191.823C127.671 198.205 132.015 204.584 140.703 209.454C158.079 219.19 186.253 219.19 203.627 209.454C212.325 204.577 216.667 198.188 216.657 191.799Z" fill="url(#paint14_linear_3155_6984)"/>
<path d="M128.081 191.455V177.686H127.671V191.821C127.671 197.533 131.18 203.237 138.141 207.865C131.442 203.052 128.081 197.255 128.081 191.455Z" fill="white"/>
<path d="M215.956 177.684V191.342C215.967 197.732 211.623 204.121 202.925 208.996C185.549 218.732 157.377 218.732 140.001 208.996C139.118 208.5 138.31 207.979 137.515 207.453C138.507 208.142 139.562 208.81 140.703 209.448C158.079 219.185 186.253 219.185 203.627 209.448C212.325 204.573 216.667 198.184 216.657 191.795V177.682H215.956V177.684Z" fill="#6EE8FC"/>
<path d="M172.165 202.62C196.739 202.62 216.659 191.457 216.659 177.686C216.659 163.916 196.739 152.752 172.165 152.752C147.592 152.752 127.671 163.916 127.671 177.686C127.671 191.457 147.592 202.62 172.165 202.62Z" fill="url(#paint15_linear_3155_6984)"/>
<path d="M141.903 160.313C150.729 155.366 162.259 152.869 173.826 152.796C161.89 152.546 149.812 154.948 140.701 160.054C127.164 167.64 124.054 179.037 131.781 188.097C125.128 178.827 128.498 167.824 141.903 160.313Z" fill="white"/>
<path d="M203.627 160.055C199.01 157.468 193.622 155.59 187.886 154.377C193.037 155.593 197.87 157.363 202.065 159.714C219.441 169.451 219.441 185.239 202.065 194.975C189.305 202.127 170.734 204.005 154.88 200.652C171.059 204.47 190.444 202.701 203.625 195.315C221.003 185.578 221.003 169.792 203.627 160.055Z" fill="#6EE8FC"/>
<path d="M192.056 188.952C180.952 195.174 162.949 195.174 151.844 188.952C140.74 182.73 140.74 172.64 151.844 166.418C162.949 160.196 180.952 160.196 192.056 166.418C203.161 172.64 203.161 182.73 192.056 188.952Z" fill="#6DE0F6"/>
<path d="M151.843 174.958C162.947 168.735 180.95 168.735 192.055 174.958C195.649 176.971 198.061 179.393 199.328 181.955C201.976 176.601 199.565 170.627 192.055 166.418C180.95 160.196 162.947 160.196 151.843 166.418C144.332 170.627 141.921 176.601 144.57 181.955C145.838 179.393 148.249 176.973 151.843 174.958Z" fill="#18D0F7"/>
<path d="M151.843 171.942C162.947 165.72 180.95 165.72 192.055 171.942C196.348 174.348 198.962 177.333 199.935 180.448C201.479 175.506 198.866 170.237 192.055 166.418C180.95 160.196 162.947 160.196 151.843 166.418C145.032 170.235 142.418 175.506 143.963 180.446C144.937 177.331 147.551 174.348 151.843 171.942Z" fill="#25BFEC"/>
<path d="M151.842 169.255C162.947 163.033 180.95 163.033 192.054 169.255C196.963 172.006 199.693 175.511 200.263 179.104C200.982 174.567 198.252 169.891 192.054 166.418C180.95 160.196 162.947 160.196 151.842 166.418C145.646 169.889 142.916 174.567 143.636 179.103C144.206 175.511 146.936 172.006 151.842 169.255Z" fill="#267FE5"/>
<path d="M216.657 160.254V146.142H208.781C207.269 144.914 205.574 143.738 203.627 142.648C186.251 132.911 158.079 132.911 140.703 142.648C138.754 143.74 137.059 144.916 135.547 146.144H127.671V160.279C127.671 166.66 132.015 173.04 140.703 177.909C158.079 187.646 186.253 187.646 203.627 177.909C212.325 173.032 216.667 166.641 216.657 160.254Z" fill="url(#paint16_linear_3155_6984)"/>
<path d="M128.081 159.909V146.14H127.671V160.275C127.671 165.987 131.18 171.691 138.141 176.318C131.442 171.507 128.081 165.711 128.081 159.909Z" fill="white"/>
<path d="M215.956 146.14V159.798C215.967 166.187 211.623 172.576 202.925 177.451C185.549 187.188 157.377 187.188 140.001 177.451C139.118 176.956 138.31 176.434 137.515 175.909C138.507 176.598 139.562 177.265 140.703 177.903C158.079 187.64 186.253 187.64 203.627 177.903C212.325 173.029 216.667 166.639 216.657 160.25V146.138H215.956V146.14Z" fill="#6EE8FC"/>
<path d="M172.165 171.074C196.739 171.074 216.659 159.91 216.659 146.14C216.659 132.369 196.739 121.206 172.165 121.206C147.592 121.206 127.671 132.369 127.671 146.14C127.671 159.91 147.592 171.074 172.165 171.074Z" fill="url(#paint17_linear_3155_6984)"/>
<path d="M141.903 128.768C150.729 123.822 162.259 121.324 173.826 121.251C161.89 121.002 149.812 123.404 140.701 128.509C127.164 136.096 124.054 147.493 131.781 156.552C125.128 147.283 128.498 136.279 141.903 128.768Z" fill="white"/>
<path d="M203.627 128.511C199.01 125.923 193.622 124.045 187.886 122.833C193.037 124.049 197.87 125.818 202.065 128.17C219.441 137.906 219.441 153.694 202.065 163.431C189.305 170.582 170.734 172.46 154.88 169.107C171.059 172.928 190.444 171.156 203.625 163.771C221.003 154.034 221.003 138.248 203.627 128.511Z" fill="#6EE8FC"/>
<path d="M192.056 157.408C180.952 163.63 162.949 163.63 151.844 157.408C140.74 151.186 140.74 141.096 151.844 134.874C162.949 128.652 180.952 128.652 192.056 134.874C203.161 141.096 203.161 151.186 192.056 157.408Z" fill="#6DE0F6"/>
<path d="M151.843 143.414C162.947 137.192 180.95 137.192 192.055 143.414C195.649 145.427 198.061 147.85 199.328 150.411C201.976 145.057 199.565 139.083 192.055 134.874C180.95 128.652 162.947 128.652 151.843 134.874C144.332 139.083 141.921 145.057 144.57 150.411C145.838 147.85 148.249 145.427 151.843 143.414Z" fill="#18D0F7"/>
<path d="M151.843 140.398C162.947 134.176 180.95 134.176 192.055 140.398C196.348 142.804 198.962 145.789 199.935 148.904C201.479 143.962 198.866 138.693 192.055 134.874C180.95 128.652 162.947 128.652 151.843 134.874C145.032 138.691 142.418 143.962 143.963 148.902C144.937 145.787 147.551 142.804 151.843 140.398Z" fill="#25BFEC"/>
<path d="M151.842 137.711C162.947 131.489 180.95 131.489 192.054 137.711C196.963 140.462 199.693 143.967 200.263 147.561C200.982 143.023 198.252 138.347 192.054 134.874C180.95 128.652 162.947 128.652 151.842 134.874C145.646 138.346 142.916 143.023 143.636 147.559C144.206 143.967 146.936 140.46 151.842 137.711Z" fill="#267FE5"/>
<g style="mix-blend-mode:lighten" opacity="0.25">
<path d="M200.356 69.4285H143.763V145.555H143.777C143.452 149.836 146.203 154.178 152.038 157.449C163.09 163.643 181.012 163.643 192.066 157.449C197.901 154.178 200.652 149.836 200.327 145.555H200.356V69.4285Z" fill="url(#paint18_linear_3155_6984)"/>
</g>
<g style="mix-blend-mode:lighten" opacity="0.25">
<path d="M196.087 20H148.03V143.646H148.042C147.765 147.283 150.102 150.97 155.057 153.747C164.443 159.006 179.662 159.006 189.05 153.747C194.005 150.97 196.342 147.283 196.066 143.646H196.091V20H196.087Z" fill="url(#paint19_linear_3155_6984)"/>
</g>
<path d="M140.732 89.7721C138.882 89.273 136.966 90.3237 136.452 92.1195C135.937 93.9152 137.02 95.7747 138.868 96.2739C140.718 96.773 142.634 95.7222 143.148 93.9283C143.663 92.1326 142.582 90.2731 140.732 89.7721Z" fill="#6EE8FC"/>
<path opacity="0.8" d="M154.644 95.711C152.931 94.8703 150.839 95.5383 149.973 97.2008C149.107 98.8652 149.795 100.894 151.51 101.734C153.223 102.575 155.315 101.907 156.181 100.244C157.047 98.5819 156.359 96.5516 154.644 95.711Z" fill="#6EE8FC"/>
<path opacity="0.6" d="M167.096 104.17C165.584 103.022 163.4 103.281 162.216 104.748C161.033 106.215 161.3 108.336 162.812 109.484C164.324 110.632 166.508 110.373 167.691 108.906C168.875 107.441 168.608 105.318 167.096 104.17Z" fill="#6EE8FC"/>
<path opacity="0.4" d="M177.607 114.824C176.354 113.411 174.16 113.252 172.704 114.468C171.249 115.684 171.084 117.813 172.337 119.226C173.59 120.639 175.784 120.799 177.24 119.583C178.696 118.369 178.86 116.237 177.607 114.824Z" fill="#6EE8FC"/>
<path opacity="0.2" d="M185.777 127.265C184.834 125.642 182.713 125.07 181.041 125.987C179.368 126.903 178.779 128.961 179.724 130.584C180.667 132.207 182.788 132.78 184.461 131.864C186.131 130.947 186.721 128.888 185.777 127.265Z" fill="#6EE8FC"/>
<path opacity="0.1" d="M191.409 142.649C191.741 140.814 190.477 139.065 188.586 138.743C186.695 138.42 184.894 139.647 184.561 141.482C184.229 143.317 185.493 145.066 187.386 145.389C189.276 145.712 191.078 144.485 191.409 142.649Z" fill="#6EE8FC"/>
<path d="M125.828 95.4465C127.709 95.955 129.658 94.8855 130.182 93.0598C130.706 91.234 129.604 89.3426 127.723 88.8341C125.842 88.3256 123.893 89.3951 123.369 91.2209C122.845 93.0466 123.945 94.9399 125.828 95.4465Z" fill="#6EE8FC"/>
<path opacity="0.8" d="M111.93 89.4534C113.643 90.2941 115.735 89.6261 116.601 87.9636C117.467 86.2992 116.779 84.2708 115.066 83.4302C113.353 82.5895 111.261 83.2575 110.395 84.9219C109.529 86.5825 110.217 88.6128 111.93 89.4534Z" fill="#6EE8FC"/>
<path opacity="0.6" d="M99.4796 80.9924C100.991 82.1407 103.176 81.8818 104.359 80.4144C105.542 78.9471 105.276 76.8267 103.764 75.6784C102.252 74.53 100.067 74.7889 98.8842 76.2563C97.701 77.7236 97.9678 79.844 99.4796 80.9924Z" fill="#6EE8FC"/>
<path opacity="0.4" d="M88.9665 70.3383C90.2192 71.7513 92.4135 71.9108 93.8692 70.6948C95.325 69.4789 95.4893 67.3492 94.2366 65.9363C92.9838 64.5233 90.7895 64.3638 89.3338 65.5797C87.88 66.7957 87.7156 68.9273 88.9665 70.3383Z" fill="#6EE8FC"/>
<path opacity="0.2" d="M80.7982 57.8997C81.7417 59.5227 83.8625 60.0951 85.5348 59.1775C87.207 58.2618 87.7967 56.2034 86.8513 54.5803C85.9079 52.9572 83.7871 52.3849 82.1148 53.3006C80.4444 54.2181 79.8548 56.2766 80.7982 57.8997Z" fill="#6EE8FC"/>
<path opacity="0.1" d="M75.1648 42.5148C74.8323 44.35 76.0966 46.0988 77.9874 46.4215C79.8781 46.7443 81.6799 45.5171 82.0124 43.6801C82.345 41.8449 81.0806 40.0961 79.1899 39.7734C77.2991 39.4506 75.4973 40.6797 75.1648 42.5148Z" fill="#6EE8FC"/>
<path d="M116.833 110.966C117.391 112.139 116.866 113.529 115.657 114.072C114.449 114.614 113.016 114.104 112.458 112.931C111.899 111.758 112.425 110.368 113.633 109.825C114.842 109.283 116.274 109.793 116.833 110.966Z" fill="#6EE8FC"/>
<path opacity="0.8" d="M111.089 102.389C111.872 103.434 111.636 104.898 110.559 105.658C109.482 106.42 107.974 106.189 107.192 105.144C106.407 104.098 106.644 102.635 107.721 101.875C108.798 101.115 110.306 101.344 111.089 102.389Z" fill="#6EE8FC"/>
<path opacity="0.6" d="M103.733 95.0633C104.711 95.9396 104.773 97.4201 103.87 98.3695C102.967 99.319 101.442 99.3791 100.464 98.5028C99.4856 97.6265 99.4238 96.146 100.327 95.1965C101.229 94.2471 102.753 94.187 103.733 95.0633Z" fill="#6EE8FC"/>
<path opacity="0.4" d="M95.0448 89.2709C96.1816 89.9445 96.5392 91.3856 95.8452 92.4871C95.1512 93.5904 93.6664 93.9375 92.5316 93.2639C91.3948 92.5903 91.0371 91.1492 91.7312 90.0477C92.4252 88.9463 93.9081 88.5972 95.0448 89.2709Z" fill="#6EE8FC"/>
<path opacity="0.2" d="M85.359 85.2366C86.6079 85.6813 87.2497 87.0267 86.7896 88.2407C86.3295 89.4529 84.9453 90.0759 83.6944 89.6293C82.4455 89.1827 81.8037 87.8392 82.2638 86.6252C82.7239 85.413 84.1082 84.79 85.359 85.2366Z" fill="#6EE8FC"/>
<path opacity="0.1" d="M73.8813 83.214C75.1379 82.788 76.5124 83.4335 76.9513 84.6532C77.3902 85.8729 76.727 87.207 75.4685 87.6329C74.2119 88.0589 72.8373 87.4152 72.3984 86.1937C71.9596 84.974 72.6227 83.6399 73.8813 83.214Z" fill="#6EE8FC"/>
<path d="M114.497 121.502C113.929 120.309 114.465 118.896 115.694 118.343C116.924 117.789 118.381 118.311 118.95 119.504C119.518 120.697 118.983 122.112 117.753 122.664C116.524 123.216 115.066 122.696 114.497 121.502Z" fill="#6EE8FC"/>
<path opacity="0.8" d="M120.278 130.065C119.493 129.019 119.731 127.556 120.808 126.796C121.884 126.034 123.392 126.265 124.175 127.31C124.96 128.355 124.722 129.819 123.646 130.579C122.571 131.339 121.063 131.108 120.278 130.065Z" fill="#6EE8FC"/>
<path opacity="0.6" d="M127.636 137.39C126.658 136.513 126.596 135.033 127.499 134.084C128.402 133.134 129.927 133.074 130.905 133.948C131.883 134.825 131.945 136.305 131.042 137.255C130.14 138.206 128.614 138.264 127.636 137.39Z" fill="#6EE8FC"/>
<path opacity="0.4" d="M136.324 143.18C135.187 142.507 134.83 141.066 135.524 139.964C136.218 138.861 137.702 138.514 138.837 139.187C139.974 139.861 140.332 141.302 139.638 142.404C138.944 143.507 137.461 143.854 136.324 143.18Z" fill="#6EE8FC"/>
<path opacity="0.2" d="M146.01 147.217C144.761 146.77 144.119 145.427 144.579 144.215C145.039 143.002 146.423 142.379 147.674 142.826C148.923 143.273 149.565 144.616 149.105 145.83C148.645 147.04 147.259 147.661 146.01 147.217Z" fill="#6EE8FC"/>
<path opacity="0.1" d="M157.488 149.238C156.231 149.664 154.857 149.018 154.418 147.798C153.979 146.579 154.644 145.245 155.9 144.819C157.157 144.393 158.532 145.038 158.971 146.258C159.409 147.479 158.744 148.814 157.488 149.238Z" fill="#6EE8FC"/>
<path opacity="0.4" d="M156.695 147.249C156.583 147.249 156.486 147.17 156.471 147.059C156.451 146.939 156.538 146.826 156.662 146.809L182.728 143.119L146.855 145.239C146.739 145.245 146.648 145.175 146.619 145.072C146.592 144.969 146.646 144.864 146.744 144.819L180.078 129.877L137.641 141.396C137.532 141.424 137.418 141.373 137.372 141.276C137.325 141.176 137.36 141.062 137.453 141.002L172.853 118.127L129.355 135.872C129.252 135.913 129.13 135.876 129.072 135.784C129.014 135.69 129.034 135.57 129.121 135.498L163.14 108.002L122.329 128.882C122.234 128.933 122.109 128.907 122.041 128.817C121.975 128.73 121.983 128.608 122.064 128.531L151.539 99.9029L116.841 120.69C116.748 120.75 116.624 120.727 116.551 120.647C116.477 120.566 116.475 120.446 116.545 120.363L138.366 94.3806L114.784 112.122C114.697 112.19 114.575 112.184 114.492 112.111C114.41 112.04 114.393 111.919 114.453 111.831C118.998 104.866 125.641 94.4313 126.482 92.4629C124.632 93.3617 115.422 99.6496 109.276 103.947C109.196 103.997 109.094 104.001 109.015 103.95C108.935 103.9 108.899 103.804 108.922 103.714L113.098 87.1076L102.254 96.9438C102.19 97.002 102.094 97.0189 102.012 96.9851C101.929 96.9532 101.875 96.8744 101.873 96.7881L101.417 79.1123L93.9873 91.3784C93.937 91.4609 93.8404 91.4966 93.7398 91.4834C93.6432 91.4609 93.5736 91.3821 93.5639 91.2864L91.4721 69.156L84.7443 87.5036C84.7057 87.6049 84.5993 87.6537 84.4949 87.6481C84.3867 87.6312 84.3055 87.5411 84.3035 87.436L83.6327 57.6198L74.8943 85.4864C74.8614 85.5971 74.7416 85.6591 74.6333 85.6384C74.5192 85.6159 74.44 85.5165 74.4496 85.402L78.3645 43.0739C78.3761 42.9538 78.4805 42.8788 78.612 42.875C78.7357 42.8863 78.8285 42.9932 78.8169 43.1152L75.0973 83.3154L83.6076 56.1731C83.6404 56.0699 83.7468 55.9911 83.855 56.0193C83.9652 56.0343 84.0483 56.1243 84.0522 56.2313L84.7269 86.2257L91.3871 68.0621C91.4238 67.9626 91.5224 67.8951 91.6287 67.9176C91.735 67.9307 91.8162 68.0133 91.8278 68.1146L93.9486 90.5621L101.425 78.221C101.477 78.1384 101.583 78.1065 101.678 78.1178C101.776 78.144 101.846 78.2285 101.848 78.326L102.312 96.2814L113.343 86.2745C113.415 86.2088 113.525 86.1957 113.614 86.2445C113.701 86.2933 113.743 86.3928 113.72 86.4885L109.51 103.234C117.061 97.9608 125.91 91.9244 126.82 91.9244C126.839 91.9244 126.855 91.9281 126.865 91.9319C126.926 91.9582 126.99 92.0314 127.011 92.0933C127.251 92.8401 119.551 104.819 115.53 111L139.661 92.8438C139.752 92.7744 139.881 92.7838 139.962 92.8645C140.044 92.9452 140.049 93.0709 139.976 93.1572L117.751 119.626L152.958 98.5369C153.057 98.475 153.186 98.4993 153.256 98.5857C153.327 98.6739 153.319 98.7996 153.238 98.8784L123.45 127.811L164.85 106.63C164.952 106.583 165.08 106.611 165.143 106.703C165.209 106.797 165.19 106.923 165.101 106.996L130.588 134.892L174.889 116.819C174.997 116.779 175.121 116.819 175.177 116.918C175.233 117.02 175.2 117.143 175.102 117.205L138.903 140.597L182.692 128.71C182.813 128.68 182.926 128.74 182.966 128.845C183.007 128.954 182.957 129.074 182.848 129.122L148.036 144.727L188.103 142.359C188.217 142.364 188.331 142.439 188.343 142.556C188.354 142.674 188.269 142.779 188.149 142.796L156.73 147.243C156.716 147.249 156.705 147.249 156.695 147.249Z" fill="#6EE8FC"/>
<defs>
<linearGradient id="paint0_linear_3155_6984" x1="181.333" y1="0" x2="181.333" y2="360" gradientUnits="userSpaceOnUse">
<stop stop-color="#1214FD"/>
<stop offset="1" stop-color="#040552"/>
</linearGradient>
<radialGradient id="paint1_radial_3155_6984" cx="0" cy="0" r="1" gradientUnits="userSpaceOnUse" gradientTransform="translate(118.471 219.951) rotate(148.475) scale(71.8442 85.3736)">
<stop offset="0.0108" stop-color="#6DE0F6"/>
<stop offset="1" stop-color="#13113D"/>
</radialGradient>
<linearGradient id="paint2_linear_3155_6984" x1="203.434" y1="201.708" x2="265.563" y2="277.55" gradientUnits="userSpaceOnUse">
<stop stop-color="#7182BA"/>
<stop offset="1" stop-color="#9B7368"/>
</linearGradient>
<linearGradient id="paint3_linear_3155_6984" x1="210.693" y1="134.72" x2="299.903" y2="195.2" gradientUnits="userSpaceOnUse">
<stop stop-color="#434DAE"/>
<stop offset="1" stop-color="#287EB0"/>
</linearGradient>
<linearGradient id="paint4_linear_3155_6984" x1="210.692" y1="190.667" x2="230.295" y2="237.232" gradientUnits="userSpaceOnUse">
<stop stop-color="#7182BA"/>
<stop offset="1" stop-color="#9B7368"/>
</linearGradient>
<linearGradient id="paint5_linear_3155_6984" x1="210.686" y1="124.13" x2="262.613" y2="187.893" gradientUnits="userSpaceOnUse">
<stop stop-color="#434DAE"/>
<stop offset="1" stop-color="#287EB0"/>
</linearGradient>
<linearGradient id="paint6_linear_3155_6984" x1="220.072" y1="145.744" x2="273.748" y2="159.429" gradientUnits="userSpaceOnUse">
<stop stop-color="#630692"/>
<stop offset="0.2262" stop-color="#5B0E94"/>
<stop offset="0.587" stop-color="#432399"/>
<stop offset="1" stop-color="#2142A1"/>
</linearGradient>
<linearGradient id="paint7_linear_3155_6984" x1="249.272" y1="157.401" x2="249.272" y2="59.8044" gradientUnits="userSpaceOnUse">
<stop offset="0.0108" stop-color="#25BFEC"/>
<stop offset="0.0453" stop-color="#24B4E1"/>
<stop offset="0.2186" stop-color="#1F83B0"/>
<stop offset="0.3902" stop-color="#1B5A86"/>
<stop offset="0.5567" stop-color="#173A66"/>
<stop offset="0.7168" stop-color="#152350"/>
<stop offset="0.8678" stop-color="#131642"/>
<stop offset="1" stop-color="#13113D"/>
</linearGradient>
<linearGradient id="paint8_linear_3155_6984" x1="249.272" y1="156.336" x2="249.272" y2="68.0077" gradientUnits="userSpaceOnUse">
<stop offset="0.0108" stop-color="#70E8FC"/>
<stop offset="0.1484" stop-color="#5AB5CF"/>
<stop offset="0.3028" stop-color="#4584A3"/>
<stop offset="0.4559" stop-color="#335A7E"/>
<stop offset="0.6045" stop-color="#253A62"/>
<stop offset="0.7474" stop-color="#1B244D"/>
<stop offset="0.882" stop-color="#151641"/>
<stop offset="1" stop-color="#13113D"/>
</linearGradient>
<radialGradient id="paint9_radial_3155_6984" cx="0" cy="0" r="1" gradientUnits="userSpaceOnUse" gradientTransform="translate(258.646 264.186) rotate(50.7463) scale(67.3578 78.8941)">
<stop offset="0.0108" stop-color="#25BFEC"/>
<stop offset="0.0453" stop-color="#24B4E1"/>
<stop offset="0.2186" stop-color="#1F83B0"/>
<stop offset="0.3902" stop-color="#1B5A86"/>
<stop offset="0.5567" stop-color="#173A66"/>
<stop offset="0.7168" stop-color="#152350"/>
<stop offset="0.8678" stop-color="#131642"/>
<stop offset="1" stop-color="#13113D"/>
</radialGradient>
<linearGradient id="paint10_linear_3155_6984" x1="103.584" y1="251.357" x2="196.013" y2="364.455" gradientUnits="userSpaceOnUse">
<stop stop-color="#7182BA"/>
<stop offset="1" stop-color="#9B7368"/>
</linearGradient>
<linearGradient id="paint11_linear_3155_6984" x1="105.332" y1="211.137" x2="200.725" y2="322.293" gradientUnits="userSpaceOnUse">
<stop stop-color="#434DAE"/>
<stop offset="1" stop-color="#287EB0"/>
</linearGradient>
<linearGradient id="paint12_linear_3155_6984" x1="126.805" y1="193.235" x2="187.582" y2="267.864" gradientUnits="userSpaceOnUse">
<stop stop-color="#3024B2"/>
<stop offset="1" stop-color="#19777D"/>
</linearGradient>
<linearGradient id="paint13_linear_3155_6984" x1="143.516" y1="202.597" x2="181.796" y2="249.603" gradientUnits="userSpaceOnUse">
<stop stop-color="#3024B2"/>
<stop offset="1" stop-color="#19777D"/>
</linearGradient>
<linearGradient id="paint14_linear_3155_6984" x1="127.671" y1="166.89" x2="187.573" y2="240.443" gradientUnits="userSpaceOnUse">
<stop stop-color="#434DAE"/>
<stop offset="1" stop-color="#287EB0"/>
</linearGradient>
<linearGradient id="paint15_linear_3155_6984" x1="127.671" y1="152.752" x2="187.574" y2="226.307" gradientUnits="userSpaceOnUse">
<stop stop-color="#3024B2"/>
<stop offset="1" stop-color="#19777D"/>
</linearGradient>
<linearGradient id="paint16_linear_3155_6984" x1="127.671" y1="135.345" x2="187.573" y2="208.898" gradientUnits="userSpaceOnUse">
<stop stop-color="#434DAE"/>
<stop offset="1" stop-color="#287EB0"/>
</linearGradient>
<linearGradient id="paint17_linear_3155_6984" x1="127.671" y1="121.206" x2="187.574" y2="194.761" gradientUnits="userSpaceOnUse">
<stop stop-color="#3024B2"/>
<stop offset="1" stop-color="#19777D"/>
</linearGradient>
<linearGradient id="paint18_linear_3155_6984" x1="172.053" y1="162.095" x2="172.053" y2="69.429" gradientUnits="userSpaceOnUse">
<stop offset="0.0108" stop-color="#70E8FC"/>
<stop offset="0.1484" stop-color="#5AB5CF"/>
<stop offset="0.3028" stop-color="#4584A3"/>
<stop offset="0.4559" stop-color="#335A7E"/>
<stop offset="0.6045" stop-color="#253A62"/>
<stop offset="0.7474" stop-color="#1B244D"/>
<stop offset="0.882" stop-color="#151641"/>
<stop offset="1" stop-color="#13113D"/>
</linearGradient>
<linearGradient id="paint19_linear_3155_6984" x1="172.053" y1="157.692" x2="172.053" y2="20.0002" gradientUnits="userSpaceOnUse">
<stop offset="0.0108" stop-color="#70E8FC"/>
<stop offset="0.1484" stop-color="#5AB5CF"/>
<stop offset="0.3028" stop-color="#4584A3"/>
<stop offset="0.4559" stop-color="#335A7E"/>
<stop offset="0.6045" stop-color="#253A62"/>
<stop offset="0.7474" stop-color="#1B244D"/>
<stop offset="0.882" stop-color="#151641"/>
<stop offset="1" stop-color="#13113D"/>
</linearGradient>
</defs>
</svg>
