<svg width="43" height="42" viewBox="0 0 43 42" fill="none" xmlns="http://www.w3.org/2000/svg">
<path d="M42.2533 17.1803H22.2262V25.2921H33.7513C32.6787 30.4469 28.1884 33.4087 22.2262 33.4087C15.1961 33.4087 9.52972 27.8707 9.52972 20.9977C9.52972 14.1269 15.1961 8.58899 22.2262 8.58899C25.2542 8.58899 27.9912 9.63969 30.1389 11.358L36.3921 5.24883C32.5825 2.00269 27.6977 0 22.2262 0C10.3114 0 0.739136 9.35292 0.739136 21C0.739136 32.6471 10.309 42 22.2262 42C32.9697 42 42.7391 34.363 42.7391 21C42.7391 19.7589 42.5443 18.4214 42.2533 17.1803Z" fill="white"/>
</svg>
