<svg width="364" height="360" viewBox="0 0 364 360" fill="none" xmlns="http://www.w3.org/2000/svg">
<rect width="362.667" height="360" transform="translate(0.666626)" fill="url(#paint0_linear_3155_6911)"/>
<g style="mix-blend-mode:lighten" opacity="0.4">
<path d="M245 318C304.094 318 352 281.287 352 236C352 190.713 304.094 154 245 154C185.906 154 138 190.713 138 236C138 281.287 185.906 318 245 318Z" fill="url(#paint1_radial_3155_6911)"/>
</g>
<g style="mix-blend-mode:lighten" opacity="0.4">
<path d="M143.095 239.02C195.292 239.02 237.606 197.951 237.606 147.289C237.606 96.6266 195.292 55.5569 143.095 55.5569C90.8976 55.5569 48.5834 96.6266 48.5834 147.289C48.5834 197.951 90.8976 239.02 143.095 239.02Z" fill="url(#paint2_radial_3155_6911)"/>
</g>
<g style="mix-blend-mode:lighten" opacity="0.4">
<path d="M244.983 310.478C284.161 310.478 315.922 279.651 315.922 241.625C315.922 203.598 284.161 172.772 244.983 172.772C205.804 172.772 174.043 203.598 174.043 241.625C174.043 279.651 205.804 310.478 244.983 310.478Z" fill="url(#paint3_radial_3155_6911)"/>
</g>
<path d="M134.64 190.047C139.001 194.28 139.001 201.145 134.64 205.378C130.278 209.611 123.206 209.611 118.844 205.378C114.483 201.145 114.483 194.28 118.844 190.047C123.206 185.814 130.278 185.814 134.64 190.047Z" fill="#6EE8FC"/>
<path opacity="0.5" d="M126.763 208.553C129.614 208.547 132.465 207.491 134.64 205.378C139.001 201.145 139.001 194.28 134.64 190.047C131.621 187.117 127.305 186.218 123.488 187.343C123.486 187.567 123.47 187.787 123.47 188.011C123.47 195.176 124.631 202.075 126.763 208.553Z" fill="#161242"/>
<path d="M126.751 174.24C129.003 176.425 129.003 179.966 126.751 182.151C124.501 184.335 120.851 184.335 118.602 182.151C116.352 179.968 116.352 176.425 118.602 174.24C120.849 172.054 124.499 172.054 126.751 174.24Z" fill="#6EE8FC"/>
<path opacity="0.5" d="M126.771 174.24C129.02 176.425 129.02 179.966 126.771 182.151C124.519 184.335 120.871 184.335 118.619 182.151C116.368 179.968 116.368 176.425 118.619 174.24C120.871 172.054 124.519 172.054 126.771 174.24Z" fill="#161242"/>
<path d="M106.19 172.72C107.625 174.113 107.625 176.371 106.19 177.762C104.754 179.156 102.428 179.156 100.992 177.762C99.5567 176.369 99.5567 174.111 100.992 172.72C102.428 171.328 104.754 171.328 106.19 172.72Z" fill="#6EE8FC"/>
<path d="M198.461 248.606C236.849 248.606 267.969 218.401 267.969 181.142C267.969 143.883 236.849 113.679 198.461 113.679C160.073 113.679 128.953 143.883 128.953 181.142C128.953 218.401 160.073 248.606 198.461 248.606Z" fill="url(#paint4_linear_3155_6911)"/>
<path opacity="0.6" d="M198.461 306.055C219.398 306.055 236.37 296.544 236.37 284.812C236.37 273.08 219.398 263.57 198.461 263.57C177.525 263.57 160.553 273.08 160.553 284.812C160.553 296.544 177.525 306.055 198.461 306.055Z" fill="#0C0F38"/>
<path d="M198.461 311.807C186.325 311.807 174.187 309.218 164.946 304.039C155.842 298.937 150.828 292.109 150.828 284.81C150.828 277.513 155.84 270.683 164.944 265.581C183.423 255.223 213.494 255.225 231.975 265.583C241.078 270.685 246.091 277.511 246.091 284.812C246.091 292.111 241.078 298.937 231.975 304.039C222.735 309.218 210.599 311.807 198.461 311.807ZM198.459 259.342C186.609 259.342 174.763 261.868 165.742 266.924C157.153 271.737 152.425 278.089 152.425 284.812C152.425 291.535 157.155 297.887 165.744 302.7C183.788 312.81 213.141 312.81 231.18 302.7C239.771 297.887 244.499 291.535 244.499 284.814C244.499 278.091 239.771 271.739 231.18 266.926C222.158 261.872 210.307 259.342 198.459 259.342Z" fill="url(#paint5_linear_3155_6911)"/>
<path d="M131.095 182.489C131.095 145.231 162.215 115.026 200.602 115.026C214.357 115.026 227.142 118.955 237.933 125.645C226.718 118.117 213.131 113.681 198.461 113.681C160.073 113.681 128.951 143.885 128.951 181.144C128.951 205.056 141.805 226.01 161.134 237.992C142.998 225.817 131.095 205.512 131.095 182.489Z" fill="white"/>
<path d="M237.028 125.027C254.033 137.325 265.094 156.931 265.094 179.096C265.094 216.355 233.974 246.56 195.586 246.56C181.315 246.56 168.057 242.373 157.019 235.213C168.599 243.588 182.908 248.606 198.461 248.606C236.849 248.606 267.969 218.401 267.969 181.142C267.969 157.735 255.677 137.126 237.028 125.027Z" fill="#6EE8FC"/>
<path d="M187.206 170.695C197.331 157.989 197.298 141.502 187.132 133.871C176.966 126.239 160.517 130.353 150.392 143.059C140.266 155.765 140.299 172.252 150.465 179.883C160.631 187.515 177.08 183.401 187.206 170.695Z" fill="#6DE0F6"/>
<path d="M161.136 148.846C168.779 139.256 180.02 134.579 189.446 136.137C188.721 135.356 188.021 134.552 187.143 133.894C176.979 126.262 160.529 130.375 150.402 143.08C140.277 155.785 140.309 172.272 150.475 179.904C152.967 181.776 155.844 182.922 158.906 183.428C151.214 175.143 151.885 160.455 161.136 148.846Z" fill="#25BFEC"/>
<path d="M155.292 145.777C163.989 134.862 177.33 130.348 187.37 134.112C187.285 134.047 187.23 133.957 187.145 133.894C176.981 126.262 160.531 130.375 150.404 143.08C140.279 155.785 140.311 172.272 150.477 179.904C151.912 180.98 153.492 181.765 155.14 182.383C145.228 174.666 145.25 158.375 155.292 145.777Z" fill="#267FE5"/>
<path opacity="0.5" d="M233.345 229.675C227.621 235.231 219.07 235.935 214.243 231.252C209.416 226.567 210.144 218.267 215.868 212.712C221.592 207.156 230.143 206.452 234.97 211.135C239.795 215.82 239.069 224.119 233.345 229.675Z" fill="#161242"/>
<path opacity="0.5" d="M215.87 198.085C214.698 199.222 212.948 199.367 211.958 198.408C210.97 197.449 211.118 195.75 212.291 194.611C213.462 193.475 215.213 193.329 216.203 194.288C217.191 195.249 217.041 196.948 215.87 198.085Z" fill="#161242"/>
<path opacity="0.5" d="M211.069 215.469C212.241 214.331 212.39 212.632 211.402 211.673C210.414 210.714 208.663 210.859 207.491 211.996C206.319 213.134 206.17 214.833 207.158 215.792C208.146 216.751 209.897 216.606 211.069 215.469Z" fill="#161242"/>
<path opacity="0.5" d="M211.983 203.778C211.453 204.293 210.66 204.358 210.213 203.924C209.765 203.489 209.832 202.72 210.363 202.205C210.893 201.69 211.686 201.625 212.133 202.06C212.581 202.494 212.514 203.264 211.983 203.778Z" fill="#161242"/>
<path d="M230.255 223.934C230.255 225.447 228.992 226.676 227.43 226.676C225.87 226.676 224.604 225.449 224.604 223.934C224.604 222.42 225.868 221.191 227.43 221.191C228.992 221.193 230.255 222.42 230.255 223.934Z" fill="#6EE8FC"/>
<path d="M239.7 213.154C239.7 213.914 239.065 214.532 238.28 214.532C237.498 214.532 236.861 213.915 236.861 213.154C236.861 212.392 237.496 211.776 238.28 211.776C239.065 211.778 239.7 212.394 239.7 213.154Z" fill="#6EE8FC"/>
<path d="M223.946 199.197C223.946 200.77 222.633 202.044 221.012 202.044C219.391 202.044 218.078 200.77 218.078 199.197C218.078 197.624 219.391 196.349 221.012 196.349C222.633 196.349 223.946 197.624 223.946 199.197Z" fill="#6EE8FC"/>
<path d="M218.6 205.552C218.6 206.222 218.042 206.764 217.352 206.764C216.662 206.764 216.104 206.222 216.104 205.552C216.104 204.883 216.662 204.341 217.352 204.341C218.04 204.341 218.6 204.885 218.6 205.552Z" fill="#6EE8FC"/>
<path d="M223.946 208.071C225.167 208.071 226.156 207.11 226.156 205.926C226.156 204.741 225.167 203.78 223.946 203.78C222.725 203.78 221.735 204.741 221.735 205.926C221.735 207.11 222.725 208.071 223.946 208.071Z" fill="#6EE8FC"/>
<path d="M250.008 255.453C259.945 255.453 268.001 247.635 268.001 237.99C268.001 228.346 259.945 220.527 250.008 220.527C240.072 220.527 232.016 228.346 232.016 237.99C232.016 247.635 240.072 255.453 250.008 255.453Z" fill="#6EE8FC"/>
<path d="M247.908 236.699C244.282 240.218 239.049 240.846 236.222 238.099C233.392 235.355 234.039 230.276 237.665 226.757C241.291 223.237 246.524 222.61 249.352 225.356C252.179 228.102 251.534 233.179 247.908 236.699Z" fill="#3BE1FA"/>
<path d="M245.637 234.494C243.62 236.452 240.707 236.802 239.134 235.275C237.561 233.748 237.919 230.921 239.939 228.963C241.956 227.006 244.868 226.655 246.441 228.184C248.015 229.71 247.656 232.536 245.637 234.494Z" fill="#18D0F7"/>
<path d="M255.551 259.863C258.611 262.833 258.611 267.65 255.551 270.622C252.491 273.592 247.528 273.592 244.466 270.622C241.406 267.652 241.406 262.835 244.466 259.863C247.526 256.891 252.489 256.892 255.551 259.863Z" fill="#6EE8FC"/>
<path d="M233.722 255.956C234.926 257.126 234.926 259.024 233.722 260.193C232.517 261.363 230.561 261.363 229.356 260.193C228.151 259.024 228.151 257.126 229.356 255.956C230.563 254.787 232.517 254.787 233.722 255.956Z" fill="#6EE8FC"/>
<path d="M248.691 263.966C247.431 265.188 245.615 265.407 244.631 264.452C243.649 263.499 243.874 261.734 245.132 260.513C246.392 259.29 248.208 259.072 249.192 260.027C250.176 260.982 249.951 262.743 248.691 263.966Z" fill="#3BE1FA"/>
<g style="mix-blend-mode:lighten" opacity="0.2">
<path d="M187.145 133.894C186.987 133.775 186.816 133.685 186.656 133.574L77.3272 51L34.6666 111.367L152.368 181.144L152.37 181.143C162.591 187.008 177.701 182.666 187.22 170.718C197.343 158.013 197.312 141.526 187.145 133.894Z" fill="url(#paint6_linear_3155_6911)"/>
</g>
<g style="mix-blend-mode:lighten" opacity="0.25">
<path d="M184.038 135.741C183.898 135.635 183.746 135.557 183.604 135.456L86.5904 62.1838L48.735 115.752L153.176 177.669L153.178 177.667C162.248 182.872 175.656 179.018 184.103 168.418C193.086 157.142 193.057 142.513 184.038 135.741Z" fill="url(#paint7_linear_3155_6911)"/>
</g>
<path d="M125.061 104.15C123.051 103.932 121.239 105.337 121.017 107.287C120.792 109.237 122.239 110.996 124.248 111.214C126.258 111.432 128.07 110.027 128.294 108.077C128.517 106.125 127.07 104.368 125.061 104.15Z" fill="#6EE8FC"/>
<path opacity="0.8" d="M140.551 108.06C138.624 107.465 136.566 108.5 135.953 110.37C135.339 112.24 136.406 114.238 138.332 114.833C140.259 115.428 142.317 114.393 142.931 112.523C143.544 110.653 142.477 108.655 140.551 108.06Z" fill="#6EE8FC"/>
<path opacity="0.6" d="M154.956 114.829C153.186 113.882 150.959 114.506 149.983 116.224C149.007 117.943 149.65 120.104 151.421 121.051C153.191 121.998 155.418 121.374 156.394 119.656C157.372 117.937 156.727 115.777 154.956 114.829Z" fill="#6EE8FC"/>
<path opacity="0.4" d="M167.727 124.195C166.181 122.93 163.873 123.121 162.569 124.622C161.266 126.122 161.463 128.363 163.009 129.628C164.555 130.893 166.864 130.702 168.167 129.201C169.468 127.701 169.271 125.46 167.727 124.195Z" fill="#6EE8FC"/>
<path opacity="0.2" d="M178.367 135.798C177.105 134.265 174.802 134.014 173.222 135.239C171.643 136.464 171.385 138.699 172.647 140.232C173.909 141.765 176.212 142.015 177.791 140.791C179.37 139.566 179.629 137.331 178.367 135.798Z" fill="#6EE8FC"/>
<path opacity="0.1" d="M186.881 150.874C186.908 148.913 185.292 147.3 183.27 147.273C181.249 147.246 179.587 148.815 179.56 150.777C179.532 152.738 181.149 154.352 183.17 154.379C185.191 154.405 186.853 152.838 186.881 150.874Z" fill="#6EE8FC"/>
<path d="M110.547 112.475C112.59 112.697 114.433 111.269 114.662 109.285C114.891 107.302 113.42 105.513 111.375 105.291C109.332 105.069 107.489 106.496 107.26 108.481C107.031 110.464 108.502 112.253 110.547 112.475Z" fill="#6EE8FC"/>
<path opacity="0.8" d="M95.0649 108.504C96.9913 109.1 99.0498 108.064 99.663 106.194C100.276 104.325 99.2095 102.327 97.2831 101.732C95.3567 101.136 93.2982 102.172 92.685 104.042C92.0718 105.911 93.1365 107.909 95.0649 108.504Z" fill="#6EE8FC"/>
<path opacity="0.6" d="M80.6574 101.735C82.428 102.683 84.6541 102.059 85.6301 100.34C86.6061 98.6216 85.9633 96.461 84.1927 95.5137C82.4221 94.5664 80.196 95.1903 79.218 96.9088C78.244 98.6274 78.8868 100.788 80.6574 101.735Z" fill="#6EE8FC"/>
<path opacity="0.4" d="M67.8883 92.3695C69.4342 93.6345 71.7431 93.4432 73.0464 91.9428C74.3497 90.4424 74.1526 88.2014 72.6067 86.9364C71.0609 85.6714 68.7519 85.8628 67.4486 87.3632C66.1473 88.8635 66.3425 91.1045 67.8883 92.3695Z" fill="#6EE8FC"/>
<path opacity="0.2" d="M57.2487 80.7665C58.5106 82.2994 60.8136 82.5501 62.393 81.3253C63.9724 80.1005 64.2307 77.8653 62.9688 76.3323C61.7068 74.7994 59.4038 74.5487 57.8245 75.7735C56.2431 76.9983 55.9868 79.2336 57.2487 80.7665Z" fill="#6EE8FC"/>
<path opacity="0.1" d="M48.7348 65.6878C48.7072 67.6494 50.3241 69.2626 52.3451 69.2894C54.3662 69.3162 56.0283 67.747 56.0559 65.7854C56.0835 63.8238 54.4667 62.2105 52.4457 62.1837C50.4227 62.1569 48.7624 63.7262 48.7348 65.6878Z" fill="#6EE8FC"/>
<path d="M103.877 130.074C104.662 131.203 104.354 132.734 103.191 133.494C102.027 134.254 100.45 133.957 99.6672 132.828C98.8844 131.699 99.19 130.168 100.353 129.408C101.515 128.647 103.094 128.945 103.877 130.074Z" fill="#6EE8FC"/>
<path opacity="0.8" d="M96.4234 122.09C97.4192 123.049 97.4251 124.608 96.4372 125.575C95.4494 126.541 93.8424 126.547 92.8467 125.588C91.851 124.629 91.8451 123.07 92.8329 122.103C93.8207 121.139 95.4297 121.133 96.4234 122.09Z" fill="#6EE8FC"/>
<path opacity="0.6" d="M87.5111 115.671C88.6803 116.423 88.9998 117.95 88.2268 119.085C87.4519 120.22 85.8765 120.53 84.7093 119.78C83.54 119.028 83.2206 117.499 83.9935 116.366C84.7664 115.231 86.3418 114.921 87.5111 115.671Z" fill="#6EE8FC"/>
<path opacity="0.4" d="M77.4771 111.065C78.7745 111.582 79.3956 113.019 78.8652 114.278C78.3328 115.537 76.852 116.14 75.5546 115.625C74.2572 115.111 73.6361 113.671 74.1665 112.412C74.6969 111.151 76.1797 110.548 77.4771 111.065Z" fill="#6EE8FC"/>
<path opacity="0.2" d="M66.7114 108.445C68.0877 108.705 68.9868 109.999 68.7186 111.335C68.4505 112.67 67.1176 113.543 65.7413 113.283C64.365 113.023 63.4659 111.729 63.7341 110.393C64.0022 109.057 65.3351 108.185 66.7114 108.445Z" fill="#6EE8FC"/>
<path opacity="0.1" d="M54.4293 108.211C55.6636 107.565 57.2035 108.011 57.87 109.209C58.5364 110.407 58.077 111.901 56.8427 112.548C55.6084 113.195 54.0684 112.749 53.402 111.551C52.7355 110.353 53.1949 108.858 54.4293 108.211Z" fill="#6EE8FC"/>
<path d="M103.269 141.405C102.473 140.257 102.784 138.699 103.967 137.926C105.15 137.153 106.755 137.455 107.552 138.604C108.349 139.752 108.037 141.31 106.854 142.083C105.671 142.856 104.066 142.554 103.269 141.405Z" fill="#6EE8FC"/>
<path opacity="0.8" d="M110.758 149.365C109.762 148.406 109.756 146.846 110.744 145.88C111.732 144.914 113.339 144.908 114.335 145.867C115.331 146.825 115.336 148.385 114.349 149.352C113.361 150.318 111.754 150.324 110.758 149.365Z" fill="#6EE8FC"/>
<path opacity="0.6" d="M119.672 155.783C118.503 155.031 118.184 153.504 118.958 152.369C119.733 151.234 121.307 150.924 122.476 151.674C123.645 152.426 123.965 153.956 123.19 155.088C122.417 156.225 120.841 156.535 119.672 155.783Z" fill="#6EE8FC"/>
<path opacity="0.4" d="M129.705 160.392C128.407 159.875 127.786 158.438 128.316 157.179C128.847 155.919 130.33 155.317 131.627 155.831C132.924 156.346 133.546 157.785 133.015 159.045C132.485 160.304 131.002 160.907 129.705 160.392Z" fill="#6EE8FC"/>
<path opacity="0.2" d="M140.472 163.012C139.096 162.752 138.197 161.458 138.465 160.122C138.733 158.786 140.066 157.914 141.442 158.174C142.819 158.434 143.718 159.728 143.449 161.064C143.181 162.399 141.848 163.272 140.472 163.012Z" fill="#6EE8FC"/>
<path opacity="0.1" d="M152.754 163.245C151.522 163.892 149.98 163.446 149.314 162.248C148.647 161.05 149.107 159.555 150.341 158.908C151.575 158.262 153.115 158.708 153.782 159.906C154.446 161.104 153.987 162.598 152.754 163.245Z" fill="#6EE8FC"/>
<path opacity="0.4" d="M151.547 161.31C151.445 161.31 151.35 161.247 151.319 161.148C151.279 161.025 151.348 160.895 151.475 160.857L177.939 152.779L141.008 160.818C140.898 160.845 140.782 160.786 140.736 160.684C140.691 160.581 140.727 160.462 140.821 160.401L172.893 139.444L130.765 158.325C130.659 158.373 130.533 158.338 130.466 158.243C130.401 158.147 130.416 158.021 130.503 157.944L163.354 128.403L121.2 153.927C121.1 153.988 120.968 153.967 120.891 153.883C120.814 153.795 120.814 153.667 120.891 153.579L151.51 119.458L112.688 147.805C112.594 147.874 112.462 147.864 112.377 147.786C112.292 147.705 112.28 147.577 112.349 147.483L138.047 112.925L105.566 140.181C105.478 140.253 105.348 140.255 105.257 140.184C105.166 140.112 105.143 139.985 105.202 139.89L123.399 109.327L101.946 131.611C101.864 131.691 101.737 131.71 101.641 131.647C101.544 131.586 101.507 131.465 101.552 131.362C105.074 123.382 110.178 111.453 110.713 109.27C108.944 110.504 100.456 118.542 94.8086 124.007C94.7377 124.076 94.6292 124.096 94.5385 124.053C94.4478 124.013 94.3926 123.921 94.4005 123.824L95.8734 105.879L86.3006 117.87C86.2414 117.943 86.1428 117.972 86.0561 117.954C85.9634 117.931 85.8944 117.861 85.8767 117.771L82.3472 99.4694L76.7416 113.43C76.7022 113.524 76.6075 113.568 76.503 113.578C76.3985 113.572 76.3117 113.501 76.2861 113.403L70.2881 90.735L66.4629 110.906C66.4412 111.017 66.3426 111.095 66.2263 111.095C66.11 111.095 66.0114 111.015 65.9897 110.904L60.1435 80.02L55.8727 110.41C55.8569 110.527 55.7425 110.592 55.6282 110.609C55.5059 110.605 55.4054 110.512 55.3975 110.395L52.1559 65.7549C52.1461 65.6267 52.2467 65.5157 52.3788 65.5061C52.4852 65.5004 52.6252 65.5941 52.6331 65.7204L55.711 108.118L59.8714 78.5157C59.8872 78.4028 59.9857 78.3167 60.1021 78.3167H60.108C60.2243 78.3167 60.3229 78.3952 60.3446 78.5081L66.2263 109.578L70.012 89.6098C70.0337 89.5026 70.1284 89.4241 70.2388 89.4203H70.2467C70.3551 89.4203 70.4517 89.4911 70.4793 89.5944L76.5622 112.586L82.2013 98.5393C82.2408 98.4417 82.3374 98.3881 82.4458 98.3919C82.5523 98.4015 82.6391 98.48 82.6588 98.5814L86.2434 117.173L95.9798 104.975C96.0449 104.895 96.1553 104.858 96.2559 104.901C96.3545 104.939 96.4156 105.033 96.4077 105.136L94.923 123.23C101.933 116.456 110.178 108.655 110.993 108.655C111.001 108.655 111.008 108.657 111.016 108.657C111.083 108.675 111.164 108.74 111.196 108.799C111.572 109.54 105.639 123.244 102.526 130.325L124.477 107.522C124.562 107.436 124.698 107.429 124.795 107.494C124.893 107.565 124.921 107.693 124.86 107.796L106.328 138.925L139.283 111.27C139.376 111.195 139.512 111.195 139.603 111.273C139.691 111.354 139.705 111.486 139.636 111.581L113.664 146.507L153.046 117.755C153.143 117.681 153.281 117.694 153.365 117.782C153.448 117.87 153.45 118.004 153.371 118.094L122.308 152.71L165.239 126.715C165.344 126.65 165.48 126.675 165.557 126.771C165.632 126.865 165.62 127.001 165.529 127.081L131.936 157.288L175.406 137.804C175.518 137.756 175.654 137.798 175.715 137.901C175.776 138.008 175.743 138.141 175.64 138.207L142.144 160.093L183.389 151.114C183.515 151.085 183.638 151.156 183.673 151.28C183.707 151.401 183.636 151.525 183.513 151.564L151.616 161.301C151.595 161.308 151.571 161.31 151.547 161.31Z" fill="#6EE8FC"/>
<defs>
<linearGradient id="paint0_linear_3155_6911" x1="181.333" y1="0" x2="181.333" y2="360" gradientUnits="userSpaceOnUse">
<stop stop-color="#1214FD"/>
<stop offset="1" stop-color="#040552"/>
</linearGradient>
<radialGradient id="paint1_radial_3155_6911" cx="0" cy="0" r="1" gradientUnits="userSpaceOnUse" gradientTransform="translate(245.001 236) scale(107 82)">
<stop offset="0.0108" stop-color="#6DE0F6"/>
<stop offset="1" stop-color="#13113D"/>
</radialGradient>
<radialGradient id="paint2_radial_3155_6911" cx="0" cy="0" r="1" gradientUnits="userSpaceOnUse" gradientTransform="translate(143.094 147.289) scale(94.5106 91.7309)">
<stop offset="0.0108" stop-color="#6DE0F6"/>
<stop offset="1" stop-color="#13113D"/>
</radialGradient>
<radialGradient id="paint3_radial_3155_6911" cx="0" cy="0" r="1" gradientUnits="userSpaceOnUse" gradientTransform="translate(244.983 241.625) scale(70.9387 68.8523)">
<stop offset="0.0108" stop-color="#25BFEC"/>
<stop offset="0.0453" stop-color="#24B4E1"/>
<stop offset="0.2186" stop-color="#1F83B0"/>
<stop offset="0.3902" stop-color="#1B5A86"/>
<stop offset="0.5567" stop-color="#173A66"/>
<stop offset="0.7168" stop-color="#152350"/>
<stop offset="0.8678" stop-color="#131642"/>
<stop offset="1" stop-color="#13113D"/>
</radialGradient>
<linearGradient id="paint4_linear_3155_6911" x1="128.953" y1="113.679" x2="285.13" y2="224.398" gradientUnits="userSpaceOnUse">
<stop stop-color="#434DAE"/>
<stop offset="1" stop-color="#287EB0"/>
</linearGradient>
<linearGradient id="paint5_linear_3155_6911" x1="150.828" y1="257.814" x2="215.833" y2="336.731" gradientUnits="userSpaceOnUse">
<stop stop-color="#7182BA"/>
<stop offset="1" stop-color="#9B7368"/>
</linearGradient>
<linearGradient id="paint6_linear_3155_6911" x1="190.692" y1="163.052" x2="57.2922" y2="76.9824" gradientUnits="userSpaceOnUse">
<stop offset="0.0108" stop-color="#25BFEC"/>
<stop offset="0.0453" stop-color="#24B4E1"/>
<stop offset="0.2186" stop-color="#1F83B0"/>
<stop offset="0.3902" stop-color="#1B5A86"/>
<stop offset="0.5567" stop-color="#173A66"/>
<stop offset="0.7168" stop-color="#152350"/>
<stop offset="0.8678" stop-color="#131642"/>
<stop offset="1" stop-color="#13113D"/>
</linearGradient>
<linearGradient id="paint7_linear_3155_6911" x1="187.184" y1="161.615" x2="68.8127" y2="85.2413" gradientUnits="userSpaceOnUse">
<stop offset="0.0108" stop-color="#70E8FC"/>
<stop offset="0.1484" stop-color="#5AB5CF"/>
<stop offset="0.3028" stop-color="#4584A3"/>
<stop offset="0.4559" stop-color="#335A7E"/>
<stop offset="0.6045" stop-color="#253A62"/>
<stop offset="0.7474" stop-color="#1B244D"/>
<stop offset="0.882" stop-color="#151641"/>
<stop offset="1" stop-color="#13113D"/>
</linearGradient>
</defs>
</svg>
