<?xml version="1.0" standalone="no"?>
<!DOCTYPE svg PUBLIC "-//W3C//DTD SVG 20010904//EN"
 "http://www.w3.org/TR/2001/REC-SVG-20010904/DTD/svg10.dtd">
<svg version="1.0" xmlns="http://www.w3.org/2000/svg"
 width="160.000000pt" height="160.000000pt" viewBox="0 0 160.000000 160.000000"
 preserveAspectRatio="xMidYMid meet">
<metadata>
Created by potrace 1.14, written by Peter Selinger 2001-2017
</metadata>
<g transform="translate(0.000000,160.000000) scale(0.100000,-0.100000)"
fill="#000000" stroke="none">
<path d="M0 800 l0 -800 800 0 800 0 0 800 0 800 -800 0 -800 0 0 -800z m824
521 c-34 -53 -54 -122 -54 -193 0 -91 -37 -151 -113 -183 -137 -57 -281 61
-253 208 20 105 200 205 374 206 l72 1 -26 -39z m301 -55 c70 -33 147 -119
195 -218 55 -112 54 -119 -12 -102 -70 18 -90 18 -183 -7 -88 -23 -142 -17
-196 22 -62 44 -87 155 -50 227 48 94 146 125 246 78z m-811 -304 c39 -43 110
-85 174 -102 122 -32 178 -175 109 -278 -27 -39 -108 -82 -156 -82 -90 1 -165
72 -191 182 -19 77 1 318 25 318 3 0 21 -17 39 -38z m961 -125 c22 -12 50 -40
63 -62 47 -81 15 -220 -74 -326 -42 -50 -120 -119 -135 -119 -5 0 -9 17 -9 39
0 54 -23 112 -70 178 -51 72 -65 119 -49 175 15 59 42 92 91 117 58 28 131 28
183 -2z m-382 -251 c115 -49 145 -209 55 -293 -39 -37 -92 -53 -171 -53 -83 0
-156 19 -237 61 -90 46 -89 44 -29 73 61 28 96 61 142 132 55 84 154 117 240
80z"/>
</g>
</svg>
