<?xml version="1.0" standalone="no"?>
<!DOCTYPE svg PUBLIC "-//W3C//DTD SVG 20010904//EN"
 "http://www.w3.org/TR/2001/REC-SVG-20010904/DTD/svg10.dtd">
<svg version="1.0" xmlns="http://www.w3.org/2000/svg"
 width="512.000000pt" height="512.000000pt" viewBox="0 0 512.000000 512.000000"
 preserveAspectRatio="xMidYMid meet">
<metadata>
Created by potrace 1.14, written by Peter Selinger 2001-2017
</metadata>
<g transform="translate(0.000000,512.000000) scale(0.100000,-0.100000)"
fill="#000000" stroke="none">
<path d="M1986 4945 c-70 -29 -128 -81 -164 -150 -23 -43 -27 -63 -27 -135 0
-100 22 -156 87 -220 66 -64 119 -85 218 -85 99 0 154 21 217 84 63 64 87 123
87 216 1 100 -26 166 -93 228 -90 85 -213 108 -325 62z"/>
<path d="M2913 4955 c-197 -61 -305 -265 -242 -460 74 -230 356 -324 551 -183
172 125 202 358 68 528 -82 104 -250 155 -377 115z m203 -129 c125 -58 176
-212 109 -334 -112 -206 -420 -150 -451 83 -8 53 8 124 38 169 23 35 98 91
133 99 54 12 122 6 171 -17z"/>
<path d="M1291 4724 c-102 -30 -172 -117 -172 -216 0 -99 36 -167 114 -212 42
-25 56 -29 157 -41 112 -15 201 -80 254 -186 34 -68 35 -71 30 -167 -9 -170
-5 -210 27 -281 73 -165 254 -261 433 -229 318 57 437 446 208 677 -80 80
-207 125 -317 110 -98 -13 -186 -5 -240 21 -104 50 -178 150 -190 255 -14 128
-33 174 -87 220 -65 55 -140 72 -217 49z"/>
<path d="M3665 4731 c-128 -33 -204 -138 -218 -301 -6 -66 -27 -110 -76 -159
-73 -73 -95 -78 -311 -71 -89 3 -132 -5 -207 -41 -116 -55 -213 -179 -243
-308 -25 -105 3 -254 63 -346 79 -119 237 -201 387 -199 147 2 301 96 375 228
46 83 58 136 55 236 -7 210 0 240 77 315 48 47 92 66 168 72 123 11 215 68
267 165 18 35 23 59 23 128 0 76 -3 91 -29 138 -31 55 -74 96 -136 127 -38 20
-147 29 -195 16z m150 -127 c75 -35 113 -122 89 -203 -24 -81 -74 -115 -184
-126 -140 -13 -253 -92 -316 -221 -36 -72 -37 -78 -35 -167 6 -199 5 -214 -23
-270 -29 -60 -92 -129 -140 -154 -123 -64 -272 -46 -375 44 -155 136 -148 383
14 507 83 63 141 74 313 62 103 -7 181 16 255 74 99 79 132 138 153 273 7 51
22 103 34 122 40 64 144 93 215 59z"/>
<path d="M4135 4257 c-169 -29 -326 -182 -366 -355 -47 -206 56 -425 244 -517
157 -77 321 -69 463 23 171 111 250 318 196 513 -44 159 -161 277 -324 329
-48 15 -149 18 -213 7z m241 -147 c73 -36 126 -91 163 -169 22 -47 26 -70 26
-146 0 -79 -3 -97 -29 -147 -60 -119 -169 -190 -297 -194 -308 -11 -477 348
-272 576 106 118 267 149 409 80z"/>
<path d="M773 4239 c-147 -28 -280 -157 -321 -311 -16 -59 -7 -186 17 -248
109 -281 468 -358 681 -147 184 182 161 483 -49 635 -88 64 -219 92 -328 71z"/>
<path d="M3493 3413 c-57 -20 -133 -89 -163 -149 -36 -71 -35 -188 2 -259 31
-60 77 -105 138 -137 64 -33 185 -33 253 1 60 29 109 79 139 140 33 66 33 197
-1 260 -69 131 -229 194 -368 144z m212 -137 c103 -79 83 -245 -36 -301 -42
-19 -57 -21 -96 -14 -90 17 -153 88 -153 172 0 148 168 232 285 143z"/>
<path d="M1457 3388 c-82 -14 -152 -74 -183 -155 -20 -51 -15 -143 10 -191 60
-117 202 -164 321 -108 61 28 87 56 116 120 79 179 -70 367 -264 334z"/>
<path d="M4437 3204 c-1 -1 -25 -4 -54 -8 -167 -20 -321 -117 -442 -279 -99
-133 -215 -191 -371 -186 -92 3 -207 48 -261 101 -230 230 -595 148 -691 -155
-82 -261 124 -531 397 -522 91 3 166 31 242 92 143 112 206 140 320 141 161 1
266 -53 370 -191 92 -122 191 -198 323 -246 266 -97 578 8 738 249 167 250
142 580 -61 797 -123 131 -264 196 -450 206 -31 2 -58 3 -60 1z m136 -128
c188 -35 333 -164 403 -356 22 -61 27 -220 8 -289 -89 -334 -468 -497 -763
-329 -64 36 -155 123 -194 184 -47 75 -154 156 -251 190 -63 23 -86 26 -181
29 -144 4 -256 -37 -370 -135 -83 -72 -134 -94 -220 -94 -120 0 -211 60 -262
171 -22 47 -25 65 -21 127 11 158 124 269 277 270 85 0 144 -18 184 -58 8 -8
43 -37 79 -63 132 -101 290 -134 451 -96 133 30 230 96 320 216 31 41 78 94
104 116 50 43 150 98 193 106 14 3 38 9 54 13 31 8 142 7 189 -2z"/>
<path d="M472 3145 c-376 -82 -576 -492 -411 -844 101 -219 342 -356 587 -336
172 14 322 98 430 240 129 170 236 233 412 239 139 6 245 -32 352 -123 77 -66
113 -87 179 -104 161 -42 330 36 403 186 23 46 35 96 40 162 3 30 -23 124 -45
167 -29 57 -96 117 -167 151 -53 25 -76 29 -140 29 -104 0 -170 -26 -257 -101
-115 -99 -224 -140 -365 -136 -146 5 -275 70 -364 184 -28 36 -81 96 -118 132
-141 139 -341 196 -536 154z"/>
<path d="M3495 2263 c-35 -12 -67 -34 -106 -73 -46 -47 -59 -68 -73 -121 -58
-205 93 -392 304 -377 151 11 258 120 268 273 7 125 -55 233 -166 286 -60 29
-160 35 -227 12z m182 -122 c127 -58 125 -255 -4 -316 -123 -59 -264 40 -251
175 12 125 137 194 255 141z"/>
<path d="M1404 2191 c-115 -52 -172 -185 -130 -304 34 -95 124 -158 226 -158
257 -2 338 349 105 457 -62 29 -143 31 -201 5z"/>
<path d="M2985 1810 c-97 -14 -218 -79 -275 -147 -140 -166 -144 -415 -9 -583
62 -76 169 -140 267 -157 48 -8 91 -8 174 1 93 11 164 -12 224 -71 55 -53 74
-96 85 -192 14 -120 67 -203 162 -253 60 -32 194 -33 253 -1 63 34 97 66 129
125 27 47 30 62 30 138 0 69 -5 93 -23 128 -52 98 -125 145 -253 162 -98 13
-134 29 -183 76 -73 71 -92 146 -74 295 26 217 -154 447 -372 475 -19 2 -46 6
-60 8 -14 1 -47 -1 -75 -4z m201 -150 c133 -65 201 -186 186 -332 -10 -98 -4
-182 16 -236 53 -140 181 -234 336 -249 114 -11 176 -64 184 -158 5 -64 -15
-114 -59 -147 -48 -36 -86 -46 -138 -36 -81 15 -141 83 -141 160 -1 213 -192
396 -400 382 -30 -2 -80 -5 -110 -8 -142 -9 -286 92 -326 231 -81 279 195 518
452 393z"/>
<path d="M4105 1771 c-90 -26 -143 -57 -210 -125 -227 -229 -161 -608 129
-745 78 -37 138 -49 223 -45 293 14 500 294 427 577 -41 158 -147 274 -301
328 -77 28 -190 32 -268 10z m207 -116 c101 -26 184 -95 230 -192 19 -40 23
-64 23 -143 0 -81 -4 -102 -25 -144 -39 -76 -94 -132 -166 -167 -173 -85 -388
-8 -466 168 -25 58 -29 76 -29 148 -1 99 46 198 126 267 17 15 79 49 95 53 3
1 12 4 20 8 52 20 122 21 192 2z"/>
<path d="M1992 1729 c-160 -29 -300 -176 -320 -337 -4 -31 -3 -96 2 -145 7
-73 6 -97 -9 -145 -41 -138 -173 -241 -308 -242 -131 -2 -238 -107 -238 -236
0 -164 155 -277 311 -224 97 33 153 115 163 241 3 37 16 88 28 115 29 61 102
133 166 165 49 24 80 26 281 19 205 -6 388 170 394 381 5 185 -116 352 -288
398 -56 15 -131 19 -182 10z"/>
<path d="M775 1700 c-326 -71 -444 -472 -208 -706 200 -200 540 -144 662 109
38 78 48 125 45 208 -5 111 -59 223 -145 297 -38 33 -124 80 -162 88 -48 10
-154 13 -192 4z"/>
<path d="M2940 865 c-72 -14 -117 -37 -167 -83 -192 -174 -148 -480 85 -594
61 -30 74 -33 157 -32 111 0 180 28 253 102 160 163 135 430 -53 553 -88 58
-174 75 -275 54z m150 -120 c50 -16 106 -64 134 -114 68 -126 19 -278 -108
-337 -206 -96 -421 122 -320 324 55 110 178 164 294 127z"/>
<path d="M1999 755 c-208 -76 -276 -335 -131 -496 25 -28 68 -62 96 -77 43
-22 64 -26 136 -26 72 0 92 4 135 26 113 59 176 168 171 293 -8 171 -139 296
-309 294 -34 0 -78 -6 -98 -14z"/>
</g>
</svg>
